<svg width="42" height="46" viewBox="0 0 42 46" fill="none" xmlns="http://www.w3.org/2000/svg">
<g id="Group 204">
<path id="Vector" d="M21.0001 42.0006C32.2114 42.0006 41.3 32.9121 41.3 21.7008C41.3 10.4894 32.2114 1.40088 21.0001 1.40088C9.78876 1.40088 0.700195 10.4894 0.700195 21.7008C0.700195 32.9121 9.78876 42.0006 21.0001 42.0006Z" fill="#EBEBEB"/>
<path id="Vector_2" d="M38.7793 25.3222C38.6877 25.5246 38.5199 25.6827 38.3125 25.7622C38.105 25.8417 37.8746 25.8361 37.6712 25.7467C37.4678 25.6574 37.3079 25.4914 37.2261 25.2848C37.1444 25.0782 37.1474 24.8477 37.2345 24.6434C37.6641 23.6647 37.6226 22.5019 37.1624 21.5309C37.0306 21.2513 36.8636 20.9896 36.6654 20.7524C36.2666 20.2753 35.3976 19.5236 34.0684 19.845C31.9139 20.365 31.8916 22.225 32.9079 27.2013C33.2538 28.8956 33.026 30.2156 32.2314 31.126C31.5457 31.9107 30.6138 32.163 29.9971 32.242C29.6313 32.2881 29.3766 32.2727 29.3498 32.2712C29.1303 32.2521 28.9269 32.1479 28.7832 31.9809C28.6395 31.8139 28.5669 31.5972 28.5808 31.3773C28.5947 31.1574 28.6941 30.9517 28.8577 30.8041C29.0214 30.6566 29.2362 30.5788 29.4564 30.5876C29.4863 30.5892 30.4381 30.6229 30.9674 30.0078C31.1959 29.7408 31.311 29.3896 31.3539 29.013C31.4107 28.5206 31.3455 27.9844 31.2542 27.5388C30.8017 25.3237 30.442 23.3617 30.6146 21.7832C30.8263 19.8473 31.8556 18.6439 33.6726 18.2044C35.291 17.8132 36.8533 18.3478 37.9594 19.6694C38.0637 19.7944 38.1621 19.9238 38.2546 20.0575C39.3016 21.5807 39.5194 23.6371 38.7793 25.3222Z" fill="white"/>
<path id="Vector_3" d="M38.7789 25.3218C38.6873 25.5242 38.5196 25.6823 38.3122 25.7618C38.1047 25.8413 37.8743 25.8358 37.6709 25.7464C37.4675 25.657 37.3075 25.491 37.2258 25.2844C37.144 25.0779 37.1471 24.8474 37.2342 24.643C37.6637 23.6643 37.6223 22.5016 37.1621 21.5305C37.689 21.1608 38.1416 20.673 38.2543 20.0571C39.3013 21.5804 39.5191 23.6367 38.7789 25.3218Z" fill="#FFBC1F"/>
<g id="Group" opacity="0.3">
<path id="Vector_4" d="M37.3304 25.4862C37.2411 25.3668 37.1852 25.2258 37.1684 25.0777C37.1515 24.9296 37.1744 24.7797 37.2345 24.6433C37.6641 23.6646 37.6226 22.5018 37.1624 21.5308C37.0306 21.2511 36.8636 20.9895 36.6654 20.7523C36.2666 20.2752 35.3976 19.5235 34.0684 19.8449C31.9139 20.3649 31.8916 22.2249 32.9079 27.2012C33.2538 28.8955 33.026 30.2155 32.2314 31.1259C31.5457 31.9106 30.6138 32.1629 29.9971 32.2419C29.6313 32.2879 29.3766 32.2726 29.3498 32.2711C29.1303 32.252 28.9269 32.1478 28.7832 31.9808C28.6395 31.8137 28.5669 31.5971 28.5808 31.3772C28.5947 31.1573 28.6941 30.9516 28.8577 30.804C29.0214 30.6564 29.2362 30.5787 29.4564 30.5875C29.4863 30.589 30.4382 30.6228 30.9674 30.0077C31.1959 29.7407 31.311 29.3895 31.3539 29.0129C31.4337 29.0238 31.5119 29.0436 31.5873 29.0718C31.9498 29.2098 32.3377 28.9398 32.3236 28.5524C32.3152 28.3141 32.2826 28.0182 32.2139 27.6507C31.8856 25.8919 29.8508 19.657 34.2848 19.137C38.1657 18.6821 39.5194 23.8793 37.3304 25.4862Z" fill="#363636"/>
</g>
<path id="Vector_5" d="M29.4895 32.5818C29.3975 32.5818 29.3409 32.5781 29.328 32.5772C29.0259 32.5546 28.745 32.4138 28.5461 32.1854C28.3471 31.957 28.2463 31.6593 28.2655 31.3571C28.2847 31.0548 28.4223 30.7722 28.6484 30.5708C28.8746 30.3693 29.1711 30.2651 29.4736 30.2809C29.4776 30.2809 30.303 30.3088 30.7341 29.8074C31.0832 29.4013 31.161 28.6174 30.9533 27.6004C30.4957 25.3592 30.1313 23.3722 30.309 21.7496C30.5365 19.6718 31.6436 18.3786 33.5996 17.9061C35.3354 17.4867 37.01 18.0575 38.1942 19.4723C39.5631 21.1077 39.9109 23.508 39.0598 25.4451C38.9997 25.5845 38.9127 25.7106 38.8036 25.8161C38.6946 25.9217 38.5658 26.0047 38.4246 26.0602C38.2833 26.1158 38.1325 26.1428 37.9808 26.1399C37.829 26.1369 37.6794 26.1039 37.5405 26.0429C37.4015 25.9818 37.276 25.8939 37.1712 25.7841C37.0664 25.6743 36.9844 25.5449 36.9298 25.4033C36.8752 25.2617 36.8492 25.1107 36.8533 24.959C36.8573 24.8073 36.8913 24.6579 36.9533 24.5194C37.4609 23.3644 37.2506 21.9297 36.4299 20.9491C36.0771 20.527 35.3091 19.86 34.14 20.1429C32.3527 20.5745 32.1611 22.0133 33.2078 27.14C33.5738 28.9325 33.3228 30.3413 32.4618 31.3279C31.7224 32.1736 30.7342 32.4569 30.035 32.5463C29.8541 32.5695 29.6719 32.5813 29.4895 32.5818ZM29.4087 30.8927C29.2696 30.8925 29.1358 30.9464 29.0357 31.0429C28.9355 31.1394 28.8767 31.2711 28.8716 31.4101C28.8666 31.5491 28.9157 31.6846 29.0086 31.7882C29.1015 31.8917 29.231 31.9551 29.3697 31.9651C29.3728 31.9651 29.6116 31.9804 29.9577 31.9372C30.5512 31.8617 31.3874 31.6245 31.9996 30.9237C32.7281 30.0895 32.9323 28.8578 32.6066 27.2628C32.1231 24.8947 31.8341 23.0618 31.9944 21.8128C32.1578 20.5396 32.775 19.8413 33.9959 19.5464C35.4873 19.1861 36.4557 20.024 36.9004 20.5553C37.8668 21.7105 38.1143 23.4028 37.5151 24.7662C37.4867 24.8307 37.4713 24.9002 37.4698 24.9707C37.4683 25.0412 37.4807 25.1113 37.5062 25.177C37.5318 25.2427 37.57 25.3028 37.6188 25.3537C37.6676 25.4046 37.7259 25.4454 37.7905 25.4738C37.9208 25.5311 38.0686 25.5343 38.2013 25.4827C38.334 25.4311 38.4408 25.3288 38.4981 25.1985C39.2577 23.4699 38.9465 21.3273 37.7239 19.8664C36.695 18.6372 35.2443 18.1404 33.7439 18.5029C32.0422 18.914 31.1183 19.9979 30.9192 21.8163C30.7505 23.3503 31.1074 25.288 31.5544 27.4775C31.7289 28.3315 31.8089 29.4984 31.1993 30.208C30.5713 30.9384 29.4871 30.8967 29.4412 30.8942C29.4303 30.893 29.4194 30.8927 29.4087 30.8927Z" fill="#363636"/>
<path id="Vector_6" d="M31.4916 31.1371C31.3297 32.2685 30.4569 33.3614 30.4569 33.3614H11.8272C10.9191 32.7049 10.0907 31.6541 10.0171 30.6401V30.6394C9.9826 30.1684 10.1115 29.7051 10.4712 29.2933C11.6063 27.9947 13.2492 29.4083 13.2492 29.4083C11.1937 25.4805 14.9995 20.5986 14.9995 20.5986C15.0004 20.5976 15.0012 20.5966 15.0018 20.5955C17.3335 17.9194 25.2252 16.8656 26.1747 18.0475C26.2259 18.1093 26.2576 18.1848 26.266 18.2646C26.3534 19.1558 26.8451 20.3938 27.2347 21.2612C27.4909 21.8311 27.8253 22.3596 28.2149 22.8466C29.12 23.9787 29.6055 25.199 29.8617 26.2529C30.0328 26.9509 30.1255 27.6658 30.1378 28.3844C30.1447 28.7847 30.1202 29.0217 30.1202 29.0217C31.352 29.4781 31.6082 30.3172 31.4916 31.1371Z" fill="white"/>
<path id="Vector_7" d="M12.5413 32.4439C12.9589 32.4439 13.2974 32.1053 13.2974 31.6877C13.2974 31.2702 12.9589 30.9316 12.5413 30.9316C12.1237 30.9316 11.7852 31.2702 11.7852 31.6877C11.7852 32.1053 12.1237 32.4439 12.5413 32.4439Z" fill="#FF5253"/>
<path id="Vector_8" d="M29.2743 32.6717C29.6601 32.5119 29.8433 32.0696 29.6835 31.6838C29.5237 31.298 29.0814 31.1148 28.6956 31.2746C28.3098 31.4344 28.1266 31.8767 28.2864 32.2625C28.4462 32.6483 28.8885 32.8315 29.2743 32.6717Z" fill="#FF5253"/>
<path id="Vector_9" d="M11.1746 31.5786C11.3845 31.5786 11.5547 31.4084 11.5547 31.1985C11.5547 30.9885 11.3845 30.8184 11.1746 30.8184C10.9646 30.8184 10.7944 30.9885 10.7944 31.1985C10.7944 31.4084 10.9646 31.5786 11.1746 31.5786Z" fill="#FF5253"/>
<path id="Vector_10" d="M11.6311 30.6953C11.841 30.6953 12.0112 30.5251 12.0112 30.3152C12.0112 30.1052 11.841 29.9351 11.6311 29.9351C11.4212 29.9351 11.251 30.1052 11.251 30.3152C11.251 30.5251 11.4212 30.6953 11.6311 30.6953Z" fill="#FF5253"/>
<path id="Vector_11" d="M12.6609 30.6665C12.8708 30.6665 13.041 30.4963 13.041 30.2864C13.041 30.0764 12.8708 29.9062 12.6609 29.9062C12.4509 29.9062 12.2808 30.0764 12.2808 30.2864C12.2808 30.4963 12.4509 30.6665 12.6609 30.6665Z" fill="#FF5253"/>
<path id="Vector_12" d="M28.9395 30.7864C29.158 30.6959 29.2617 30.4455 29.1712 30.227C29.0808 30.0086 28.8303 29.9049 28.6119 29.9953C28.3934 30.0858 28.2897 30.3363 28.3801 30.5547C28.4706 30.7732 28.7211 30.8769 28.9395 30.7864Z" fill="#FF5253"/>
<path id="Vector_13" d="M30.752 31.613C30.8064 31.3829 30.6638 31.1523 30.4337 31.098C30.2036 31.0437 29.973 31.1862 29.9187 31.4163C29.8643 31.6465 30.0069 31.877 30.237 31.9314C30.4671 31.9857 30.6977 31.8431 30.752 31.613Z" fill="#FF5253"/>
<path id="Vector_14" d="M30.3492 30.4875C30.4035 30.2574 30.261 30.0268 30.0309 29.9725C29.8007 29.9182 29.5701 30.0607 29.5158 30.2908C29.4615 30.521 29.604 30.7516 29.8342 30.8059C30.0643 30.8602 30.2949 30.7177 30.3492 30.4875Z" fill="#FF5253"/>
<path id="Vector_15" d="M29.8608 26.2537C29.4976 26.3449 29.1246 26.3907 28.7502 26.3902C26.2267 26.3902 24.1812 24.3446 24.1812 21.8212C24.1805 21.0775 24.3617 20.345 24.7091 19.6874C25.0564 19.0298 25.5592 18.4671 26.1738 18.0483C26.225 18.1101 26.2567 18.1856 26.2651 18.2654C26.3525 19.1567 26.8442 20.3946 27.2338 21.2621C27.49 21.832 27.8244 22.3604 28.214 22.8475C29.1191 23.9795 29.6046 25.1998 29.8608 26.2537Z" fill="#FFBC1F"/>
<g id="Group_2" opacity="0.3">
<path id="Vector_16" d="M30.1192 29.0227C28.566 26.9273 26.265 27.8646 26.265 27.8646C26.5226 27.3003 27.0855 26.9874 27.5799 26.8159C28.183 26.6065 28.5172 25.9494 28.2971 25.3502C27.9868 24.5052 27.3644 23.8284 26.8898 23.2294C26.5446 22.7939 26.2408 22.2477 26.0229 21.81C25.9227 21.6104 25.75 21.4566 25.5401 21.3801C25.3303 21.3035 25.0991 21.31 24.8939 21.3981C18.0244 24.3364 14.9985 20.5995 14.9985 20.5995C14.9994 20.5986 15.0002 20.5975 15.0008 20.5965C17.3325 17.9204 25.2242 16.8665 26.1737 18.0485C26.2249 18.1103 26.2566 18.1858 26.265 18.2656C26.3524 19.1568 26.8441 20.3947 27.2337 21.2622C27.4899 21.8321 27.8243 22.3606 28.2139 22.8476C29.119 23.9797 29.6045 25.2 29.8607 26.2539C30.2434 27.8216 30.1192 29.0227 30.1192 29.0227Z" fill="#363636"/>
</g>
<g id="Group_3" opacity="0.3">
<path id="Vector_17" d="M31.4906 31.1374C31.3287 32.2687 30.4559 33.3617 30.4559 33.3617H11.8262C10.9181 32.7051 10.0897 31.6543 10.0161 30.6404L11.1062 31.6654C11.6372 32.1648 12.3386 32.4428 13.0675 32.4428H13.4532C13.9651 32.4428 14.4634 32.2779 14.8743 31.9727C14.8743 31.9727 15.1542 32.2848 15.5976 31.9727C15.5976 31.9727 16.0578 32.2112 16.6821 31.5247C16.6821 31.5247 17.5918 31.2455 17.2604 30.286C16.9291 29.3265 16.0908 26.3843 16.6453 25.1763C16.6453 25.1763 17.1998 29.9401 18.5313 29.9623C18.5313 29.9623 19.9119 30.329 22.1301 25.1786C22.1017 25.2698 21.1744 28.2067 19.9978 30.1319C19.9978 30.1319 19.7639 31.2532 20.7748 31.1182C20.7748 31.1182 20.9474 32.0271 22.3034 31.7326C22.3034 31.7326 23.9303 32.959 24.7686 28.11C24.7686 28.11 25.113 26.9511 24.9166 25.4647C24.9166 25.4647 25.4607 28.0695 24.907 30.7321C24.7514 31.4804 25.2751 32.2018 26.0347 32.2873C26.6496 32.3565 27.519 32.4152 28.7473 32.4384C29.6064 32.4546 30.4458 32.1483 31.0747 31.5626C31.2204 31.4279 31.3592 31.286 31.4906 31.1374Z" fill="#363636"/>
</g>
<g id="Group_4" opacity="0.3">
<path id="Vector_18" d="M30.1187 29.0229C30.1187 29.0229 27.514 28.3985 27.0047 31.8416C27.0047 31.8416 26.4962 28.2428 30.1364 28.3855C30.1433 28.7859 30.1187 29.0229 30.1187 29.0229Z" fill="#363636"/>
</g>
<g id="Group_5" opacity="0.3">
<path id="Vector_19" d="M20.1429 29.8894C20.1429 29.8894 20.375 30.4467 20.8002 30.3974C20.8853 30.3885 20.9692 30.3707 21.0506 30.3444C21.0773 30.3359 21.1056 30.3335 21.1333 30.3375C21.1611 30.3415 21.1875 30.3517 21.2107 30.3675C21.234 30.3832 21.2533 30.4039 21.2673 30.4282C21.2814 30.4525 21.2897 30.4796 21.2917 30.5076C21.3101 30.7256 21.3848 30.9785 21.6257 31.0261C21.9545 31.091 22.3183 30.8971 22.5493 30.7095C22.6537 30.6246 22.8117 30.6705 22.8479 30.8001L22.8498 30.8069C22.8547 30.8244 22.8646 30.8401 22.8781 30.8523C22.8917 30.8644 22.9084 30.8724 22.9264 30.8754C22.9443 30.8784 22.9628 30.8762 22.9795 30.8691C22.9963 30.862 23.0107 30.8502 23.021 30.8353C23.4079 30.275 24.441 28.5445 24.9169 25.4653C24.9169 25.4653 25.3218 29.0024 23.3032 31.6877C23.3032 31.6877 22.8214 32.1342 22.3037 31.7337C22.3037 31.7337 21.2365 32.0741 20.7751 31.1193C20.7755 31.1197 19.6827 31.068 20.1429 29.8894Z" fill="#363636"/>
</g>
<g id="Group_6" opacity="0.3">
<path id="Vector_20" d="M14.0576 31.1738C14.0576 31.1738 14.8645 31.6976 15.0701 31.2753C15.1139 31.1853 15.2334 31.161 15.3146 31.2196C15.4543 31.3204 15.6521 31.4014 15.8515 31.2787C16.0371 31.1641 16.0969 30.9768 16.1106 30.8185C16.1225 30.6781 16.2035 30.5476 16.3355 30.4982C16.4812 30.4437 16.6192 30.3075 16.5131 29.972C16.32 29.3618 15.8203 26.2368 16.6464 25.1768C16.6464 25.1768 16.1569 26.2443 16.7325 28.3773C16.7325 28.3773 17.9977 31.2746 16.6832 31.5252C16.6832 31.5252 16.3631 32.3511 15.4632 31.9566C15.4626 31.9566 14.6617 32.5237 14.0576 31.1738Z" fill="#363636"/>
</g>
<path id="Vector_21" d="M30.4563 33.6687H11.827C11.7625 33.6687 11.6997 33.6483 11.6475 33.6106C10.8038 33.0008 9.85272 31.9324 9.71972 30.7625C9.6487 30.1408 9.82864 29.5633 10.2401 29.0923C10.9577 28.2704 11.8837 28.3474 12.6067 28.6565C12.1312 27.1378 12.2856 25.3471 13.0692 23.4158C13.7715 21.6848 14.717 20.4619 14.7566 20.4106L14.767 20.3981C15.7327 19.287 17.743 18.3157 20.2845 17.7335C22.4904 17.2273 24.6899 17.1175 25.7572 17.4574C26.3862 17.6582 26.5469 17.9911 26.5702 18.235C26.6529 19.0811 27.1289 20.2795 27.5135 21.1359C27.7474 21.6566 28.0636 22.1677 28.4532 22.6546C30.4404 25.1397 30.4769 27.9917 30.4399 28.8205C31.1374 29.1284 31.5763 29.5926 31.7463 30.2029C32.1604 31.6928 30.7558 33.4768 30.6958 33.552C30.6672 33.5882 30.6308 33.6175 30.5894 33.6377C30.5479 33.6579 30.5024 33.6685 30.4563 33.6687ZM11.9273 33.0551H30.3025C30.5827 32.6658 31.435 31.3697 31.1552 30.3677C31.0222 29.8921 30.649 29.5456 30.013 29.3106C29.949 29.2871 29.8946 29.2429 29.8585 29.1851C29.8224 29.1273 29.8066 29.0591 29.8136 28.9912C29.8168 28.9592 30.1164 25.7189 27.9737 23.0393C27.5519 22.5116 27.2085 21.9562 26.9536 21.3883C26.55 20.4901 26.0501 19.2253 25.9593 18.2959C25.9533 18.2345 25.8477 18.1316 25.5698 18.0429C23.6676 17.4359 17.2514 18.4866 15.2352 20.794C15.0873 20.988 11.6128 25.6221 13.5194 29.2672C13.5526 29.3304 13.5627 29.4033 13.5479 29.4732C13.5332 29.543 13.4945 29.6056 13.4386 29.65C13.3827 29.6944 13.313 29.7179 13.2416 29.7165C13.1702 29.715 13.1015 29.6887 13.0474 29.6421C12.9901 29.593 11.6194 28.4445 10.7004 29.4961C10.4014 29.8385 10.2759 30.2413 10.3276 30.6926C10.4175 31.4705 11.0414 32.389 11.9273 33.0551Z" fill="#363636"/>
<path id="Vector_22" d="M13.5373 29.3079C13.6403 29.594 13.757 29.8871 13.8811 30.1692C14.0025 30.4501 14.1386 30.7243 14.2888 30.9909C14.3266 31.0556 14.3637 31.1209 14.4043 31.1809L14.464 31.273L14.5268 31.3579C14.5677 31.4179 14.6124 31.463 14.655 31.5127C14.6644 31.5245 14.6752 31.5351 14.6872 31.5442L14.7188 31.5716L14.7495 31.6C14.7607 31.6095 14.7762 31.6186 14.7894 31.6279C14.8968 31.7046 15.0109 31.7614 15.1023 31.7806C15.1383 31.7891 15.1756 31.7904 15.212 31.7842C15.2236 31.7821 15.2348 31.7782 15.2453 31.7729C15.2488 31.7711 15.2522 31.7691 15.2554 31.7668C15.2566 31.7658 15.258 31.7652 15.2571 31.7655C15.2562 31.7658 15.258 31.7655 15.2557 31.7672C15.2516 31.7713 15.2478 31.7756 15.2444 31.7803L15.6518 31.7172C15.6466 31.7137 15.6496 31.7157 15.6527 31.7172C15.6556 31.719 15.6586 31.7206 15.6618 31.722C15.6691 31.7259 15.6767 31.7294 15.6845 31.7325C15.6998 31.7401 15.7178 31.7454 15.7348 31.7516C15.7684 31.7618 15.8031 31.7683 15.8382 31.771C15.9044 31.7755 15.9708 31.7639 16.0316 31.7371C16.1005 31.7021 16.1628 31.6554 16.2157 31.5991C16.245 31.567 16.2723 31.5294 16.3014 31.4951L16.3794 31.3734L16.7169 31.2276C16.7078 31.2253 16.7169 31.2276 16.7184 31.2276L16.7311 31.2286C16.74 31.2286 16.7498 31.2295 16.7592 31.2294C16.7775 31.2293 16.7957 31.2275 16.8136 31.224C16.8411 31.2192 16.8672 31.2087 16.8903 31.1933C16.9114 31.1789 16.9287 31.1597 16.941 31.1374C16.9603 31.1033 16.9749 31.0668 16.9842 31.0287C17.0066 30.9367 17.0108 30.8192 17.0042 30.6968C16.9961 30.5683 16.9785 30.4407 16.9514 30.3148C16.9396 30.2501 16.9218 30.1841 16.908 30.1186L16.8558 29.9192C16.8187 29.7781 16.7791 29.6377 16.7442 29.496C16.6759 29.212 16.6121 28.9276 16.5579 28.6411C16.4525 28.0677 16.3673 27.4897 16.3432 26.9043C16.3366 26.7582 16.3378 26.6108 16.3383 26.4646C16.3461 26.3174 16.3498 26.1709 16.3689 26.0239C16.3755 25.9509 16.3873 25.8776 16.3996 25.8047C16.4054 25.7682 16.4118 25.7318 16.4186 25.6956L16.4456 25.5883C16.4552 25.5524 16.4622 25.5165 16.4739 25.4809L16.5121 25.376C16.5326 25.3057 16.5766 25.2417 16.6084 25.1782C16.5513 25.4635 16.5731 25.7458 16.5974 26.0268C16.6216 26.3079 16.6667 26.5875 16.7156 26.8662C16.8106 27.4235 16.9287 27.9782 17.0747 28.5256C17.1436 28.8001 17.2225 29.0723 17.3048 29.3429C17.3438 29.4788 17.3884 29.6129 17.4297 29.7479C17.4734 29.8881 17.5196 30.0352 17.5524 30.1855C17.589 30.3398 17.6139 30.4967 17.6271 30.6548C17.6437 30.8303 17.6327 31.0073 17.5945 31.1794C17.5699 31.2811 17.5301 31.3785 17.4763 31.4682C17.4149 31.5683 17.332 31.6534 17.2335 31.7174C17.135 31.7813 17.0235 31.8224 16.9071 31.8378C16.854 31.8455 16.8004 31.8484 16.7468 31.8465C16.7204 31.8465 16.6941 31.8438 16.6675 31.8407L16.6267 31.8352C16.6113 31.8324 16.602 31.8312 16.5753 31.825L16.9127 31.6793L16.8009 31.8536C16.756 31.9097 16.7132 31.9666 16.6629 32.0206C16.5592 32.128 16.4364 32.2277 16.285 32.2967C16.131 32.3656 15.9624 32.3954 15.7942 32.3836C15.7123 32.3774 15.6314 32.362 15.553 32.3376C15.5142 32.3253 15.4761 32.311 15.4389 32.2948C15.4202 32.2872 15.401 32.2773 15.3821 32.2679C15.3729 32.2635 15.3628 32.2579 15.3524 32.2526C15.3419 32.2472 15.3329 32.2418 15.3154 32.2305L15.7227 32.1674C15.7127 32.1796 15.7021 32.1911 15.6909 32.2021C15.6819 32.2115 15.6756 32.2174 15.6677 32.2239C15.6535 32.2367 15.6386 32.2488 15.6231 32.2601C15.5946 32.2814 15.5643 32.3003 15.5328 32.3167C15.4729 32.3481 15.409 32.3712 15.3428 32.3851C15.2233 32.4093 15.1 32.4085 14.9808 32.3827C14.7613 32.3348 14.59 32.2368 14.4396 32.1323C14.4206 32.1187 14.4019 32.1073 14.3826 32.0917L14.3241 32.0415C14.2873 32.0077 14.2425 31.9737 14.2138 31.9389C14.1525 31.8695 14.0871 31.7994 14.0382 31.7284L13.9598 31.6219L13.89 31.5146C13.8418 31.4431 13.8006 31.3707 13.7585 31.2983C13.597 31.0125 13.4507 30.7183 13.3204 30.417C13.1894 30.1185 13.0711 29.8224 12.9595 29.5119L13.5373 29.3079Z" fill="#363636"/>
<path id="Vector_23" d="M15.3585 32.0223C15.3115 31.9391 15.2702 31.8529 15.2348 31.7641C15.1995 31.6756 15.1678 31.5853 15.1406 31.4928C15.1119 31.3994 15.0907 31.3038 15.0774 31.207C15.0653 31.11 15.0621 31.0027 15.0943 30.9048C15.1489 30.9899 15.2088 31.0582 15.2655 31.1306C15.3223 31.203 15.3767 31.2746 15.4326 31.3463L15.5972 31.5624C15.6501 31.6347 15.7045 31.7089 15.7506 31.7815L15.3585 32.0223Z" fill="#363636"/>
<path id="Vector_24" d="M16.437 31.622C16.3795 31.4303 16.327 31.2374 16.2807 31.0415C16.2566 30.944 16.2336 30.8461 16.214 30.7469C16.1931 30.6471 16.1777 30.5463 16.168 30.4448C16.2936 30.6062 16.4097 30.7685 16.522 30.9337C16.6366 31.0972 16.7474 31.2631 16.8549 31.4289L16.437 31.622Z" fill="#363636"/>
<path id="Vector_25" d="M30.066 29.325C30.0581 29.3236 30.0333 29.3199 30.0149 29.3181C29.9965 29.3163 29.9741 29.3138 29.9535 29.3123C29.9115 29.3094 29.8684 29.3067 29.8253 29.3052C29.7383 29.3024 29.6513 29.3043 29.5645 29.3109C29.3902 29.324 29.2176 29.3544 29.0492 29.4017C28.7092 29.4977 28.3951 29.669 28.1302 29.9029C27.996 30.0249 27.8732 30.159 27.7633 30.3034C27.7111 30.379 27.6545 30.4525 27.6085 30.5335C27.5844 30.5732 27.5577 30.6117 27.5349 30.6527L27.4675 30.7765C27.2868 31.1083 27.1454 31.4691 27.0056 31.8414C26.9972 31.4387 27.0595 31.0377 27.1897 30.6565C27.3229 30.2608 27.5344 29.8959 27.8116 29.5836C28.1032 29.2635 28.4681 29.0188 28.875 28.8705C29.0785 28.7959 29.29 28.7454 29.5053 28.7201C29.6131 28.7072 29.7215 28.6999 29.83 28.6985C29.8846 28.6977 29.9394 28.6985 29.9949 28.7022C30.0226 28.7037 30.0506 28.706 30.079 28.7088C30.1074 28.7116 30.1328 28.7142 30.1733 28.7206L30.066 29.325Z" fill="#363636"/>
<path id="Vector_26" d="M29.577 29.1454C29.565 29.1246 29.5416 29.0862 29.5215 29.056C29.5014 29.0258 29.4793 28.9913 29.4567 28.9592C29.412 28.8951 29.3647 28.8316 29.3156 28.7698C29.2172 28.6463 29.1104 28.5297 28.9959 28.4209C28.7697 28.203 28.5057 28.028 28.217 27.9043C27.9269 27.784 27.6089 27.7271 27.2788 27.7257C26.9487 27.7243 26.6089 27.7817 26.2646 27.8638C26.559 27.6533 26.893 27.5046 27.2464 27.4267C27.6167 27.3475 28.0006 27.3577 28.3662 27.4565C28.7364 27.5561 29.0821 27.7432 29.3771 27.9831C29.5244 28.1033 29.6607 28.2363 29.7846 28.3804C29.8459 28.4525 29.9056 28.5265 29.9604 28.6047C29.988 28.6437 30.0153 28.6829 30.0409 28.7242C30.0665 28.7655 30.0898 28.8031 30.1196 28.8584L29.577 29.1454Z" fill="#363636"/>
<path id="Vector_27" d="M22.1316 25.1772C22.0768 25.6095 21.972 26.0252 21.8501 26.4351C21.7281 26.845 21.5764 27.2431 21.4301 27.6444C21.2837 28.0457 21.1246 28.4421 20.9581 28.8381C20.9176 28.9375 20.8743 29.0359 20.8295 29.1339C20.7847 29.2319 20.7428 29.3305 20.6954 29.4281L20.5554 29.7208L20.405 30.0123L20.4204 29.9816C20.4129 30.0009 20.4003 30.0366 20.3911 30.0658C20.3819 30.0949 20.3724 30.1272 20.3641 30.1592C20.348 30.2206 20.3355 30.2828 20.3267 30.3456C20.3082 30.4668 20.3099 30.5838 20.3339 30.6598C20.3607 30.7365 20.3822 30.7618 20.4449 30.7949C20.5118 30.8236 20.622 30.8432 20.7453 30.8369L21.0642 31.0792C21.0627 31.0721 21.0642 31.0782 21.0654 31.0819C21.0667 31.0865 21.0682 31.0909 21.07 31.0953C21.0735 31.1057 21.0777 31.116 21.0825 31.1259C21.0919 31.1476 21.1026 31.1687 21.1145 31.1891C21.1269 31.2095 21.1407 31.2289 21.1556 31.2474L21.1777 31.2754L21.203 31.2997C21.2738 31.3667 21.3603 31.4149 21.4545 31.44C21.5523 31.4728 21.6723 31.4719 21.791 31.4706C21.8524 31.4627 21.9148 31.4567 21.9772 31.4475L22.1678 31.4053L22.4132 31.4432C22.4097 31.441 22.4167 31.4449 22.4213 31.4472C22.4259 31.4495 22.4319 31.4525 22.4381 31.4553C22.4496 31.4611 22.4621 31.4665 22.4755 31.4717C22.5016 31.4824 22.5283 31.4915 22.5556 31.499C22.6084 31.5136 22.6628 31.5224 22.7175 31.5252C22.8205 31.5314 22.9231 31.5077 23.013 31.4571C23.105 31.4054 23.1925 31.3243 23.2724 31.2258C23.292 31.2008 23.3091 31.1715 23.3282 31.145C23.3469 31.116 23.3661 31.0943 23.385 31.0598C23.4223 30.994 23.4617 30.9301 23.4977 30.8627C23.6449 30.5946 23.7772 30.3123 23.9026 30.0279L23.9946 29.8131L24.0802 29.5955C24.1406 29.4516 24.1902 29.304 24.245 29.1572C24.4505 28.5678 24.6169 27.9631 24.7205 27.3471C24.7323 27.2704 24.7475 27.1937 24.7588 27.1159L24.7895 26.884C24.8156 26.7292 24.8257 26.5738 24.8463 26.4175L24.8605 26.3001L24.8678 26.1825L24.8882 25.9456C24.9017 25.787 24.9009 25.6281 24.9188 25.4641C24.9725 25.6181 25.0173 25.775 25.0529 25.9341C25.079 26.094 25.115 26.2563 25.1232 26.4187C25.1359 26.5815 25.1491 26.7456 25.1426 26.9087L25.137 27.1541C25.1333 27.2357 25.1242 27.3167 25.117 27.398C25.0557 28.0483 24.932 28.6912 24.7476 29.3178C24.6556 29.6306 24.5553 29.9417 24.4341 30.2456C24.3129 30.5495 24.1887 30.8523 24.0339 31.1473C23.9963 31.2214 23.9543 31.2947 23.9145 31.3686C23.896 31.4045 23.8661 31.4464 23.842 31.4849C23.8179 31.5234 23.7923 31.5636 23.763 31.6015C23.6445 31.7524 23.4996 31.8971 23.3129 32.0028C23.1225 32.1095 22.9055 32.1594 22.6876 32.1467C22.5829 32.1412 22.4793 32.1228 22.3791 32.0919C22.3299 32.0768 22.2815 32.0589 22.2342 32.0384C22.2106 32.0284 22.1868 32.0173 22.163 32.0049C22.151 31.9989 22.1394 31.9931 22.1265 31.9856C22.1136 31.9781 22.103 31.9727 22.0826 31.9598L22.3281 31.9977L22.0852 32.0513C22.0018 32.0643 21.9165 32.0732 21.8312 32.0819C21.6557 32.0858 21.4749 32.0859 21.2886 32.0289C21.0962 31.9759 20.9201 31.8758 20.7763 31.7374L20.7229 31.6837L20.6752 31.6253C20.6439 31.5862 20.6152 31.5453 20.5893 31.5025C20.5637 31.4592 20.5408 31.4143 20.5207 31.3682C20.51 31.3446 20.5006 31.3205 20.4923 31.2959C20.4879 31.2838 20.4834 31.2712 20.4794 31.2568C20.4755 31.2424 20.4715 31.2312 20.4658 31.206L20.7847 31.4482C20.6068 31.4599 20.4066 31.4565 20.1929 31.3674C20.0801 31.3185 19.9797 31.2452 19.8988 31.1526C19.8207 31.0611 19.7631 30.9538 19.7301 30.838C19.6687 30.6219 19.6798 30.4281 19.7063 30.251C19.7206 30.1641 19.7398 30.0781 19.764 29.9934C19.7761 29.9518 19.7887 29.9106 19.8029 29.8694C19.8172 29.8283 19.8304 29.7911 19.8517 29.7403V29.7392C19.8559 29.7294 19.8607 29.7197 19.8658 29.7104C20.0685 29.3528 20.2579 28.9783 20.4425 28.601C20.6298 28.2247 20.804 27.84 20.9837 27.4572C21.1633 27.0745 21.3281 26.6842 21.5132 26.3021C21.6984 25.92 21.895 25.5426 22.1316 25.1772Z" fill="#363636"/>
<path id="Vector_28" d="M20.5591 31.0373C20.6188 30.9538 20.6787 30.8712 20.7412 30.7896C20.8036 30.7079 20.867 30.6271 20.9302 30.5461C20.9934 30.4651 21.0598 30.3858 21.1257 30.3062C21.1917 30.2266 21.2609 30.1488 21.3342 30.0747L21.248 30.3723L21.1586 30.6668C21.1279 30.7642 21.0981 30.8627 21.0656 30.9594C21.0331 31.056 21.0012 31.1531 20.9677 31.249L20.5591 31.0373Z" fill="#363636"/>
<path id="Vector_29" d="M22.0474 31.5869L22.4737 31.0193C22.5435 30.9236 22.6171 30.8296 22.686 30.7329C22.7585 30.638 22.8258 30.5392 22.8875 30.437C22.8794 30.5597 22.8472 30.6785 22.8165 30.796C22.7821 30.9122 22.7472 31.0287 22.7068 31.1425C22.6665 31.2563 22.6269 31.3706 22.5827 31.4826C22.5385 31.5946 22.4941 31.7058 22.4459 31.8176L22.0474 31.5869Z" fill="#363636"/>
<path id="Vector_30" d="M20.2052 22.3153C17.3343 22.3153 14.7691 21.7674 12.7875 20.7304C12.2876 20.4704 11.8117 20.1665 11.3656 19.8222H11.3405V19.8021C11.1357 19.6423 10.939 19.4722 10.7513 19.2926C10.1927 18.759 9.73884 18.16 9.40136 17.5131C8.91263 16.572 8.66504 15.5209 8.66504 14.389C8.66504 13.363 8.8732 12.3359 9.28355 11.3363C9.37942 10.5047 9.46103 9.83299 9.54034 9.22415C9.82704 7.03912 10.2334 4.48148 11.0743 2.07939C11.1706 1.80081 11.3306 1.54853 11.5414 1.3426C11.7523 1.13667 12.0083 0.982778 12.2891 0.893148C12.5662 0.802512 12.8606 0.777782 13.1489 0.820923C13.4372 0.864064 13.7114 0.973887 13.9498 1.14166C15.3375 2.11222 16.7768 3.54083 17.6161 4.78138L17.6336 4.8073C18.5349 4.61261 19.4544 4.5149 20.3765 4.51584C21.2147 4.51556 22.051 4.59777 22.8731 4.76128C23.715 3.52595 25.1459 2.10746 26.5257 1.14273C26.7642 0.97489 27.0387 0.865053 27.3271 0.821964C27.6156 0.778875 27.9102 0.803723 28.1873 0.894529C28.468 0.984101 28.7239 1.13795 28.9346 1.34384C29.1453 1.54972 29.3051 1.80196 29.4012 2.08046C29.708 2.95883 29.97 3.88567 30.2004 4.91376C30.6769 7.03068 30.9554 9.28244 31.2 11.4081L31.2049 11.4501C31.3001 11.7065 31.382 11.9616 31.4489 12.209C31.6443 12.9196 31.7437 13.6531 31.7444 14.39C31.7444 16.3623 31.0157 18.0379 29.5785 19.3703C29.4251 19.5133 29.2594 19.655 29.0711 19.8035V19.8233H29.0455C28.3673 20.3516 27.5648 20.8075 26.6602 21.1785C25.1798 21.7844 23.4666 22.153 21.5683 22.274C21.1302 22.301 20.6718 22.3153 20.2052 22.3153ZM11.4166 19.7646C11.8581 20.105 12.329 20.4054 12.8237 20.6624C14.7944 21.6936 17.3472 22.2386 20.2058 22.2386C20.6707 22.2386 21.1276 22.2243 21.5635 22.1963C23.4543 22.0757 25.1594 21.7091 26.632 21.1071C27.5285 20.739 28.3234 20.2881 28.9953 19.7653L29.0106 19.7538C29.2033 19.6026 29.3723 19.4585 29.5277 19.3134C30.9488 17.9959 31.6692 16.3391 31.6692 14.3893C31.6685 13.6592 31.5701 12.9325 31.3765 12.2285C31.3046 11.9623 31.215 11.6876 31.1102 11.4116L31.0608 11.2815L31.1147 11.3243C30.8729 9.22768 30.5959 7.01197 30.1269 4.92972C29.8968 3.90454 29.636 2.98062 29.3305 2.10516C29.2381 1.83775 29.0847 1.59558 28.8823 1.39792C28.6799 1.20027 28.4342 1.05259 28.1646 0.966627C27.8987 0.879538 27.6161 0.855726 27.3394 0.897084C27.0626 0.938443 26.7993 1.04383 26.5705 1.20486C25.1899 2.17128 23.7582 3.59145 22.9231 4.8251L22.9088 4.84627L22.8838 4.8412C22.0587 4.67545 21.2191 4.59215 20.3774 4.59254C19.4087 4.59189 18.4429 4.70063 17.4986 4.91668L17.3337 4.95272L17.5331 4.79442C16.6952 3.56722 15.2752 2.16192 13.9056 1.20394C13.6769 1.04301 13.4138 0.93766 13.1372 0.896276C12.8607 0.854893 12.5782 0.878614 12.3124 0.965554C12.0429 1.05161 11.7972 1.19935 11.5948 1.39702C11.3925 1.59469 11.239 1.83685 11.1466 2.10424C10.3086 4.49958 9.90298 7.05231 9.61688 9.2335C9.53758 9.84358 9.45582 10.5159 9.35963 11.3504L9.35703 11.3605C8.94914 12.3524 8.7422 13.3713 8.7422 14.389C8.7422 15.5088 8.98764 16.5478 9.47024 17.4777C9.80327 18.118 10.2526 18.7102 10.8048 19.2379C10.9953 19.4199 11.195 19.592 11.4031 19.7535L11.4166 19.7646Z" fill="#363636"/>
<path id="Vector_31" d="M27.1795 20.823C27.1795 20.823 26.9769 20.9434 26.6461 21.1416C25.1635 21.7485 23.433 22.1154 21.5661 22.2343C21.1199 22.2631 20.6665 22.2773 20.2059 22.2768C17.3878 22.2768 14.8063 21.7428 12.8061 20.6968C12.3305 19.2453 13.6038 18.2117 15.6688 17.5521C16.4487 17.3026 17.0592 16.68 17.2553 15.8849C18.0654 12.6022 21.9661 12.6022 22.7763 15.8849C22.9724 16.68 23.5827 17.3026 24.3626 17.5521C26.4867 18.2306 27.7741 19.3044 27.1795 20.823Z" fill="white"/>
<g id="Group_7" opacity="0.6">
<path id="Vector_32" d="M26.4697 1.17261C26.347 1.25882 26.2243 1.3481 26.1016 1.43968C27.0773 0.971194 28.2823 1.44673 28.6552 2.51256C29.6538 5.36718 30.0734 8.53458 30.4518 11.8315L30.4343 11.8181C30.7994 12.7732 30.9961 13.7806 30.9961 14.8094C30.9961 16.8478 30.1984 18.5045 28.8424 19.7616C28.6773 19.9156 28.504 20.0631 28.3225 20.204H28.3217C28.2482 20.2617 28.1732 20.3186 28.0965 20.3738C28.3935 20.1937 28.6797 19.9964 28.9537 19.7829C28.9539 19.783 28.954 19.7831 28.9542 19.7831C28.9544 19.7831 28.9545 19.783 28.9546 19.7829C29.1355 19.6415 29.3093 19.4945 29.4745 19.3404C30.8303 18.0834 31.6283 16.4267 31.6283 14.3883C31.6283 13.3596 31.4314 12.3522 31.0665 11.397L31.0838 11.4105C30.7054 8.1135 30.2862 4.94625 29.2872 2.09163C28.8793 0.927782 27.4794 0.467121 26.4697 1.17261Z" fill="white"/>
</g>
<g id="Group_8" opacity="0.6">
<path id="Vector_33" d="M11.4629 1.39625C11.7483 1.27931 12.0586 1.23611 12.3651 1.27061C12.6717 1.30511 12.9646 1.41621 13.2169 1.59368C14.4999 2.49061 15.7463 3.71198 16.5745 4.80618C16.6679 4.92793 16.7929 5.02175 16.9359 5.07746C17.079 5.13317 17.2345 5.14864 17.3857 5.12218H17.3907H17.3916C17.439 5.03444 17.4912 4.9404 17.5417 4.84959C17.4983 4.8591 17.4539 4.86861 17.4105 4.87889L17.5061 4.80219C16.7003 3.61242 15.2971 2.1855 13.8489 1.1726C13.0754 0.632167 12.0725 0.776057 11.4629 1.39625Z" fill="white"/>
</g>
<path id="Vector_34" d="M25.7812 5.8112C26.2678 4.9201 26.8975 4.07517 27.351 3.5122C27.592 3.21184 28.0732 3.32167 28.1609 3.69704C28.3821 4.64275 28.6934 6.23873 28.7385 7.89621V7.89698" fill="#FF5253"/>
<path id="Vector_35" d="M28.7379 7.89699H28.6996C28.6558 6.2823 28.3621 4.72652 28.1231 3.70579C28.1053 3.62816 28.0659 3.55714 28.0095 3.50099C27.953 3.44484 27.8818 3.40586 27.804 3.38856C27.7267 3.37002 27.6457 3.37406 27.5706 3.40022C27.4955 3.42638 27.4295 3.47356 27.3805 3.53613C26.9356 4.08837 26.303 4.93484 25.8144 5.82962L25.7471 5.7928C26.238 4.89311 26.8741 4.04297 27.3208 3.48812C27.3795 3.41503 27.4576 3.35993 27.5462 3.32909C27.6348 3.29826 27.7302 3.29293 27.8216 3.31372C27.9131 3.33451 27.9968 3.38058 28.0633 3.44668C28.1298 3.51278 28.1764 3.59624 28.1978 3.68754C28.4374 4.71179 28.7322 6.2731 28.7763 7.89438L28.7379 7.89699Z" fill="#363636"/>
<g id="Group_9" opacity="0.6">
<path id="Vector_36" d="M25.3596 6.27779L27.441 7.66836C27.6221 7.78947 27.8279 7.86881 28.0434 7.90065C28.259 7.93248 28.4789 7.91602 28.6873 7.85244L25.7809 5.81222C26.2675 4.9202 26.8972 4.07528 27.3506 3.5123C27.3521 3.51004 27.354 3.50811 27.3563 3.50662C27.1808 3.29416 26.8332 3.27131 26.6396 3.5123C26.2636 3.9794 25.6677 4.76159 25.1976 5.52337C25.1216 5.64558 25.0959 5.79257 25.1261 5.93333C25.1564 6.07408 25.2401 6.19759 25.3596 6.27779Z" fill="white"/>
</g>
<g id="Group_10" opacity="0.3">
<path id="Vector_37" d="M27.1758 3.73263C27.1921 3.76527 27.2046 3.79972 27.2129 3.83526C27.397 4.61974 27.6424 5.85308 27.7463 7.19702L28.7386 7.89698V7.89621C28.6935 6.23949 28.3823 4.64275 28.1611 3.69704C28.0733 3.32167 27.5921 3.21184 27.3511 3.5122C27.2951 3.58174 27.2366 3.65522 27.1758 3.73263Z" fill="#363636"/>
</g>
<path id="Vector_38" d="M11.5796 7.89698V7.89621C11.6245 6.23949 11.9359 4.64275 12.1571 3.69704C12.2447 3.32167 12.7259 3.21184 12.9669 3.5122C13.4204 4.07548 14.0501 4.9201 14.5368 5.8112" fill="#FF5253"/>
<path id="Vector_39" d="M11.6182 7.89717L11.5415 7.89609C11.5855 6.27404 11.8805 4.71258 12.12 3.68818C12.1413 3.59684 12.1879 3.51334 12.2544 3.44722C12.321 3.38109 12.4047 3.335 12.4962 3.31421C12.5877 3.29341 12.6831 3.29875 12.7717 3.32962C12.8603 3.36048 12.9384 3.41563 12.9971 3.48876C13.4438 4.04376 14.0795 4.89405 14.5707 5.79344L14.5035 5.83025C14.0149 4.93578 13.3821 4.08947 12.9373 3.53677C12.8883 3.4741 12.8223 3.42686 12.7472 3.40069C12.6721 3.37453 12.5911 3.37054 12.5138 3.3892C12.436 3.40649 12.3648 3.44548 12.3083 3.50163C12.2518 3.55778 12.2124 3.62879 12.1947 3.70643C11.956 4.72654 11.6621 6.28263 11.6182 7.89717Z" fill="#363636"/>
<g id="Group_11" opacity="0.6">
<path id="Vector_40" d="M11.5795 7.9963L11.5859 7.69794C11.6491 6.11239 11.9446 4.60493 12.157 3.69711C12.1717 3.63168 12.2003 3.5702 12.241 3.51687C12.0016 3.44507 11.7211 3.577 11.6563 3.85435C11.458 4.70219 11.1874 6.07251 11.101 7.54131C11.0969 7.60418 11.1066 7.6672 11.1295 7.72589C11.1524 7.78459 11.188 7.83752 11.2336 7.88094C11.2793 7.92436 11.3339 7.9572 11.3937 7.97714C11.4535 7.99707 11.5169 8.00361 11.5795 7.9963Z" fill="white"/>
</g>
<g id="Group_12" opacity="0.3">
<path id="Vector_41" d="M12.0728 4.0675C12.1012 4.08998 12.127 4.11572 12.1495 4.1442C12.5958 4.69875 13.2137 5.5268 13.6965 6.40302L14.5354 5.8112C14.0489 4.9201 13.4191 4.07548 12.9655 3.5122C12.7246 3.21184 12.2435 3.32167 12.1557 3.69704C12.1297 3.81163 12.1024 3.93481 12.0728 4.0675Z" fill="#363636"/>
</g>
<path id="Vector_42" d="M18.7144 15.2323C18.7144 15.5499 19.1534 15.8064 19.6934 15.8051C20.2333 15.8037 20.6705 15.5452 20.6697 15.2275C20.669 14.9098 20.2312 14.8836 19.6912 14.8848C19.1512 14.886 18.7127 14.9147 18.7144 15.2323Z" fill="#363636"/>
<path id="Vector_43" d="M17.5947 15.557C17.6678 15.7849 17.7666 15.9968 17.9188 16.131C18.0653 16.2691 18.2517 16.3244 18.4417 16.3142C18.6318 16.3039 18.8252 16.2287 18.9848 16.1138C19.0649 16.0566 19.1371 15.9891 19.1995 15.9129L19.244 15.855L19.2926 15.7832C19.3357 15.7216 19.393 15.6711 19.4597 15.6363C19.5263 15.6014 19.6004 15.5831 19.6757 15.5829C19.7509 15.5827 19.8251 15.6007 19.8919 15.6352C19.9588 15.6698 20.0163 15.7199 20.0596 15.7814L20.1086 15.8529L20.1532 15.9107C20.216 15.9864 20.2886 16.0534 20.3689 16.1101C20.5298 16.2241 20.7226 16.3004 20.9133 16.308C21.104 16.3157 21.2898 16.262 21.4349 16.1221C21.5864 15.987 21.684 15.7747 21.7558 15.5462L21.7566 15.5439C21.7622 15.526 21.7739 15.5105 21.7898 15.5004C21.8057 15.4902 21.8246 15.486 21.8433 15.4885C21.862 15.4909 21.8792 15.4999 21.8919 15.5138C21.9046 15.5277 21.912 15.5457 21.9127 15.5645C21.9236 15.8225 21.8736 16.104 21.7029 16.3487C21.6137 16.472 21.4985 16.5742 21.3654 16.6481C21.2297 16.7211 21.0802 16.7645 20.9265 16.7754C20.6217 16.8001 20.3249 16.7092 20.0745 16.5536C19.9489 16.4743 19.8352 16.3775 19.737 16.266C19.7129 16.2375 19.6894 16.2084 19.6665 16.1787L19.6341 16.1327L19.6188 16.1095C19.6137 16.102 19.6057 16.0907 19.6103 16.0982C19.6175 16.1095 19.6274 16.1187 19.6391 16.1252C19.6509 16.1316 19.664 16.135 19.6774 16.135C19.6907 16.135 19.7039 16.1316 19.7156 16.1252C19.7273 16.1187 19.7372 16.1095 19.7444 16.0982C19.7489 16.0907 19.741 16.1022 19.736 16.1097L19.7206 16.1328L19.6884 16.1789L19.6186 16.2666C19.5205 16.3787 19.4069 16.4762 19.2811 16.5561C19.0316 16.7127 18.7352 16.8057 18.4301 16.782C18.2763 16.7719 18.1264 16.7293 17.9903 16.657C17.8569 16.5837 17.7412 16.4819 17.6514 16.359C17.4798 16.1149 17.4282 15.8337 17.4382 15.5755C17.4389 15.5567 17.4461 15.5388 17.4588 15.5248C17.4714 15.5108 17.4885 15.5018 17.5072 15.4992C17.5258 15.4966 17.5448 15.5007 17.5607 15.5108C17.5766 15.5208 17.5885 15.5361 17.5942 15.5541L17.5947 15.557Z" fill="#363636"/>
<path id="Vector_44" d="M24.7798 15.9884C25.8026 15.9859 26.6291 14.9322 26.6259 13.6349C26.6228 12.3376 25.7911 11.2879 24.7683 11.2904C23.7456 11.2929 22.9191 12.3466 22.9222 13.6439C22.9254 14.9412 23.7571 15.9909 24.7798 15.9884Z" fill="white"/>
<path id="Vector_45" d="M24.7764 16.2285C23.625 16.2285 22.686 15.0705 22.6826 13.6446C22.6793 12.2188 23.6147 11.0535 24.7679 11.0508H24.7721C25.9237 11.0508 26.8625 12.2086 26.8658 13.6345C26.8675 14.3156 26.6581 14.9588 26.2765 15.4446C25.8815 15.9482 25.3503 16.227 24.7805 16.227L24.7764 16.2285ZM24.7722 11.5305H24.7692C23.8804 11.5326 23.1595 12.4806 23.1623 13.6435C23.1651 14.8065 23.889 15.7488 24.7764 15.7488H24.7793C25.199 15.7477 25.5966 15.534 25.8991 15.1495C26.2147 14.7471 26.3877 14.2096 26.3863 13.6357C26.3834 12.474 25.6597 11.5303 24.7722 11.5303V11.5305Z" fill="#363636"/>
<path id="Vector_46" d="M24.476 15.7843C25.2954 15.7823 25.9575 14.9221 25.955 13.863C25.9524 12.8039 25.286 11.947 24.4666 11.949C23.6472 11.951 22.985 12.8112 22.9876 13.8703C22.9902 14.9294 23.6565 15.7863 24.476 15.7843Z" fill="#363636"/>
<path id="Vector_47" d="M24.8184 13.7233C25.0103 13.7229 25.1654 13.4947 25.1647 13.2137C25.164 12.9327 25.0078 12.7052 24.8159 12.7057C24.6239 12.7062 24.4688 12.9344 24.4695 13.2154C24.4702 13.4964 24.6264 13.7238 24.8184 13.7233Z" fill="white"/>
<path id="Vector_48" d="M16.5634 13.6444C16.5666 12.3471 15.7401 11.2934 14.7173 11.2909C13.6946 11.2884 12.8629 12.338 12.8597 13.6354C12.8566 14.9327 13.6831 15.9864 14.7058 15.9889C15.7286 15.9914 16.5603 14.9417 16.5634 13.6444Z" fill="white"/>
<path id="Vector_49" d="M14.7091 16.2289H14.705C14.1354 16.2275 13.604 15.9494 13.2092 15.4465C12.8273 14.9596 12.618 14.3166 12.6196 13.6355C12.6232 12.2098 13.5621 11.0518 14.7134 11.0518H14.7177C15.871 11.0545 16.8064 12.2176 16.803 13.6456C16.7996 15.0736 15.8611 16.2289 14.7091 16.2289ZM13.0993 13.6364C13.0979 14.2101 13.271 14.7476 13.5865 15.1501C13.8889 15.5355 14.2865 15.7484 14.7063 15.7495H14.7093C15.5968 15.7495 16.32 14.8059 16.3235 13.6442C16.327 12.4825 15.6054 11.5333 14.7166 11.5311H14.7135C13.8261 11.5311 13.1028 12.4747 13.0995 13.6364H13.0993Z" fill="#363636"/>
<path id="Vector_50" d="M16.4984 13.8709C16.501 12.8118 15.8388 11.9516 15.0194 11.9496C14.2 11.9476 13.5336 12.8045 13.5311 13.8636C13.5285 14.9227 14.1906 15.7829 15.01 15.7849C15.8295 15.7869 16.4958 14.9299 16.4984 13.8709Z" fill="#363636"/>
<path id="Vector_51" d="M15.0163 13.2155C15.017 12.9345 14.8619 12.7063 14.6699 12.7059C14.4779 12.7054 14.3218 12.9328 14.3211 13.2138C14.3204 13.4948 14.4755 13.723 14.6674 13.7235C14.8594 13.724 15.0156 13.4965 15.0163 13.2155Z" fill="white"/>
<path id="Vector_52" d="M20.9273 16.549C20.9273 16.8816 20.8293 17.1472 20.6712 17.3477C20.1972 17.9506 19.1851 17.9506 18.7111 17.3477C18.5531 17.1483 18.4551 16.8816 18.4551 16.549C18.9346 16.4527 19.3549 16.2764 19.6915 15.9888C20.04 16.3012 20.4373 16.5182 20.9273 16.549Z" fill="#363636"/>
<path id="Vector_53" d="M20.6711 17.3478C20.1971 17.9507 19.1849 17.9507 18.7109 17.3478C19.1842 16.7434 20.1978 16.7434 20.6711 17.3478Z" fill="#F42C4F"/>
<path id="Vector_54" d="M19.6912 18.0763C19.299 18.0763 18.9316 17.94 18.6566 17.6928C18.4386 17.4966 18.1787 17.1391 18.1787 16.5493H18.7317C18.7317 17.222 19.2137 17.5231 19.6912 17.5231C20.1688 17.5231 20.6508 17.222 20.6508 16.5493H21.203C21.2038 17.5518 20.4429 18.0763 19.6912 18.0763Z" fill="#363636"/>
<path id="Vector_55" d="M28.7388 8.17369C28.6709 8.17362 28.6053 8.14849 28.5547 8.10312C27.6264 7.27231 26.6498 6.58354 25.6526 6.05569C25.6202 6.03859 25.5915 6.01522 25.5683 5.98694C25.545 5.95866 25.5276 5.92603 25.517 5.89095C25.5065 5.85587 25.5031 5.81905 25.5069 5.78263C25.5107 5.7462 25.5218 5.71091 25.5394 5.67879C26.0387 4.7633 26.6834 3.90104 27.1366 3.33898C27.2234 3.23112 27.3387 3.14982 27.4695 3.10438C27.6003 3.05894 27.7412 3.05118 27.8762 3.08199C28.0112 3.1128 28.1348 3.18093 28.2329 3.27861C28.331 3.37629 28.3997 3.49959 28.4311 3.63443C28.6732 4.66927 28.9712 6.2476 29.0157 7.88898C29.0157 7.89158 29.0157 7.89481 29.0157 7.89726C29.0157 7.97049 28.9866 8.04072 28.9348 8.09251C28.8831 8.14429 28.8128 8.17338 28.7396 8.17338L28.7388 8.17369ZM26.1602 5.70241C26.9361 6.13439 27.6975 6.65932 28.4326 7.26863C28.3427 5.90981 28.0968 4.63613 27.8919 3.76006C27.8841 3.72621 27.8669 3.69524 27.8423 3.67069C27.8177 3.64614 27.7867 3.62899 27.7528 3.6212C27.7189 3.61341 27.6835 3.6153 27.6507 3.62664C27.6179 3.63799 27.5889 3.65833 27.567 3.68536C27.1686 4.18023 26.6178 4.91332 26.1602 5.70241Z" fill="#363636"/>
<path id="Vector_56" d="M20.1269 22.5931C16.8047 22.5931 13.9336 21.8833 11.8242 20.5403C9.52462 19.0761 8.30908 16.9487 8.30908 14.3889C8.30908 13.3385 8.51909 12.2886 8.93342 11.2674C9.30894 8.00582 9.73417 4.84348 10.7333 1.98794C10.8432 1.67057 11.0251 1.38298 11.2648 1.1477C11.5045 0.912424 11.7954 0.735855 12.1148 0.631836C12.4341 0.527817 12.7733 0.499174 13.1055 0.548152C13.4378 0.597131 13.7542 0.7224 14.03 0.914141C15.3952 1.8686 16.8119 3.26193 17.6809 4.49849C19.3252 4.16729 21.0387 4.1518 22.671 4.45354C23.5415 3.22833 24.9404 1.85724 26.2892 0.914294C26.565 0.722522 26.8814 0.597226 27.2137 0.548231C27.546 0.499235 27.8851 0.527871 28.2045 0.631894C28.5238 0.735916 28.8148 0.912497 29.0544 1.14779C29.2941 1.38309 29.4761 1.67071 29.586 1.98809C30.5959 4.87493 31.0196 8.07577 31.3984 11.3754C31.3984 11.3774 31.3984 11.3794 31.3984 11.3814C31.7606 12.3622 31.9442 13.3737 31.9442 14.3893C31.9442 16.9497 30.7288 19.077 28.4293 20.5406C26.3199 21.8833 23.4492 22.5931 20.1269 22.5931ZM9.47431 11.6169C9.12041 12.5267 8.94109 13.4577 8.94109 14.3883C8.94109 16.7219 10.0555 18.6648 12.1637 20.0071C14.1426 21.2671 16.9708 21.9611 20.1269 21.9611C23.2829 21.9611 26.1108 21.2671 28.0899 20.0071C30.1977 18.6648 31.3113 16.7219 31.3113 14.3883C31.3113 13.4233 31.1318 12.461 30.778 11.5282C30.7591 11.4785 30.7531 11.4248 30.7605 11.3722C30.3881 8.13545 29.969 4.9998 28.988 2.19595C28.9098 1.96903 28.7796 1.76351 28.608 1.59574C28.4363 1.42796 28.2278 1.30257 27.9992 1.22953C27.774 1.15576 27.5347 1.13562 27.3003 1.17072C27.0659 1.20582 26.843 1.29519 26.6493 1.43171C25.2951 2.37834 23.8911 3.77091 23.0728 4.97955C23.0378 5.03096 22.9885 5.07095 22.931 5.09455C22.8734 5.11814 22.8102 5.12429 22.7492 5.11224C21.0618 4.77184 19.2747 4.7901 17.5738 5.16623C17.5316 5.17559 17.4879 5.17618 17.4454 5.16795C17.403 5.15973 17.3626 5.14287 17.327 5.11842C17.2913 5.09397 17.261 5.06245 17.238 5.02582C17.215 4.98918 17.1998 4.94822 17.1932 4.90545C16.3683 3.71446 14.9939 2.35901 13.6672 1.43156C13.4736 1.29519 13.2508 1.2059 13.0166 1.1708C12.7824 1.1357 12.5433 1.15575 12.3182 1.22938C12.0895 1.30235 11.881 1.42772 11.7093 1.5955C11.5376 1.76328 11.4075 1.96884 11.3292 2.1958C10.349 4.99734 9.92991 8.13023 9.55776 11.3637C9.55704 11.3752 9.55571 11.3866 9.55377 11.398C9.55193 11.4142 9.55009 11.4302 9.54825 11.4463C9.54137 11.5093 9.5156 11.5688 9.47431 11.6169Z" fill="#363636"/>
<path id="Vector_57" d="M11.5792 8.17356C11.5403 8.17361 11.5019 8.16544 11.4664 8.1496C11.4309 8.13376 11.3991 8.1106 11.3732 8.08164C11.3472 8.05268 11.3277 8.01857 11.3159 7.98154C11.304 7.94451 11.3001 7.9054 11.3044 7.86676C11.3198 7.73315 11.6652 4.58492 11.8874 3.63384C11.9188 3.49897 11.9876 3.37565 12.0857 3.27798C12.1839 3.1803 12.3076 3.1122 12.4426 3.08144C12.5777 3.05068 12.7186 3.0585 12.8494 3.10402C12.9802 3.14953 13.0956 3.23091 13.1824 3.33885C13.6349 3.90106 14.2796 4.76363 14.7793 5.67851C14.8136 5.74113 14.8223 5.81459 14.8036 5.88349C14.7849 5.95239 14.7402 6.01137 14.6789 6.04805C13.7572 6.60198 12.7996 7.2774 11.7518 8.11312C11.7027 8.15221 11.6419 8.17351 11.5792 8.17356ZM12.609 3.61589C12.5944 3.61595 12.5798 3.6176 12.5655 3.6208C12.5313 3.62801 12.4998 3.64498 12.475 3.66967C12.4502 3.69436 12.433 3.72571 12.4256 3.75993C12.2709 4.4217 12.0443 6.27477 11.9282 7.27279C12.7116 6.6707 13.4488 6.15696 14.1643 5.71471C13.7055 4.92148 13.1518 4.18347 12.7509 3.68615C12.7343 3.66419 12.7129 3.6464 12.6882 3.63421C12.6636 3.62201 12.6364 3.61574 12.609 3.61589Z" fill="#363636"/>
<g id="Group_13" opacity="0.2">
<path id="Vector_58" d="M21.2674 5.7109C22.6725 5.93487 23.8101 6.35396 24.6218 7.01082C24.9096 7.24368 24.7964 7.70909 24.4349 7.78932C22.8107 8.14996 21.5556 7.76202 20.802 6.35779C20.6288 6.03504 20.9057 5.65323 21.2674 5.7109Z" fill="white"/>
</g>
<g id="Group_14" opacity="0.2">
<path id="Vector_59" d="M26.3923 9.27534C26.655 9.07745 26.6473 8.62416 26.3752 8.2629C26.103 7.90164 25.6695 7.76895 25.4067 7.96668C25.144 8.16441 25.3147 8.49561 25.5862 8.8564C25.8577 9.2172 26.1296 9.4723 26.3923 9.27534Z" fill="white"/>
</g>
<g id="Group_15" opacity="0.3">
<path id="Vector_60" d="M14.9244 16.3129C14.6555 16.407 14.3726 16.4553 14.0876 16.4558C13.7475 16.4558 13.4096 16.4021 13.0862 16.2965L11.248 11.5637C11.6009 11.0927 12.1198 10.7798 12.7053 10.5986L14.9244 16.3129Z" fill="white"/>
</g>
<g id="Group_16" opacity="0.3">
<path id="Vector_61" d="M26.8396 16.1589C26.4141 16.3537 25.9518 16.4548 25.4839 16.4555C25.3593 16.4555 25.235 16.446 25.1119 16.4272L23.1069 11.2641C23.4961 10.8742 24.026 10.6092 24.6356 10.4844L26.8396 16.1589Z" fill="white"/>
</g>
<g id="Group_17" opacity="0.3">
<path id="Vector_62" d="M28.4616 14.61C28.2492 15.0251 27.9537 15.3919 27.5933 15.6877L25.5405 10.4009C26.0073 10.4056 26.4775 10.4722 26.9093 10.6117L28.4616 14.61Z" fill="white"/>
</g>
<g id="Group_18" opacity="0.3">
<path id="Vector_63" d="M16.7837 14.61C16.5712 15.025 16.2756 15.3919 15.9153 15.6877L13.8623 10.4009C14.3289 10.4056 14.7991 10.4722 15.2309 10.6117L16.7837 14.61Z" fill="white"/>
</g>
<path id="Vector_64" d="M31.3284 10.7075C30.9201 10.7479 30.508 10.6892 30.1271 10.5366C29.996 10.4845 29.8759 10.4082 29.7619 10.3252C26.8976 8.21521 23.4064 9.06151 20.9422 10.7932C20.1714 10.1081 19.4005 10.1081 18.6297 10.7932C16.1654 9.06151 12.6744 8.21521 9.80993 10.3252C9.69611 10.4082 9.57584 10.4845 9.44484 10.5366C9.06423 10.6893 8.65242 10.7479 8.24433 10.7075C8.22021 10.7049 8.19581 10.7073 8.17271 10.7148C8.14961 10.7222 8.12833 10.7344 8.11026 10.7506C8.09218 10.7668 8.07772 10.7866 8.06781 10.8088C8.0579 10.8309 8.05276 10.8549 8.05273 10.8792V11.4791C8.05311 11.5193 8.0675 11.5582 8.09342 11.589C8.11935 11.6198 8.15519 11.6406 8.19478 11.6478C8.82372 11.7687 9.16274 12.2697 9.27871 13.0626C10.9075 20.4258 18.7272 18.3703 18.7547 12.2114C18.7554 12.0708 18.8049 11.9349 18.8948 11.8268C18.9848 11.7187 19.1094 11.6453 19.2476 11.619C19.614 11.5477 19.9744 11.5423 20.3272 11.6081C20.4652 11.6343 20.5897 11.7078 20.6793 11.816C20.7689 11.9241 20.818 12.0601 20.8181 12.2005C20.8366 18.3672 28.6645 20.4298 30.294 13.0626C30.4094 12.2697 30.7484 11.7687 31.3772 11.6478C31.4168 11.6407 31.4528 11.6199 31.4787 11.5891C31.5046 11.5583 31.519 11.5194 31.5192 11.4791V10.8792C31.5193 10.8549 31.5143 10.8309 31.5045 10.8088C31.4946 10.7867 31.4803 10.7668 31.4622 10.7506C31.4442 10.7344 31.423 10.7222 31.3999 10.7148C31.3769 10.7073 31.3525 10.7049 31.3284 10.7075ZM14.0876 16.4555C12.3751 16.4555 10.9028 15.0903 10.7742 13.423C10.6055 11.2257 12.3755 10.3999 14.0876 10.3999C15.7997 10.3999 17.1621 11.3541 17.1621 13.0269C17.1621 14.6997 15.801 16.4555 14.0876 16.4555ZM28.7987 13.423C28.6697 15.0903 27.1974 16.4555 25.4853 16.4555C23.7732 16.4555 22.4108 14.6983 22.4108 13.0269C22.4108 11.3555 23.7727 10.3999 25.4853 10.3999C27.1978 10.3999 28.9671 11.2257 28.7982 13.423H28.7987Z" fill="#F42C4F"/>
<path id="Vector_65" d="M13.9356 17.8034C12.9845 17.8034 12.0655 17.4701 11.308 16.8434C10.3211 16.0269 9.60645 14.7224 9.24105 13.0709C9.12094 12.251 8.77656 11.7987 8.18735 11.6855C8.13903 11.6765 8.09535 11.651 8.06376 11.6133C8.03217 11.5757 8.01464 11.5282 8.01416 11.479V10.8791C8.01418 10.8495 8.02044 10.8202 8.03253 10.7931C8.04463 10.766 8.06228 10.7418 8.08434 10.722C8.10641 10.7022 8.13239 10.6873 8.1606 10.6782C8.18882 10.6691 8.21863 10.6661 8.2481 10.6692C8.65005 10.7084 9.05554 10.6505 9.4305 10.5005C9.54034 10.4569 9.6537 10.3911 9.78716 10.2939C12.7283 8.12756 16.276 9.10288 18.6268 10.7443C19.396 10.0742 20.1762 10.0744 20.9447 10.7443C23.2951 9.10288 26.8432 8.12741 29.7845 10.294C29.9178 10.3911 30.0312 10.4569 30.141 10.5005C30.5162 10.6505 30.9219 10.7083 31.3241 10.6692C31.3535 10.6661 31.3832 10.6691 31.4114 10.6783C31.4396 10.6874 31.4655 10.7023 31.4875 10.7221C31.5095 10.7419 31.5271 10.7661 31.5391 10.7932C31.5511 10.8202 31.5573 10.8495 31.5572 10.8791V11.479C31.5568 11.5282 31.5392 11.5757 31.5077 11.6133C31.4761 11.651 31.4324 11.6765 31.384 11.6855C30.7948 11.7987 30.4506 12.251 30.3317 13.0681C29.9657 14.7231 29.2505 16.0287 28.2631 16.8442C27.3898 17.5663 26.301 17.8984 25.1979 17.78C24.0365 17.6548 22.9493 17.0602 22.1369 16.1057C21.2533 15.0675 20.7839 13.7173 20.7795 12.2009C20.7791 12.0694 20.7329 11.9422 20.649 11.841C20.565 11.7398 20.4485 11.6709 20.3193 11.6463C19.9794 11.582 19.6207 11.5849 19.2541 11.6571C19.1249 11.6821 19.0083 11.751 18.9241 11.8521C18.8399 11.9533 18.7933 12.0804 18.7922 12.212C18.7856 13.7264 18.3148 15.0743 17.4311 16.1103C16.6181 17.0631 15.5317 17.6563 14.3711 17.7804C14.2264 17.7958 14.081 17.8034 13.9356 17.8034ZM8.22555 10.7449C8.19224 10.7448 8.1601 10.7571 8.13535 10.7794C8.12125 10.7919 8.10999 10.8072 8.10232 10.8244C8.09465 10.8416 8.09074 10.8603 8.09086 10.8791V11.479C8.09131 11.5104 8.10264 11.5406 8.12289 11.5645C8.14315 11.5884 8.17108 11.6046 8.20192 11.6102C8.81828 11.7286 9.19319 12.2154 9.31653 13.0569C10.1427 16.7922 12.4654 17.9074 14.3634 17.7037C16.5153 17.4736 18.7014 15.5129 18.716 12.212C18.7172 12.0627 18.77 11.9183 18.8655 11.8035C18.961 11.6887 19.0933 11.6105 19.24 11.5821C19.6164 11.5088 19.9846 11.5054 20.334 11.5711C20.4804 11.5995 20.6125 11.6778 20.7076 11.7927C20.8027 11.9076 20.855 12.0519 20.8556 12.2011C20.8654 15.5072 23.0513 17.4719 25.2055 17.704C27.1042 17.9083 29.4285 16.7948 30.2556 13.0549C30.3783 12.2163 30.7523 11.7294 31.369 11.611C31.3998 11.6054 31.4278 11.5892 31.448 11.5653C31.4682 11.5414 31.4795 11.5111 31.4799 11.4798V10.8799C31.48 10.861 31.4761 10.8424 31.4685 10.8251C31.4609 10.8079 31.4497 10.7925 31.4357 10.7799C31.4217 10.7673 31.4051 10.7578 31.3872 10.752C31.3693 10.7462 31.3503 10.7443 31.3316 10.7464C30.9171 10.7868 30.499 10.7273 30.1122 10.5729C29.9961 10.5269 29.8773 10.4582 29.7385 10.3569C26.8198 8.20672 23.2917 9.18924 20.964 10.8254L20.9392 10.8429L20.9165 10.8228C20.1556 10.1465 19.4158 10.1466 18.6551 10.8228L18.6324 10.8429L18.6069 10.8248C16.2784 9.18848 12.7505 8.20626 9.83241 10.3562C9.69343 10.4576 9.5747 10.5261 9.45857 10.5723C9.07203 10.7267 8.65409 10.7862 8.23981 10.7458C8.23508 10.7452 8.23032 10.7449 8.22555 10.7449ZM25.484 16.4938C23.7024 16.4938 22.3712 14.6635 22.3712 13.027C22.3712 11.4329 23.6221 10.3618 25.484 10.3618C26.6253 10.3618 27.6148 10.7236 28.1991 11.3543C28.6871 11.8813 28.9016 12.5782 28.8365 13.4252C28.7054 15.1175 27.2014 16.4938 25.484 16.4938ZM25.484 10.4384C23.668 10.4384 22.4479 11.4786 22.4479 13.0269C22.4479 14.6273 23.7462 16.417 25.484 16.417C27.1623 16.417 28.6319 15.0724 28.7598 13.4197C28.8232 12.5941 28.6156 11.9164 28.1427 11.4059C27.573 10.791 26.6039 10.4384 25.484 10.4384ZM14.0876 16.4938C12.3695 16.4938 10.8662 15.1175 10.7353 13.4258C10.6701 12.578 10.8844 11.8811 11.3725 11.3549C11.9567 10.7242 12.9463 10.3624 14.0877 10.3624C15.9495 10.3624 17.2005 11.4335 17.2005 13.0276C17.2004 14.6635 15.869 16.4938 14.0876 16.4938ZM14.0876 10.4384C12.9678 10.4384 11.9984 10.7912 11.4288 11.4062C10.9559 11.9168 10.7484 12.5944 10.8117 13.42C10.9397 15.0726 12.4092 16.4171 14.0876 16.4171C15.8251 16.4171 17.1237 14.6273 17.1237 13.027C17.1237 11.4786 15.9035 10.4384 14.0876 10.4384Z" fill="#363636"/>
<g id="Group_19" opacity="0.55">
<path id="Vector_66" d="M31.3284 10.7075C30.9201 10.7479 30.508 10.6892 30.1271 10.5366C29.996 10.4845 29.8759 10.4082 29.7619 10.3252C26.8976 8.21521 23.4064 9.06151 20.9422 10.7932C20.1714 10.1081 19.4005 10.1081 18.6297 10.7932C16.1654 9.06151 12.6744 8.21521 9.80993 10.3252C9.69611 10.4082 9.57584 10.4845 9.44484 10.5366C9.06423 10.6893 8.65242 10.7479 8.24433 10.7075C8.22021 10.7049 8.19581 10.7073 8.17271 10.7148C8.14961 10.7222 8.12833 10.7344 8.11026 10.7506C8.09218 10.7668 8.07772 10.7866 8.06781 10.8088C8.0579 10.8309 8.05276 10.8549 8.05273 10.8792V11.4621C8.05274 11.4378 8.05786 11.4138 8.06776 11.3917C8.07767 11.3695 8.09213 11.3497 8.11021 11.3335C8.12829 11.3173 8.14958 11.3051 8.17269 11.2977C8.1958 11.2903 8.22021 11.2879 8.24433 11.2906C8.65243 11.3309 9.06424 11.2722 9.44484 11.1195C9.57584 11.0674 9.69611 10.9913 9.80993 10.9081C12.6744 8.79813 16.1654 9.64443 18.6304 11.3763C19.4013 10.6911 20.1722 10.6911 20.9429 11.3763C23.4072 9.64443 26.8984 8.79813 29.7634 10.9081C29.8774 10.9913 29.9975 11.0674 30.1287 11.1195C30.5096 11.2722 30.9216 11.3309 31.33 11.2906C31.354 11.2879 31.3784 11.2904 31.4014 11.2978C31.4244 11.3053 31.4457 11.3175 31.4637 11.3337C31.4817 11.3498 31.496 11.3697 31.5059 11.3918C31.5157 11.4139 31.5207 11.4379 31.5206 11.4621V10.8792C31.5207 10.8548 31.5157 10.8307 31.5058 10.8084C31.4958 10.7862 31.4813 10.7663 31.4632 10.7501C31.445 10.7338 31.4236 10.7216 31.4004 10.7143C31.3771 10.707 31.3526 10.7047 31.3284 10.7075ZM28.7973 13.4366C28.6614 15.0978 27.1924 16.4555 25.4839 16.4555C23.8723 16.4555 22.5708 14.8987 22.4239 13.322C22.4142 13.4178 22.4094 13.514 22.4094 13.6103C22.4094 15.2823 23.7713 17.0389 25.4839 17.0389C27.1964 17.0389 28.6689 15.6737 28.7973 14.0064C28.813 13.8168 28.8129 13.6262 28.7969 13.4366H28.7973ZM17.1481 13.322C17.0013 14.8987 15.7005 16.4555 14.0881 16.4555C12.3803 16.4555 10.9115 15.0978 10.7756 13.4366C10.7593 13.6262 10.7588 13.8167 10.7742 14.0064C10.9032 15.6737 12.3755 17.0389 14.0876 17.0389C15.7997 17.0389 17.1621 15.2817 17.1621 13.6103C17.1622 13.514 17.1574 13.4178 17.1477 13.322H17.1481Z" fill="white"/>
</g>
<path id="Vector_67" d="M13.9354 18.0285C12.9324 18.0285 11.9631 17.6772 11.1647 17.0168C10.1389 16.1682 9.39795 14.8206 9.02166 13.1195C9.02028 13.1134 9.0192 13.1071 9.01828 13.1008C8.88022 12.1543 8.45393 11.9657 8.14544 11.9067C8.04574 11.8878 7.95574 11.8347 7.89082 11.7567C7.8259 11.6787 7.79011 11.5806 7.78955 11.4791V10.8791C7.78952 10.8179 7.80238 10.7574 7.82729 10.7015C7.8522 10.6456 7.8886 10.5956 7.93412 10.5546C7.97964 10.5137 8.03327 10.4829 8.09151 10.4641C8.14975 10.4452 8.2113 10.4389 8.27215 10.4455C8.6379 10.481 9.00684 10.4284 9.34809 10.2921C9.44013 10.2557 9.53724 10.1986 9.65489 10.1127C12.6322 7.91911 16.2009 8.83706 18.615 10.4637C19.3846 9.86714 20.1878 9.86714 20.9574 10.4637C23.3715 8.83767 26.94 7.91942 29.9184 10.1135C30.0353 10.1986 30.1332 10.2557 30.2252 10.2922C30.5664 10.4284 30.9351 10.481 31.3007 10.4456C31.3616 10.4391 31.4231 10.4454 31.4813 10.4642C31.5396 10.483 31.5932 10.5139 31.6387 10.5548C31.6843 10.5957 31.7207 10.6457 31.7456 10.7016C31.7705 10.7575 31.7833 10.8181 31.7833 10.8793V11.4792C31.7828 11.5807 31.747 11.6788 31.6822 11.7567C31.6173 11.8347 31.5274 11.8878 31.4277 11.9067C31.1191 11.9661 30.6931 12.1545 30.5546 13.101C30.5536 13.1073 30.5526 13.1135 30.5512 13.1197C30.1748 14.8213 29.4332 16.1694 28.4067 17.018C27.4863 17.779 26.3379 18.129 25.1739 18.0036C23.9548 17.8723 22.8155 17.25 21.9657 16.2513C21.0473 15.1722 20.5593 13.7718 20.5544 12.2016C20.5543 12.1225 20.5267 12.0459 20.4763 11.9849C20.426 11.9239 20.3559 11.8824 20.2783 11.8673C19.9666 11.8084 19.6366 11.8118 19.2978 11.8776C19.2197 11.8926 19.1492 11.9342 19.0983 11.9953C19.0473 12.0563 19.0191 12.1331 19.0183 12.2126C19.0112 13.7808 18.5219 15.1789 17.6032 16.2561C16.7529 17.2532 15.6137 17.8735 14.3956 18.0039C14.2427 18.0203 14.0891 18.0285 13.9354 18.0285ZM19.8259 11.2984C20.0108 11.2981 20.1953 11.3151 20.3769 11.3493C20.575 11.3872 20.7536 11.4928 20.8824 11.648C21.0111 11.8032 21.0819 11.9983 21.0826 12.1999C21.0919 15.3734 23.1766 17.258 25.2311 17.4795C27.0322 17.6743 29.2384 16.602 30.0352 13.0155C30.1706 12.1065 30.5814 11.5651 31.257 11.4048V10.9782C30.8389 11.0033 30.4205 10.9361 30.0313 10.7814C29.8971 10.728 29.7627 10.6507 29.6081 10.5381C26.7845 8.45801 23.3593 9.41829 21.0944 11.0089C21.0458 11.043 20.9872 11.0597 20.9279 11.0563C20.8687 11.0529 20.8123 11.0296 20.768 10.9902C20.0984 10.3953 19.4749 10.3953 18.8055 10.9902C18.7612 11.0297 18.7048 11.053 18.6455 11.0564C18.5862 11.0598 18.5275 11.043 18.4789 11.0089C16.2146 9.41752 12.7895 8.45801 9.96691 10.5373C9.81136 10.6507 9.67698 10.728 9.54291 10.7814C9.15362 10.9359 8.73518 11.0031 8.31709 10.9782V11.4042C8.99205 11.564 9.40347 12.1056 9.53877 13.0149C10.3351 16.6 12.5396 17.6721 14.3402 17.4788C16.3927 17.2593 18.4777 15.3788 18.4917 12.2092C18.4933 12.0079 18.5644 11.8134 18.693 11.6585C18.8216 11.5036 18.9997 11.3979 19.1973 11.3593C19.4042 11.319 19.6145 11.2986 19.8253 11.2984H19.8259ZM25.4853 16.7191C23.5747 16.7191 22.1472 14.7698 22.1472 13.027C22.1472 11.2981 23.4887 10.1365 25.4853 10.1365C26.689 10.1365 27.7388 10.5246 28.3654 11.2013C28.8978 11.776 29.1324 12.5303 29.062 13.4432C28.9216 15.2496 27.3171 16.7191 25.4847 16.7191H25.4853ZM25.4853 10.6636C24.0861 10.6636 22.6744 11.3944 22.6744 13.027C22.6744 14.521 23.8765 16.192 25.4853 16.192C27.0486 16.192 28.4174 14.9407 28.5364 13.4025C28.5949 12.6423 28.4073 12.0219 27.9787 11.5594C27.4508 10.9902 26.5421 10.6636 25.4847 10.6636H25.4853ZM14.0877 16.7191C12.2552 16.7191 10.6506 15.2496 10.5109 13.4434C10.4408 12.5303 10.675 11.776 11.2075 11.2013C11.8341 10.5246 12.8838 10.1365 14.0877 10.1365C16.0842 10.1365 17.4257 11.2981 17.4257 13.027C17.426 14.7698 15.9994 16.7191 14.0882 16.7191H14.0877ZM14.0877 10.6636C13.0302 10.6636 12.1214 10.9902 11.5942 11.5594C11.1656 12.0221 10.978 12.6423 11.0364 13.4027C11.1555 14.9407 12.5244 16.192 14.0877 16.192C15.6964 16.192 16.8984 14.521 16.8984 13.027C16.8989 11.3944 15.4872 10.6636 14.0882 10.6636H14.0877Z" fill="#363636"/>
<path id="Vector_68" d="M9.87338 33.3623H32.8466C33.0045 33.3623 33.156 33.4251 33.2678 33.5368C33.3795 33.6485 33.4422 33.8 33.4422 33.958V38.5928C33.4422 38.7508 33.3795 38.9023 33.2678 39.014C33.156 39.1257 33.0045 39.1884 32.8466 39.1884H9.87338C9.52468 39.1884 9.19026 39.0499 8.94369 38.8033C8.69712 38.5568 8.55859 38.2224 8.55859 37.8736V34.6771C8.55859 34.3284 8.69712 33.994 8.94369 33.7474C9.19026 33.5008 9.52468 33.3623 9.87338 33.3623Z" fill="#6E76F1"/>
<g id="Group_20" opacity="0.7">
<path id="Vector_69" d="M32.8466 33.3623H9.87338C9.52468 33.3623 9.19026 33.5008 8.94369 33.7474C8.69712 33.994 8.55859 34.3284 8.55859 34.6771V37.8736C8.55839 38.0884 8.61107 38.3 8.71199 38.4895C8.71199 38.4888 8.71199 38.488 8.71199 38.4872V35.2907C8.71199 34.942 8.85052 34.6076 9.09709 34.361C9.34366 34.1144 9.67808 33.9759 10.0268 33.9759H11.736C11.8796 34.2345 12.7239 34.433 13.744 34.433C14.7641 34.433 15.6084 34.2345 15.752 33.9759H33C33.0834 33.9759 33.166 33.9935 33.2422 34.0275C33.3184 34.0616 33.3865 34.1113 33.4422 34.1735V33.9587C33.4423 33.8804 33.427 33.8029 33.3971 33.7305C33.3673 33.6582 33.3234 33.5924 33.2681 33.537C33.2127 33.4816 33.147 33.4377 33.0747 33.4077C33.0024 33.3777 32.9249 33.3623 32.8466 33.3623Z" fill="white"/>
</g>
<path id="Vector_70" d="M11.1715 33.354H10.2349V39.1887H11.1715V33.354Z" fill="white"/>
<path id="Vector_71" d="M13.0109 33.354H12.0742V39.1887H13.0109V33.354Z" fill="white"/>
<g id="Group_21" opacity="0.3">
<path id="Vector_72" d="M32.8466 37.6546H9.87338C9.52468 37.6546 9.19026 37.5161 8.94369 37.2695C8.69712 37.023 8.55859 36.6885 8.55859 36.3398V37.8738C8.55859 38.2225 8.69712 38.557 8.94369 38.8035C9.19026 39.0501 9.52468 39.1886 9.87338 39.1886H32.8466C32.9248 39.1887 33.0023 39.1733 33.0745 39.1433C33.1468 39.1134 33.2125 39.0695 33.2678 39.0142C33.3231 38.9589 33.367 38.8932 33.3969 38.821C33.4268 38.7487 33.4422 38.6712 33.4422 38.593V37.059C33.4422 37.1372 33.4268 37.2147 33.3969 37.287C33.367 37.3592 33.3231 37.4249 33.2678 37.4802C33.2125 37.5355 33.1468 37.5794 33.0745 37.6093C33.0023 37.6393 32.9248 37.6547 32.8466 37.6546Z" fill="#363636"/>
</g>
<path id="Vector_73" d="M32.8462 39.4954H9.87321C9.44326 39.4949 9.03105 39.324 8.72701 39.02C8.42298 38.716 8.25195 38.3038 8.25146 37.8738V34.6773C8.25195 34.2473 8.42298 33.8351 8.72701 33.5311C9.03105 33.2271 9.44326 33.0561 9.87321 33.0557H32.8462C33.0855 33.0559 33.3149 33.1511 33.4841 33.3203C33.6532 33.4895 33.7484 33.7189 33.7487 33.9581V38.5929C33.7484 38.8322 33.6532 39.0616 33.4841 39.2308C33.3149 39.3999 33.0855 39.4951 32.8462 39.4954ZM9.87321 33.6693C9.60595 33.6695 9.34971 33.7758 9.16071 33.9648C8.97171 34.1538 8.86539 34.41 8.86506 34.6773V37.8738C8.86539 38.1411 8.97171 38.3973 9.16071 38.5863C9.34971 38.7752 9.60595 38.8815 9.87321 38.8818H32.8462C32.9228 38.8817 32.9962 38.8512 33.0504 38.7971C33.1045 38.7429 33.135 38.6695 33.1351 38.5929V33.9577C33.135 33.8811 33.1045 33.8077 33.0504 33.7535C32.9962 33.6994 32.9228 33.6689 32.8462 33.6688L9.87321 33.6693Z" fill="#363636"/>
<path id="Vector_74" d="M20.7493 34.6938H33.4417V37.8988H20.7493C20.616 37.8988 20.484 37.8726 20.3609 37.8216C20.2378 37.7706 20.1259 37.6958 20.0316 37.6016C19.9374 37.5073 19.8626 37.3955 19.8116 37.2723C19.7606 37.1492 19.7344 37.0172 19.7344 36.8839V35.7087C19.7344 35.5755 19.7606 35.4435 19.8116 35.3204C19.8626 35.1972 19.9374 35.0853 20.0316 34.9911C20.1259 34.8969 20.2378 34.8221 20.3609 34.7711C20.484 34.7201 20.616 34.6938 20.7493 34.6938Z" fill="white"/>
<g id="Group_22" opacity="0.3">
<path id="Vector_75" d="M21.6697 37.208C21.5364 37.208 21.4044 37.1818 21.2813 37.1308C21.1582 37.0798 21.0463 37.005 20.952 36.9108C20.8578 36.8165 20.783 36.7047 20.732 36.5815C20.681 36.4584 20.6548 36.3264 20.6548 36.1931V35.0179C20.6549 34.9084 20.6729 34.7996 20.708 34.6958C20.4464 34.7062 20.199 34.8174 20.0175 35.0061C19.836 35.1948 19.7346 35.4464 19.7344 35.7082V36.8834C19.7344 37.0167 19.7606 37.1487 19.8116 37.2718C19.8626 37.395 19.9374 37.5068 20.0316 37.6011C20.1259 37.6953 20.2378 37.7701 20.3609 37.8211C20.484 37.8721 20.616 37.8983 20.7493 37.8983H33.4417V37.208H21.6697Z" fill="#363636"/>
</g>
<path id="Vector_76" d="M33.4422 38.1796H20.7497C20.406 38.1792 20.0766 38.0425 19.8336 37.7995C19.5906 37.5565 19.454 37.227 19.4536 36.8834V35.7083C19.454 35.3647 19.5906 35.0352 19.8336 34.7922C20.0766 34.5492 20.406 34.4125 20.7497 34.4121H33.4422C33.5167 34.4121 33.5883 34.4417 33.641 34.4945C33.6938 34.5472 33.7234 34.6187 33.7235 34.6933V37.8983C33.7235 37.9729 33.6938 38.0445 33.6411 38.0972C33.5883 38.15 33.5168 38.1796 33.4422 38.1796ZM20.7497 34.9746C20.5552 34.9748 20.3687 35.0522 20.2312 35.1898C20.0936 35.3273 20.0163 35.5138 20.0161 35.7083V36.8834C20.0163 37.0779 20.0937 37.2644 20.2312 37.4019C20.3687 37.5395 20.5552 37.6169 20.7497 37.6171H33.161V34.9746H20.7497Z" fill="#363636"/>
<g id="Group_23" opacity="0.4">
<path id="Vector_77" d="M30.3623 35.6419C30.6189 35.6097 30.8756 35.5945 31.1322 35.5836L31.9021 35.5581C32.1588 35.5486 32.4154 35.5446 32.6719 35.5382C32.9284 35.5318 33.1852 35.5288 33.4418 35.5269V35.757C33.1852 35.755 32.9285 35.7519 32.6719 35.7456C32.4153 35.7393 32.1588 35.735 31.9021 35.7255L31.1322 35.7002C30.8756 35.6892 30.6189 35.6741 30.3623 35.6419Z" fill="#363636"/>
<path id="Vector_78" d="M19.7583 35.5267C21.2075 35.5174 22.6566 35.5251 24.1058 35.5335L26.2796 35.5559C27.0041 35.5654 27.7288 35.5559 28.4533 35.6418C27.7288 35.7271 27.0041 35.7185 26.2796 35.7275L24.1058 35.7499C22.6566 35.7585 21.2075 35.7662 19.7583 35.7568V35.5267Z" fill="#363636"/>
<path id="Vector_79" d="M25.9185 36.3341C26.5456 36.2492 27.1725 36.2522 27.7994 36.2445L29.6803 36.2227L31.5611 36.2132C32.1881 36.2123 32.815 36.2132 33.442 36.219V36.4491C32.815 36.455 32.188 36.4568 31.5611 36.4548L29.6803 36.4454L27.7994 36.4235C27.1725 36.416 26.5456 36.4189 25.9185 36.3341Z" fill="#363636"/>
<path id="Vector_80" d="M19.7583 36.2193C20.1515 36.216 20.5447 36.216 20.9378 36.2193L22.1171 36.2321L23.2965 36.2551C23.6896 36.2613 24.0828 36.2693 24.476 36.3343C24.0828 36.3992 23.6896 36.4073 23.2965 36.4135L22.1171 36.4365L20.9378 36.4494C20.5446 36.4521 20.1514 36.4521 19.7583 36.4494V36.2193Z" fill="#363636"/>
<path id="Vector_81" d="M29.6802 37.0261C29.9936 36.9801 30.3071 36.9602 30.6205 36.9482L31.561 36.9244C31.8744 36.9151 32.188 36.9141 32.5015 36.9103C32.6582 36.9079 32.8149 36.9071 32.9717 36.9082C33.1285 36.9082 33.2851 36.9082 33.4418 36.9111V37.1412C33.2851 37.1439 33.1285 37.1438 32.9717 37.1441C32.8149 37.1444 32.6581 37.1441 32.5015 37.1419C32.188 37.1381 31.8744 37.1372 31.561 37.1278L30.6205 37.1041C30.3071 37.0921 29.9936 37.0723 29.6802 37.0261Z" fill="#363636"/>
<path id="Vector_82" d="M19.7583 36.9111L21.6959 36.9217L23.6333 36.9403L25.5708 36.9654C26.2166 36.9733 26.8626 36.9808 27.5082 37.0268C26.8626 37.0728 26.2166 37.0797 25.5708 37.0882L23.6333 37.1133L21.6959 37.1319L19.7583 37.1425V36.9111Z" fill="#363636"/>
</g>
<path id="Vector_83" d="M32.1271 45.0146H9.15392C8.99595 45.0146 8.84444 44.9519 8.73273 44.8402C8.62103 44.7285 8.55827 44.577 8.55827 44.419V39.7837C8.55827 39.6257 8.62103 39.4742 8.73273 39.3625C8.84444 39.2508 8.99595 39.1881 9.15392 39.1881H32.1271C32.4758 39.1881 32.8102 39.3266 33.0568 39.5732C33.3034 39.8197 33.4419 40.1541 33.4419 40.5028V43.6999C33.4419 44.0486 33.3034 44.383 33.0568 44.6296C32.8102 44.8761 32.4758 45.0146 32.1271 45.0146Z" fill="#F42C4F"/>
<path id="Vector_84" d="M30.829 45.0146H31.7656V39.1799H30.829V45.0146Z" fill="#FFBC1F"/>
<path id="Vector_85" d="M28.9896 45.0146H29.9263V39.1799H28.9896V45.0146Z" fill="#FFBC1F"/>
<g id="Group_24" opacity="0.3">
<path id="Vector_86" d="M9.15425 43.4808H32.1274C32.3001 43.4808 32.4711 43.4468 32.6306 43.3807C32.7901 43.3146 32.935 43.2178 33.0571 43.0957C33.1792 42.9736 33.2761 42.8287 33.3421 42.6692C33.4082 42.5096 33.4422 42.3387 33.4422 42.166V43.7C33.4422 43.8727 33.4082 44.0436 33.3421 44.2032C33.2761 44.3627 33.1792 44.5076 33.0571 44.6297C32.935 44.7518 32.7901 44.8486 32.6306 44.9147C32.4711 44.9808 32.3001 45.0148 32.1274 45.0148H9.15425C9.07602 45.0148 8.99855 44.9994 8.92627 44.9695C8.854 44.9396 8.78833 44.8957 8.73301 44.8404C8.6777 44.7851 8.63382 44.7194 8.60389 44.6471C8.57397 44.5748 8.55857 44.4974 8.55859 44.4192V42.8856C8.55868 43.0435 8.62147 43.1949 8.73317 43.3065C8.84487 43.4182 8.99634 43.4808 9.15425 43.4808Z" fill="#363636"/>
</g>
<g id="Group_25" opacity="0.7">
<path id="Vector_87" d="M9.15425 39.1885H32.1274C32.3001 39.1885 32.4711 39.2225 32.6306 39.2886C32.7901 39.3546 32.935 39.4515 33.0571 39.5736C33.1792 39.6957 33.2761 39.8406 33.3421 40.0001C33.4082 40.1596 33.4422 40.3306 33.4422 40.5033V43.6998C33.4424 43.9146 33.3897 44.1261 33.2888 44.3157C33.2888 44.3157 33.2888 44.3142 33.2888 44.3134V41.1169C33.2888 40.7682 33.1503 40.4337 32.9037 40.1872C32.6572 39.9406 32.3227 39.8021 31.974 39.8021H30.2648C30.1213 40.0607 29.2769 40.2592 28.2568 40.2592C27.2367 40.2592 26.3924 40.0607 26.2488 39.8021H9.00085C8.91738 39.8021 8.83485 39.8197 8.75864 39.8537C8.68244 39.8877 8.61427 39.9375 8.55859 39.9997V39.7841C8.55857 39.7059 8.57397 39.6284 8.60389 39.5562C8.63382 39.4839 8.6777 39.4182 8.73301 39.3629C8.78833 39.3076 8.854 39.2637 8.92627 39.2338C8.99855 39.2039 9.07602 39.1885 9.15425 39.1885Z" fill="white"/>
</g>
<path id="Vector_88" d="M32.1271 45.3216H9.15392C8.91466 45.3213 8.68528 45.2261 8.5161 45.0569C8.34692 44.8877 8.25175 44.6584 8.25146 44.4191V39.7843C8.25175 39.545 8.34692 39.3157 8.5161 39.1465C8.68528 38.9773 8.91466 38.8821 9.15392 38.8818H32.1271C32.557 38.8823 32.9692 39.0533 33.2732 39.3573C33.5772 39.6613 33.7482 40.0735 33.7487 40.5034V43.7C33.7482 44.1299 33.5772 44.5421 33.2732 44.8461C32.9692 45.1501 32.557 45.3211 32.1271 45.3216ZM9.15392 39.4954C9.07733 39.4955 9.00391 39.526 8.94976 39.5801C8.8956 39.6343 8.86515 39.7077 8.86506 39.7843V44.4196C8.86515 44.4962 8.8956 44.5696 8.94976 44.6237C9.00391 44.6779 9.07733 44.7083 9.15392 44.7084H32.1271C32.3943 44.7081 32.6505 44.6018 32.8395 44.4128C33.0285 44.2239 33.1348 43.9677 33.1351 43.7004V40.5034C33.1348 40.2362 33.0285 39.98 32.8395 39.791C32.6505 39.6021 32.3943 39.4958 32.1271 39.4954H9.15392Z" fill="#363636"/>
<path id="Vector_89" d="M21.2507 43.7246H8.55826V40.5196H21.2507C21.384 40.5196 21.516 40.5459 21.6391 40.5969C21.7622 40.6479 21.8741 40.7226 21.9684 40.8169C22.0626 40.9111 22.1374 41.023 22.1884 41.1461C22.2394 41.2693 22.2656 41.4012 22.2656 41.5345V42.7097C22.2656 42.843 22.2394 42.975 22.1884 43.0981C22.1374 43.2212 22.0626 43.3331 21.9684 43.4274C21.8741 43.5216 21.7622 43.5964 21.6391 43.6474C21.516 43.6984 21.384 43.7246 21.2507 43.7246Z" fill="white"/>
<g id="Group_26" opacity="0.3">
<path id="Vector_90" d="M20.3307 43.0341C20.5998 43.0341 20.858 42.9271 21.0483 42.7368C21.2386 42.5465 21.3456 42.2883 21.3456 42.0192V40.8441C21.3454 40.7346 21.3274 40.6258 21.2923 40.522C21.5539 40.5324 21.8013 40.6436 21.9828 40.8323C22.1643 41.021 22.2657 41.2726 22.266 41.5344V42.7095C22.266 42.9786 22.159 43.2368 21.9687 43.4271C21.7784 43.6174 21.5202 43.7244 21.2511 43.7244H8.55859V43.0341H20.3307Z" fill="#363636"/>
</g>
<path id="Vector_91" d="M21.2507 44.0053H8.55819C8.48358 44.0053 8.41202 43.9757 8.35926 43.9229C8.3065 43.8702 8.27686 43.7986 8.27686 43.724V40.5195C8.2769 40.4449 8.30656 40.3734 8.35931 40.3206C8.41207 40.2679 8.4836 40.2383 8.55819 40.2383H21.2507C21.5943 40.2386 21.9238 40.3753 22.1668 40.6183C22.4098 40.8614 22.5465 41.1908 22.5469 41.5345V42.7096C22.5464 43.0531 22.4096 43.3825 22.1666 43.6254C21.9236 43.8683 21.5942 44.0049 21.2507 44.0053ZM8.83937 43.4428H21.2507C21.4452 43.4426 21.6317 43.3652 21.7692 43.2276C21.9067 43.0901 21.9841 42.9036 21.9844 42.7091V41.5341C21.9842 41.3395 21.9068 41.153 21.7692 41.0155C21.6317 40.8779 21.4452 40.8005 21.2507 40.8003H8.83937V43.4428Z" fill="#363636"/>
<g id="Group_27" opacity="0.4">
<path id="Vector_92" d="M11.6381 41.4681C11.3815 41.5003 11.1248 41.5153 10.8682 41.5264L10.0983 41.5517C9.84163 41.5612 9.58499 41.5653 9.32851 41.5718C9.07202 41.5782 8.81523 41.5811 8.55859 41.5831V41.353C8.81523 41.355 9.07187 41.3579 9.32851 41.3644C9.58515 41.3708 9.84163 41.3748 10.0983 41.3843L10.8682 41.4098C11.1248 41.4207 11.3822 41.4359 11.6381 41.4681Z" fill="#363636"/>
<path id="Vector_93" d="M22.2419 41.583C20.7927 41.5924 19.3436 41.5847 17.8944 41.5761L15.7206 41.5537C14.996 41.5444 14.2714 41.5537 13.5469 41.468C14.2714 41.3827 14.996 41.3913 15.7206 41.3821L17.8944 41.3597C19.3436 41.3512 20.7927 41.3436 22.2419 41.3529V41.583Z" fill="#363636"/>
<path id="Vector_94" d="M16.0821 42.1601C15.455 42.2449 14.828 42.242 14.2011 42.2495L12.3203 42.2716L10.4394 42.2811C9.81254 42.2821 9.18559 42.2801 8.55859 42.2753V42.0452C9.18554 42.0392 9.81248 42.0385 10.4394 42.0394L12.3203 42.0487L14.2011 42.0707C14.828 42.0782 15.455 42.0753 16.0821 42.1601Z" fill="#363636"/>
<path id="Vector_95" d="M22.2421 42.2751C21.849 42.2784 21.4558 42.2784 21.0626 42.2751L19.8832 42.2623L18.7039 42.2392C18.3107 42.2331 17.9176 42.225 17.5244 42.1601C17.9176 42.095 18.3107 42.0869 18.7039 42.0809L19.8832 42.0579L21.0626 42.045C21.4558 42.0423 21.849 42.0423 22.2421 42.045V42.2751Z" fill="#363636"/>
<path id="Vector_96" d="M12.3203 42.8524C12.0069 42.8985 11.6933 42.9184 11.3799 42.9304L10.4394 42.9541C10.126 42.9635 9.81248 42.9644 9.49893 42.9683C9.34226 42.9707 9.18554 42.9714 9.02876 42.9704C8.87199 42.9704 8.71537 42.9704 8.55859 42.9675V42.7374C8.71537 42.7346 8.87199 42.7348 9.02876 42.7345C9.18554 42.7342 9.34231 42.7345 9.49893 42.7366C9.81248 42.7405 10.126 42.7414 10.4394 42.7507L11.3799 42.7745C11.6933 42.7866 12.0069 42.8063 12.3203 42.8524Z" fill="#363636"/>
<path id="Vector_97" d="M22.2421 42.9677L20.3045 42.9572L18.3671 42.9385L16.4296 42.9134C15.7838 42.9055 15.1378 42.898 14.4922 42.852C15.1378 42.806 15.7838 42.7991 16.4296 42.7906L18.3671 42.7655L20.3045 42.7469L22.2421 42.7363V42.9677Z" fill="#363636"/>
</g>
<path id="Vector_98" d="M4.73956 44.8995C5.07704 44.806 5.41452 44.7563 5.75199 44.7184C6.08947 44.6806 6.42695 44.6672 6.76443 44.656C7.43939 44.6313 8.11435 44.6443 8.78931 44.6578C9.46427 44.6713 10.1392 44.669 10.8142 44.6694H33.0946H34.1071C34.4445 44.6694 34.782 44.654 35.1195 44.6465C35.4573 44.6389 35.7953 44.6499 36.1319 44.6795C36.4694 44.7137 36.8069 44.7704 37.1444 44.8998C37.1679 44.9085 37.1881 44.9242 37.2024 44.9447C37.2167 44.9653 37.2244 44.9898 37.2244 45.0148C37.2244 45.0399 37.2167 45.0643 37.2024 45.0849C37.1881 45.1054 37.1679 45.1211 37.1444 45.1299C36.8069 45.2592 36.4694 45.3161 36.1319 45.3501C35.7953 45.3797 35.4573 45.3908 35.1195 45.3831C34.782 45.3759 34.4445 45.3601 34.1071 45.3603H33.0946H10.8156C10.1406 45.3603 9.46565 45.3574 8.79069 45.3718C8.11573 45.3862 7.44077 45.3983 6.76581 45.3736C6.42833 45.3624 6.09086 45.3495 5.75338 45.3112C5.4159 45.2728 5.07842 45.2236 4.74094 45.1302C4.71575 45.1232 4.69354 45.1082 4.67772 45.0874C4.66189 45.0666 4.65332 45.0412 4.65332 45.0151C4.65332 44.989 4.66189 44.9636 4.67772 44.9428C4.69354 44.922 4.71575 44.907 4.74094 44.9001L4.73956 44.8995Z" fill="#363636"/>
</g>
</svg>
