<svg width="112" height="124" viewBox="0 0 112 124" fill="none" xmlns="http://www.w3.org/2000/svg">
<g id="Group 204">
<path id="Vector" d="M56.0006 114.416C86.9284 114.416 112 89.3442 112 58.4164C112 27.4887 86.9284 2.41675 56.0006 2.41675C25.0729 2.41675 0.000976562 27.4887 0.000976562 58.4164C0.000976562 89.3442 25.0729 114.416 56.0006 114.416Z" fill="#EBEBEB"/>
<path id="Vector_2" d="M105.047 68.4057C104.794 68.964 104.331 69.4002 103.759 69.6195C103.187 69.8387 102.551 69.8234 101.99 69.5769C101.429 69.3303 100.988 68.8724 100.762 68.3026C100.537 67.7327 100.545 67.0969 100.785 66.5331C101.97 63.8333 101.856 60.6256 100.586 57.947C100.223 57.1756 99.762 56.4538 99.2153 55.7994C98.115 54.4833 95.7178 52.4097 92.051 53.2963C86.1075 54.7309 86.0462 59.8618 88.8497 73.5895C89.8039 78.2635 89.1755 81.9049 86.9835 84.4164C85.0919 86.5809 82.5211 87.277 80.82 87.495C79.8107 87.6219 79.1083 87.5796 79.0342 87.5754C78.4286 87.5228 77.8677 87.2353 77.4713 86.7746C77.0749 86.3138 76.8744 85.7162 76.9129 85.1096C76.9513 84.5029 77.2255 83.9354 77.6769 83.5283C78.1282 83.1212 78.721 82.9069 79.3283 82.9311C79.4108 82.9353 82.0366 83.0284 83.4966 81.3315C84.1271 80.5951 84.4445 79.6261 84.5629 78.5872C84.7195 77.2288 84.5397 75.7498 84.2879 74.5205C83.0395 68.4099 82.0472 62.9975 82.5233 58.6431C83.1072 53.3026 85.9467 49.9829 90.9592 48.7705C95.4237 47.6914 99.7337 49.1661 102.785 52.8118C103.073 53.1568 103.344 53.5137 103.599 53.8824C106.488 58.0845 107.088 63.7571 105.047 68.4057Z" fill="white"/>
<path id="Vector_3" d="M105.046 68.4056C104.793 68.964 104.331 69.4001 103.758 69.6194C103.186 69.8387 102.55 69.8234 101.989 69.5768C101.428 69.3303 100.987 68.8724 100.762 68.3025C100.536 67.7326 100.544 67.0968 100.785 66.5331C101.97 63.8332 101.855 60.6256 100.586 57.9469C102.04 56.9271 103.288 55.5814 103.599 53.8823C106.487 58.0844 107.088 63.7571 105.046 68.4056Z" fill="#FFBC1F"/>
<g id="Group" opacity="0.3">
<path id="Vector_4" d="M101.049 68.8584C100.802 68.5291 100.648 68.1402 100.602 67.7316C100.555 67.323 100.618 66.9094 100.784 66.5331C101.969 63.8333 101.855 60.6256 100.585 57.947C100.222 57.1756 99.761 56.4538 99.2143 55.7994C98.1141 54.4833 95.7168 52.4097 92.05 53.2963C86.1066 54.7308 86.0452 59.8618 88.8487 73.5895C89.803 78.2635 89.1745 81.9048 86.9825 84.4164C85.0909 86.5809 82.5202 87.277 80.819 87.4949C79.8097 87.6219 79.1073 87.5796 79.0332 87.5754C78.4277 87.5228 77.8667 87.2353 77.4703 86.7745C77.0739 86.3138 76.8735 85.7162 76.9119 85.1096C76.9503 84.5029 77.2245 83.9354 77.6759 83.5283C78.1273 83.1212 78.72 82.9068 79.3273 82.931C79.4099 82.9353 82.0356 83.0284 83.4956 81.3314C84.1261 80.5951 84.4435 79.6261 84.562 78.5872C84.7819 78.6173 84.9977 78.6718 85.2056 78.7497C86.2056 79.1305 87.2758 78.3857 87.2368 77.3168C87.2136 76.6596 87.1239 75.8433 86.9343 74.8294C86.0287 69.9777 80.4153 52.7779 92.6471 51.3433C103.353 50.0886 107.087 64.4257 101.049 68.8584Z" fill="#363636"/>
</g>
<path id="Vector_5" d="M79.4201 88.4328C79.1662 88.4328 79.01 88.4227 78.9745 88.4201C78.1413 88.3579 77.3662 87.9696 76.8174 87.3394C76.2687 86.7093 75.9906 85.8882 76.0435 85.0543C76.0963 84.2205 76.4759 83.4411 77.0998 82.8853C77.7237 82.3295 78.5417 82.0422 79.3761 82.0857C79.3871 82.0857 81.6642 82.1627 82.8533 80.7793C83.8164 79.6592 84.031 77.4968 83.458 74.6911C82.1957 68.5086 81.1907 63.0272 81.6807 58.5509C82.3083 52.8191 85.3623 49.2517 90.7582 47.9483C95.5468 46.7914 100.166 48.366 103.433 52.2689C107.209 56.7804 108.169 63.4018 105.821 68.7456C105.655 69.13 105.415 69.4778 105.114 69.7691C104.813 70.0603 104.458 70.2891 104.068 70.4424C103.679 70.5956 103.263 70.6703 102.844 70.6621C102.426 70.6539 102.013 70.5629 101.63 70.3945C101.246 70.226 100.9 69.9834 100.611 69.6806C100.322 69.3778 100.096 69.0209 99.9451 68.6302C99.7945 68.2396 99.7228 67.823 99.7339 67.4045C99.745 66.986 99.8389 66.5738 100.01 66.1917C101.41 63.0057 100.83 59.0477 98.5661 56.3428C97.5928 55.1782 95.474 53.3383 92.249 54.1186C87.3186 55.3094 86.7901 59.2784 89.6774 73.4212C90.6871 78.366 89.9948 82.2524 87.6195 84.9738C85.5798 87.3068 82.8537 88.0884 80.9249 88.3351C80.4258 88.399 79.9233 88.4317 79.4201 88.4328ZM79.1971 83.7733C78.8134 83.7729 78.4445 83.9215 78.1681 84.1878C77.8918 84.454 77.7295 84.8171 77.7156 85.2006C77.7017 85.5841 77.8371 85.958 78.0934 86.2436C78.3497 86.5292 78.7069 86.7042 79.0896 86.7317C79.0981 86.7317 79.7569 86.774 80.7116 86.6546C82.3489 86.4464 84.6556 85.7922 86.3445 83.8587C88.3541 81.5575 88.9174 78.1599 88.019 73.7597C86.6851 67.2272 85.8879 62.1707 86.3301 58.7253C86.7808 55.2129 88.4836 53.2867 91.8516 52.4733C95.9657 51.4793 98.6372 53.7907 99.864 55.2565C102.53 58.443 103.213 63.1115 101.56 66.8726C101.481 67.0507 101.439 67.2424 101.435 67.4369C101.43 67.6313 101.465 67.8247 101.535 68.006C101.606 68.1872 101.711 68.3528 101.846 68.4933C101.98 68.6338 102.141 68.7464 102.319 68.8247C102.679 68.9828 103.087 68.9917 103.453 68.8492C103.819 68.7067 104.113 68.4247 104.271 68.0651C106.367 63.2968 105.508 57.3859 102.136 53.3561C99.2974 49.9652 95.2954 48.5945 91.1564 49.5945C86.4621 50.7286 83.9133 53.7187 83.3641 58.735C82.8986 62.9667 83.8833 68.3122 85.1164 74.3522C85.5976 76.708 85.8185 79.9271 84.1368 81.8847C82.4043 83.8994 79.4133 83.7843 79.2868 83.7775C79.2568 83.7741 79.2267 83.7733 79.1971 83.7733Z" fill="#363636"/>
<path id="Vector_6" d="M84.9423 84.4478C84.4958 87.5687 82.088 90.5838 82.088 90.5838H30.6958C28.1906 88.7727 25.9055 85.8739 25.7024 83.0768V83.0746C25.6072 81.7755 25.9626 80.4975 26.955 79.3613C30.0864 75.7792 34.6186 79.6787 34.6186 79.6787C28.9481 68.8434 39.447 55.3759 39.447 55.3759C39.4494 55.3733 39.4515 55.3704 39.4534 55.3674C45.8856 47.9852 67.6557 45.078 70.2751 48.3385C70.4162 48.509 70.5038 48.7173 70.5269 48.9373C70.7681 51.396 72.1244 54.811 73.1992 57.204C73.9059 58.7761 74.8284 60.2339 75.9033 61.5775C78.4 64.7005 79.7394 68.0668 80.4461 70.974C80.9182 72.8995 81.1737 74.8718 81.2078 76.854C81.2268 77.9585 81.1591 78.6123 81.1591 78.6123C84.5572 79.8712 85.2639 82.186 84.9423 84.4478Z" fill="white"/>
<path id="Vector_7" d="M32.6659 88.0523C33.8179 88.0523 34.7517 87.1184 34.7517 85.9664C34.7517 84.8145 33.8179 83.8806 32.6659 83.8806C31.5139 83.8806 30.5801 84.8145 30.5801 85.9664C30.5801 87.1184 31.5139 88.0523 32.6659 88.0523Z" fill="#FF5253"/>
<path id="Vector_8" d="M78.8262 88.6809C79.8905 88.24 80.3959 87.0199 79.955 85.9556C79.5142 84.8913 78.2941 84.386 77.2298 84.8268C76.1655 85.2676 75.6601 86.4878 76.1009 87.552C76.5418 88.6163 77.7619 89.1217 78.8262 88.6809Z" fill="#FF5253"/>
<path id="Vector_9" d="M28.8963 85.6658C29.4754 85.6658 29.9449 85.1964 29.9449 84.6172C29.9449 84.0381 29.4754 83.5686 28.8963 83.5686C28.3171 83.5686 27.8477 84.0381 27.8477 84.6172C27.8477 85.1964 28.3171 85.6658 28.8963 85.6658Z" fill="#FF5253"/>
<path id="Vector_10" d="M30.1551 83.2288C30.7342 83.2288 31.2037 82.7594 31.2037 82.1802C31.2037 81.6011 30.7342 81.1316 30.1551 81.1316C29.5759 81.1316 29.1064 81.6011 29.1064 82.1802C29.1064 82.7594 29.5759 83.2288 30.1551 83.2288Z" fill="#FF5253"/>
<path id="Vector_11" d="M32.9949 83.1497C33.574 83.1497 34.0435 82.6802 34.0435 82.1011C34.0435 81.522 33.574 81.0525 32.9949 81.0525C32.4158 81.0525 31.9463 81.522 31.9463 82.1011C31.9463 82.6802 32.4158 83.1497 32.9949 83.1497Z" fill="#FF5253"/>
<path id="Vector_12" d="M77.9023 83.4804C78.505 83.2307 78.7912 82.5398 78.5415 81.9372C78.2919 81.3346 77.601 81.0484 76.9984 81.298C76.3958 81.5476 76.1096 82.2385 76.3592 82.8412C76.6088 83.4438 77.2997 83.73 77.9023 83.4804Z" fill="#FF5253"/>
<path id="Vector_13" d="M82.9023 85.7603C83.0522 85.1255 82.659 84.4893 82.0241 84.3395C81.3893 84.1897 80.7532 84.5829 80.6033 85.2177C80.4535 85.8525 80.8467 86.4887 81.4815 86.6385C82.1164 86.7883 82.7525 86.3952 82.9023 85.7603Z" fill="#FF5253"/>
<path id="Vector_14" d="M81.791 82.6551C81.9408 82.0202 81.5476 81.3841 80.9128 81.2343C80.278 81.0844 79.6418 81.4776 79.492 82.1125C79.3422 82.7473 79.7353 83.3834 80.3702 83.5333C81.005 83.6831 81.6411 83.2899 81.791 82.6551Z" fill="#FF5253"/>
<path id="Vector_15" d="M80.4433 70.9763C79.4416 71.2278 78.4125 71.3543 77.3796 71.3529C70.4184 71.3529 64.7754 65.7099 64.7754 58.7487C64.7736 56.6972 65.2736 54.6764 66.2317 52.8623C67.1898 51.0482 68.577 49.496 70.2724 48.3408C70.4135 48.5113 70.501 48.7196 70.5242 48.9396C70.7654 51.3982 72.1217 54.8132 73.1965 57.2063C73.9032 58.7784 74.8257 60.2362 75.9006 61.5798C78.3973 64.7028 79.7367 68.0691 80.4433 70.9763Z" fill="#FFBC1F"/>
<g id="Group_2" opacity="0.3">
<path id="Vector_16" d="M81.1574 78.6145C76.8728 72.834 70.5252 75.4195 70.5252 75.4195C71.2357 73.8631 72.7888 72.9998 74.1526 72.5267C75.8161 71.9491 76.7382 70.1362 76.131 68.4833C75.2749 66.1525 73.5581 64.2854 72.2488 62.633C71.2966 61.4316 70.4583 59.9247 69.8574 58.7173C69.5809 58.1667 69.1045 57.7425 68.5256 57.5313C67.9467 57.3201 67.3091 57.3379 66.7429 57.5811C47.7924 65.6866 39.4453 55.3781 39.4453 55.3781C39.4477 55.3755 39.4498 55.3726 39.4517 55.3696C45.8839 47.9874 67.654 45.0802 70.2734 48.3407C70.4145 48.5112 70.5021 48.7195 70.5252 48.9395C70.7664 51.3982 72.1227 54.8132 73.1975 57.2062C73.9042 58.7783 74.8268 60.2361 75.9016 61.5797C78.3983 64.7027 79.7377 68.069 80.4444 70.9762C81.5002 75.301 81.1574 78.6145 81.1574 78.6145Z" fill="#363636"/>
</g>
<g id="Group_3" opacity="0.3">
<path id="Vector_17" d="M84.9401 84.4481C84.4936 87.569 82.0858 90.5841 82.0858 90.5841H30.6936C28.1884 88.773 25.9033 85.8742 25.7002 83.0771L28.7073 85.9047C30.172 87.2823 32.1071 88.0493 34.1179 88.0493H35.1818C36.5939 88.0492 37.9685 87.5945 39.1021 86.7523C39.1021 86.7523 39.8744 87.6135 41.0973 86.7523C41.0973 86.7523 42.3668 87.4103 44.0891 85.5166C44.0891 85.5166 46.5986 84.7465 45.6845 82.0995C44.7705 79.4526 42.4578 71.3361 43.9876 68.0037C43.9876 68.0037 45.5174 81.1453 49.1905 81.2066C49.1905 81.2066 52.999 82.218 59.1181 68.01C59.0398 68.2618 56.4817 76.3634 53.236 81.6742C53.236 81.6742 52.5907 84.7676 55.3794 84.3952C55.3794 84.3952 55.8555 86.9025 59.5963 86.09C59.5963 86.09 64.084 89.4733 66.3967 76.0968C66.3967 76.0968 67.3467 72.8998 66.805 68.7992C66.805 68.7992 68.306 75.9851 66.7784 83.3301C66.3493 85.3944 67.794 87.3845 69.8895 87.6202C71.5856 87.8111 73.9842 87.9732 77.3725 88.0371C79.7423 88.0819 82.0579 87.2368 83.7929 85.6212C84.1947 85.2497 84.5776 84.8581 84.9401 84.4481Z" fill="#363636"/>
</g>
<g id="Group_4" opacity="0.3">
<path id="Vector_18" d="M81.1553 78.6147C81.1553 78.6147 73.9699 76.8923 72.5649 86.3904C72.5649 86.3904 71.1621 76.4628 81.204 76.8564C81.2231 77.9608 81.1553 78.6147 81.1553 78.6147Z" fill="#363636"/>
</g>
<g id="Group_5" opacity="0.3">
<path id="Vector_19" d="M53.6353 81.0056C53.6353 81.0056 54.2755 82.5429 55.4486 82.4071C55.6832 82.3824 55.9147 82.3333 56.1392 82.2607C56.2128 82.2372 56.2909 82.2307 56.3674 82.2417C56.444 82.2528 56.517 82.281 56.5811 82.3244C56.6451 82.3677 56.6985 82.425 56.7372 82.492C56.7759 82.559 56.7988 82.6338 56.8044 82.711C56.8552 83.3123 57.0613 84.0101 57.7256 84.1413C58.6329 84.3203 59.6363 83.7854 60.2736 83.2678C60.5617 83.0338 60.9976 83.1604 61.0975 83.5179L61.1026 83.5366C61.1162 83.5849 61.1433 83.6283 61.1807 83.6618C61.2181 83.6953 61.2643 83.7174 61.3138 83.7256C61.3634 83.7338 61.4142 83.7278 61.4604 83.7082C61.5066 83.6885 61.5463 83.6562 61.5748 83.6148C62.6421 82.0694 65.4921 77.2956 66.8048 68.8013C66.8048 68.8013 67.922 78.5588 62.3535 85.9664C62.3535 85.9664 61.0243 87.1983 59.5961 86.0934C59.5961 86.0934 56.6521 87.0324 55.3792 84.3986C55.3804 84.3994 52.3657 84.2568 53.6353 81.0056Z" fill="#363636"/>
</g>
<g id="Group_6" opacity="0.3">
<path id="Vector_20" d="M36.8486 84.5491C36.8486 84.5491 39.0745 85.9942 39.6416 84.8292C39.7626 84.5808 40.0922 84.514 40.3161 84.6756C40.7016 84.9537 41.2471 85.1771 41.7972 84.8386C42.3092 84.5224 42.4743 84.0058 42.5119 83.569C42.545 83.1818 42.7684 82.8217 43.1323 82.6855C43.5343 82.5352 43.9152 82.1595 43.6224 81.234C43.0896 79.5506 41.7113 70.9297 43.9901 68.0056C43.9901 68.0056 42.6397 70.9505 44.2275 76.8347C44.2275 76.8347 47.7178 84.8271 44.0916 85.5186C44.0916 85.5186 43.2085 87.797 40.7262 86.7086C40.7245 86.7086 38.5151 88.273 36.8486 84.5491Z" fill="#363636"/>
</g>
<path id="Vector_21" d="M82.086 91.4315H30.6947C30.5169 91.4314 30.3437 91.3753 30.1996 91.2712C27.8721 89.589 25.2485 86.6417 24.8816 83.4145C24.6857 81.6994 25.182 80.1062 26.317 78.807C28.2966 76.5397 30.8513 76.7521 32.8457 77.6048C31.5339 73.4154 31.96 68.4753 34.1216 63.1476C36.0588 58.3725 38.6673 54.9989 38.7764 54.8576L38.8052 54.8229C41.4691 51.7579 47.0148 49.0783 54.0259 47.4724C60.1111 46.0759 66.1785 45.7729 69.123 46.7107C70.858 47.2646 71.3015 48.1829 71.3658 48.8557C71.5939 51.19 72.907 54.4958 73.9679 56.8584C74.6132 58.2946 75.4854 59.7046 76.5602 61.0478C82.042 67.9032 82.1427 75.7708 82.0407 78.0572C83.9649 78.9065 85.1756 80.187 85.6445 81.8708C86.787 85.9807 82.912 90.9022 82.7466 91.1095C82.6678 91.2094 82.5674 91.2902 82.4531 91.346C82.3387 91.4017 82.2132 91.431 82.086 91.4315ZM30.9715 89.7388H81.6616C82.4347 88.6648 84.7859 85.0895 84.014 82.3253C83.6471 81.0135 82.6175 80.0575 80.863 79.4092C80.6865 79.3444 80.5366 79.2225 80.4369 79.063C80.3373 78.9035 80.2937 78.7153 80.3129 78.5282C80.3218 78.4397 81.1483 69.5011 75.2374 62.1091C74.0737 60.6534 73.1266 59.1211 72.4233 57.5545C71.3099 55.0768 69.9308 51.5878 69.6803 49.0237C69.6638 48.8545 69.3726 48.5705 68.6059 48.3259C63.3585 46.6514 45.6585 49.5498 40.0967 55.9151C39.6888 56.4504 30.104 69.234 35.3636 79.2895C35.4551 79.4639 35.4829 79.6648 35.4422 79.8576C35.4015 80.0504 35.2948 80.2229 35.1405 80.3454C34.9862 80.468 34.7941 80.5328 34.5971 80.5289C34.4001 80.5249 34.2107 80.4523 34.0615 80.3237C33.9032 80.1883 30.1222 77.02 27.5869 79.9208C26.7622 80.8653 26.416 81.9766 26.5586 83.2216C26.8066 85.3675 28.5276 87.9014 30.9715 89.7388Z" fill="#363636"/>
<path id="Vector_22" d="M35.4144 79.4013C35.6984 80.1905 36.0204 80.9992 36.3627 81.7774C36.6977 82.5521 37.0731 83.3086 37.4875 84.0439C37.5916 84.2225 37.694 84.4027 37.8062 84.5682L37.9708 84.8221L38.1439 85.0565C38.2569 85.222 38.38 85.3464 38.4976 85.4835C38.5235 85.516 38.5534 85.5452 38.5865 85.5703L38.6737 85.646L38.7583 85.7243C38.7892 85.7505 38.8319 85.7755 38.8683 85.8013C39.1646 86.0129 39.4794 86.1695 39.7316 86.2224C39.8308 86.246 39.9337 86.2494 40.0342 86.2325C40.0661 86.2265 40.097 86.216 40.126 86.2012C40.1358 86.1964 40.1451 86.1907 40.1539 86.1843C40.1573 86.1817 40.1611 86.1801 40.1586 86.1809C40.1561 86.1817 40.1611 86.1809 40.1548 86.1856C40.1435 86.1968 40.133 86.2088 40.1235 86.2215L41.2474 86.0476C41.233 86.0379 41.2415 86.0434 41.25 86.0476C41.2579 86.0526 41.2663 86.057 41.2749 86.0607C41.2952 86.0716 41.3161 86.0814 41.3375 86.0899C41.3799 86.1107 41.4294 86.1255 41.4763 86.1424C41.5692 86.1706 41.6648 86.1887 41.7616 86.1961C41.9444 86.2085 42.1275 86.1764 42.2952 86.1026C42.4852 86.006 42.657 85.8771 42.803 85.7218C42.8838 85.6333 42.9591 85.5296 43.0395 85.4348L43.2545 85.0993L44.1855 84.6968C44.1605 84.6905 44.1855 84.6968 44.1897 84.6968L44.2249 84.6998C44.2494 84.6998 44.2765 84.7023 44.3023 84.7019C44.3527 84.7017 44.403 84.6968 44.4525 84.6871C44.5281 84.6738 44.6002 84.645 44.6641 84.6025C44.7221 84.5626 44.7699 84.5097 44.8038 84.448C44.8572 84.3541 44.8974 84.2533 44.9231 84.1484C44.9849 83.8945 44.9963 83.5703 44.9781 83.2327C44.9559 82.8783 44.9072 82.5261 44.8325 82.179C44.7999 82.0004 44.7509 81.8184 44.7128 81.6377L44.5689 81.0876C44.4665 80.6983 44.3573 80.3111 44.2608 79.9201C44.0725 79.1368 43.8965 78.3522 43.7471 77.5617C43.4564 75.9799 43.2211 74.3854 43.1547 72.7706C43.1365 72.3677 43.1398 71.961 43.1411 71.5578C43.1627 71.1515 43.1728 70.7474 43.2257 70.342C43.2439 70.1406 43.2765 69.9383 43.3104 69.7373C43.3265 69.6366 43.3439 69.5363 43.3628 69.4364L43.4373 69.1402C43.4636 69.0411 43.483 68.9421 43.5152 68.844L43.6206 68.5545C43.6773 68.3607 43.7987 68.1842 43.8863 68.009C43.7289 68.7961 43.789 69.5748 43.8558 70.35C43.9227 71.1253 44.0471 71.8967 44.1821 72.6656C44.4441 74.203 44.7699 75.7332 45.1728 77.2431C45.3628 78.0006 45.5803 78.7513 45.8075 79.4977C45.915 79.8727 46.0381 80.2425 46.152 80.6149C46.2726 81.0017 46.4 81.4075 46.4905 81.8222C46.5913 82.248 46.6602 82.6807 46.6966 83.1167C46.7423 83.6009 46.7119 84.0892 46.6065 84.564C46.5388 84.8445 46.4289 85.1132 46.2806 85.3608C46.1113 85.6369 45.8824 85.8717 45.6107 86.0481C45.339 86.2244 45.0314 86.3379 44.7102 86.3802C44.5638 86.4014 44.4158 86.4095 44.268 86.4043C44.1952 86.4043 44.1229 86.3967 44.0492 86.3883L43.9367 86.373C43.8944 86.3654 43.8685 86.362 43.7949 86.3451L44.7259 85.9431L44.4174 86.4238C44.2934 86.5787 44.1753 86.7357 44.0365 86.8846C43.7505 87.1809 43.4119 87.4559 42.9943 87.6463C42.5695 87.8363 42.1043 87.9186 41.6401 87.8859C41.4143 87.869 41.1911 87.8264 40.9749 87.7589C40.868 87.7251 40.7629 87.6857 40.66 87.6408C40.6084 87.6201 40.5555 87.5926 40.5035 87.5668C40.4781 87.5545 40.4502 87.5393 40.4214 87.5245C40.3926 87.5097 40.3676 87.4948 40.3194 87.4635L41.4429 87.2896C41.4155 87.3231 41.3863 87.355 41.3553 87.3853C41.3304 87.4111 41.313 87.4276 41.2914 87.4453C41.2521 87.4807 41.211 87.5141 41.1683 87.5452C41.0895 87.6039 41.0062 87.6561 40.919 87.7014C40.7539 87.7881 40.5776 87.8516 40.3951 87.8901C40.0654 87.9569 39.7253 87.9546 39.3965 87.8833C38.7909 87.7513 38.3182 87.4809 37.9035 87.1927C37.851 87.155 37.7994 87.1237 37.7461 87.0806L37.5849 86.9422C37.4833 86.8491 37.3597 86.7551 37.2806 86.6591C37.1113 86.4678 36.9311 86.2744 36.7961 86.0785L36.5798 85.7848L36.3873 85.4886C36.2544 85.2914 36.1406 85.0917 36.0246 84.8919C35.579 84.1035 35.1755 83.292 34.816 82.4608C34.4546 81.6373 34.1284 80.8206 33.8203 79.9641L35.4144 79.4013Z" fill="#363636"/>
<path id="Vector_23" d="M40.4376 86.8897C40.308 86.6603 40.194 86.4223 40.0966 86.1775C39.9992 85.9333 39.9116 85.6841 39.8367 85.4289C39.7574 85.1713 39.6991 84.9076 39.6624 84.6405C39.629 84.3731 39.6201 84.0769 39.7089 83.8069C39.8596 84.0417 40.0246 84.2301 40.1812 84.4298C40.3378 84.6295 40.488 84.8272 40.642 85.0248L41.0961 85.621C41.2421 85.8203 41.3923 86.0251 41.5193 86.2253L40.4376 86.8897Z" fill="#363636"/>
<path id="Vector_24" d="M43.4131 85.7848C43.2545 85.2558 43.1097 84.7239 42.9819 84.1835C42.9155 83.9144 42.852 83.6444 42.7979 83.3706C42.7402 83.0954 42.6978 82.8172 42.6709 82.5374C43.0175 82.9825 43.3378 83.4303 43.6476 83.886C43.9637 84.3371 44.2692 84.7946 44.5659 85.252L43.4131 85.7848Z" fill="#363636"/>
<path id="Vector_25" d="M81.0098 79.4482C80.9882 79.4444 80.9197 79.4343 80.8689 79.4292C80.8181 79.4241 80.7563 79.4173 80.6996 79.4131C80.5837 79.4051 80.4647 79.3979 80.3458 79.3936C80.1059 79.386 79.8658 79.3912 79.6264 79.4093C79.1455 79.4456 78.6694 79.5295 78.205 79.6598C77.2669 79.9247 76.4005 80.3971 75.6698 81.0423C75.2995 81.3791 74.9607 81.7489 74.6575 82.1472C74.5137 82.3558 74.3575 82.5585 74.2306 82.782C74.1641 82.8916 74.0905 82.9978 74.0274 83.1108L73.8417 83.4523C73.3432 84.3676 72.953 85.3629 72.5675 86.3899C72.5443 85.2791 72.7162 84.1728 73.0753 83.1214C73.4428 82.0297 74.0262 81.0231 74.7909 80.1617C75.5953 79.2785 76.6018 78.6034 77.7243 78.1944C78.2857 77.9886 78.8693 77.8494 79.4631 77.7797C79.7604 77.7438 80.0595 77.7239 80.359 77.72C80.5096 77.7179 80.6607 77.72 80.8139 77.7301C80.89 77.7344 80.9675 77.7407 81.0458 77.7483C81.1241 77.756 81.1943 77.7632 81.306 77.7809L81.0098 79.4482Z" fill="#363636"/>
<path id="Vector_26" d="M79.662 78.9536C79.629 78.896 79.5642 78.7902 79.5088 78.7069C79.4534 78.6235 79.3924 78.5283 79.3302 78.4398C79.2066 78.2629 79.0763 78.0878 78.9409 77.9172C78.6694 77.5765 78.3748 77.255 78.059 76.9549C77.4348 76.3538 76.7067 75.8709 75.9101 75.5297C75.1099 75.1979 74.2327 75.0409 73.322 75.0371C72.4113 75.0333 71.474 75.1916 70.5244 75.418C71.3365 74.8373 72.2578 74.4271 73.2327 74.2123C74.2543 73.9937 75.3133 74.0219 76.3219 74.2944C77.343 74.5691 78.2968 75.0854 79.1106 75.7472C79.5168 76.0787 79.8929 76.4455 80.2345 76.8432C80.4038 77.0421 80.5684 77.2461 80.7195 77.4619C80.7956 77.5694 80.871 77.6777 80.9416 77.7915C81.0123 77.9054 81.0766 78.0091 81.1587 78.1618L79.662 78.9536Z" fill="#363636"/>
<path id="Vector_27" d="M59.122 68.0061C58.9709 69.1986 58.6819 70.3454 58.3455 71.4761C58.0091 72.6068 57.5906 73.705 57.1869 74.812C56.7831 75.919 56.3443 77.0125 55.8848 78.1051C55.773 78.3793 55.6537 78.6506 55.5301 78.921C55.4066 79.1914 55.291 79.4635 55.1603 79.7326L54.7739 80.54L54.3592 81.3441L54.4015 81.2594C54.3808 81.3128 54.3461 81.4114 54.3207 81.4918C54.2953 81.5722 54.2691 81.661 54.2462 81.7495C54.2018 81.9187 54.1673 82.0904 54.143 82.2636C54.0922 82.5979 54.0969 82.9208 54.1629 83.1303C54.2369 83.3419 54.2962 83.4117 54.4692 83.5031C54.6537 83.5822 54.9576 83.6364 55.2978 83.619L56.1776 84.2872C56.1734 84.2678 56.1776 84.2847 56.181 84.2948C56.1844 84.3074 56.1886 84.3197 56.1937 84.3317C56.2033 84.3606 56.2147 84.3888 56.2279 84.4163C56.2539 84.4762 56.2834 84.5344 56.3164 84.5906C56.3506 84.6467 56.3885 84.7004 56.4298 84.7515L56.4907 84.8285L56.5606 84.8958C56.7559 85.0805 56.9943 85.2135 57.2541 85.2825C57.5241 85.3731 57.855 85.3706 58.1826 85.3672C58.3518 85.3452 58.5241 85.3287 58.6963 85.3033L59.2219 85.1869L59.899 85.2914C59.8892 85.2855 59.9087 85.2961 59.9214 85.3024C59.9341 85.3088 59.9506 85.3172 59.9675 85.3249C59.9993 85.3409 60.034 85.3557 60.0708 85.3701C60.1428 85.3997 60.2166 85.4249 60.2917 85.4455C60.4375 85.4858 60.5874 85.51 60.7385 85.5178C61.0226 85.5348 61.3056 85.4696 61.5536 85.3299C61.8075 85.1873 62.0487 84.9635 62.2692 84.6918C62.3233 84.6228 62.3703 84.542 62.4232 84.4688C62.4748 84.3888 62.5277 84.3291 62.5798 84.2339C62.6826 84.0524 62.7913 83.8759 62.8908 83.6901C63.2966 82.9504 63.6618 82.1718 64.0075 81.3872L64.2614 80.7948L64.4976 80.1943C64.6643 79.7974 64.801 79.3903 64.9521 78.9853C65.5191 77.3595 65.9783 75.6913 66.2639 73.9919C66.2965 73.7803 66.3384 73.5687 66.3697 73.3542L66.4543 72.7143C66.5263 72.2873 66.5542 71.8587 66.6109 71.4274L66.6503 71.1037L66.6701 70.7791L66.7264 70.1258C66.7637 69.6882 66.7615 69.2498 66.8111 68.7974C66.9591 69.2222 67.0826 69.6551 67.1809 70.094C67.2529 70.535 67.3523 70.9827 67.3747 71.4308C67.4099 71.8798 67.4462 72.3326 67.4285 72.7824L67.4128 73.4595C67.4027 73.6846 67.3777 73.9081 67.3578 74.1324C67.1886 75.9263 66.8473 77.6997 66.3388 79.4284C66.0849 80.2912 65.8081 81.1494 65.4738 81.9877C65.1395 82.826 64.7968 83.6614 64.3698 84.4751C64.2661 84.6795 64.1502 84.8818 64.0406 85.0858C63.9893 85.1848 63.9068 85.3003 63.8404 85.4065C63.774 85.5127 63.7033 85.6236 63.6225 85.7281C63.2958 86.1445 62.8959 86.5436 62.3809 86.8352C61.8556 87.1295 61.2571 87.2673 60.656 87.2321C60.3672 87.217 60.0814 87.1663 59.805 87.081C59.669 87.0394 59.5355 86.99 59.4051 86.9333C59.34 86.9058 59.2744 86.8754 59.2088 86.8411C59.1758 86.8246 59.1436 86.8085 59.1081 86.7878C59.0725 86.767 59.0433 86.7522 58.987 86.7167L59.6641 86.8212L58.9942 86.9689C58.764 87.0048 58.5287 87.0294 58.2934 87.0535C57.8093 87.0641 57.3104 87.0645 56.7967 86.9071C56.2659 86.7611 55.78 86.4847 55.3833 86.1031L55.236 85.955L55.1044 85.7937C55.0182 85.6861 54.939 85.573 54.8674 85.4552C54.7969 85.3356 54.7338 85.2118 54.6783 85.0845C54.6489 85.0194 54.6227 84.9529 54.6 84.8852C54.5877 84.8517 54.5755 84.817 54.5645 84.7773C54.5535 84.7375 54.5425 84.7066 54.5268 84.6372L55.4066 85.3054C54.9157 85.3375 54.3634 85.3282 53.774 85.0824C53.4629 84.9476 53.1858 84.7452 52.9627 84.4899C52.7472 84.2373 52.5884 83.9413 52.4973 83.622C52.328 83.0258 52.3585 82.4913 52.4317 82.0025C52.471 81.7628 52.5241 81.5256 52.5908 81.292C52.6242 81.1773 52.6589 81.0635 52.6983 80.9501C52.7376 80.8367 52.774 80.7339 52.8328 80.5938V80.5908C52.8444 80.5637 52.8574 80.5371 52.8718 80.5113C53.4308 79.5249 53.9534 78.4919 54.4625 77.4509C54.9792 76.4128 55.4599 75.3515 55.9554 74.2957C56.451 73.2399 56.9054 72.1633 57.4162 71.1092C57.927 70.0551 58.4695 69.0141 59.122 68.0061Z" fill="#363636"/>
<path id="Vector_28" d="M54.7842 84.1725C54.9488 83.9423 55.1143 83.7142 55.2865 83.4891C55.4587 83.2639 55.6335 83.0409 55.8078 82.8175C55.9822 82.5941 56.1654 82.3753 56.3474 82.1557C56.5293 81.936 56.7202 81.7215 56.9225 81.5171L56.6846 82.3381L56.4379 83.1505C56.3533 83.4193 56.2712 83.6909 56.1815 83.9575C56.0918 84.2241 56.0038 84.492 55.9115 84.7565L54.7842 84.1725Z" fill="#363636"/>
<path id="Vector_29" d="M58.8896 85.6882L60.0656 84.1225C60.2582 83.8584 60.4613 83.599 60.6513 83.3324C60.8513 83.0706 61.037 82.7981 61.2074 82.5161C61.1849 82.8547 61.0961 83.1822 61.0114 83.5063C60.9166 83.8271 60.8202 84.1483 60.7089 84.4623C60.5976 84.7763 60.4884 85.0915 60.3665 85.4005C60.2446 85.7094 60.1219 86.0162 59.989 86.3247L58.8896 85.6882Z" fill="#363636"/>
<path id="Vector_30" d="M53.8075 60.1113C45.8878 60.1113 38.8115 58.5997 33.345 55.739C31.9658 55.022 30.6532 54.1836 29.4226 53.2339H29.3532V53.1784C28.7882 52.7374 28.2457 52.2682 27.7278 51.7727C26.187 50.3009 24.9349 48.6484 24.0039 46.8639C22.6557 44.2677 21.9727 41.3681 21.9727 38.2455C21.9727 35.4153 22.5469 32.5818 23.6789 29.8244C23.9434 27.5304 24.1685 25.6773 24.3873 23.9977C25.1782 17.9701 26.2992 10.9145 28.619 4.28807C28.8846 3.51957 29.3258 2.82362 29.9075 2.25554C30.4893 1.68747 31.1955 1.26293 31.9701 1.01567C32.7344 0.765644 33.5465 0.697421 34.3418 0.816432C35.1372 0.935442 35.8937 1.2384 36.5514 1.70121C40.3794 4.37863 44.35 8.31963 46.6652 11.7418L46.7134 11.8133C49.1998 11.2763 51.7365 11.0067 54.2802 11.0093C56.5925 11.0085 58.8994 11.2353 61.1673 11.6864C63.4897 8.27858 67.437 4.36551 71.2435 1.70418C71.9015 1.24117 72.6585 0.938171 73.4543 0.819304C74.2501 0.700436 75.0626 0.768982 75.8273 1.01948C76.6015 1.26658 77.3074 1.691 77.8887 2.25895C78.4701 2.82691 78.9108 3.52273 79.1758 4.29103C80.0222 6.71411 80.7449 9.27092 81.3806 12.107C82.6949 17.9468 83.4634 24.1585 84.1379 30.0224L84.1515 30.1384C84.4143 30.8455 84.6402 31.5492 84.8247 32.2318C85.3638 34.192 85.6379 36.2155 85.6398 38.2485C85.6398 43.6892 83.6297 48.3115 79.665 51.9872C79.2418 52.3816 78.7848 52.7726 78.2652 53.1822V53.2368H78.1945C76.3236 54.6942 74.11 55.9519 71.6146 56.9751C67.5305 58.6467 62.8046 59.6635 57.5678 59.9974C56.3592 60.0719 55.0948 60.1113 53.8075 60.1113ZM29.5631 53.0748C30.7811 54.0138 32.0801 54.8426 33.4449 55.5516C38.8814 58.3961 45.9234 59.8997 53.8092 59.8997C55.0918 59.8997 56.352 59.8603 57.5547 59.7829C62.7707 59.4503 67.4743 58.4389 71.5367 56.7784C74.0097 55.7627 76.2026 54.519 78.0561 53.0769L78.0984 53.0451C78.6299 52.6279 79.0963 52.2305 79.5249 51.8302C83.4452 48.1956 85.4324 43.6253 85.4324 38.2464C85.4306 36.2323 85.159 34.2276 84.625 32.2856C84.4265 31.5514 84.1794 30.7935 83.8904 30.0322L83.7541 29.6733L83.9027 29.7914C83.2357 24.0075 82.4715 17.8952 81.1778 12.151C80.5431 9.32297 79.8237 6.7742 78.9807 4.35916C78.7261 3.62147 78.3027 2.95342 77.7444 2.40816C77.186 1.8629 76.5081 1.4555 75.7646 1.21837C75.031 0.978129 74.2515 0.912441 73.4881 1.02653C72.7246 1.14062 71.9983 1.43135 71.367 1.87556C67.5585 4.54155 63.609 8.45928 61.3053 11.8624L61.2659 11.9208L61.1969 11.9069C58.9206 11.4496 56.6045 11.2198 54.2827 11.2209C51.6103 11.2191 48.9462 11.5191 46.341 12.1151L45.8861 12.2145L46.4362 11.7778C44.1249 8.39241 40.2076 4.51573 36.4295 1.87302C35.7986 1.42907 35.0727 1.13846 34.3098 1.0243C33.5468 0.910143 32.7677 0.975581 32.0344 1.21541C31.291 1.45282 30.6132 1.86037 30.0549 2.40567C29.4966 2.95097 29.0732 3.61899 28.8183 4.35662C26.5065 10.9645 25.3877 18.0065 24.5984 24.0236C24.3797 25.7065 24.1541 27.5613 23.8888 29.8633L23.8816 29.8913C22.7564 32.6275 22.1855 35.4382 22.1855 38.2455C22.1855 41.3347 22.8626 44.2008 24.1939 46.7661C25.1126 48.5324 26.3521 50.1663 27.8755 51.622C28.401 52.124 28.9518 52.5987 29.5259 53.0443L29.5631 53.0748Z" fill="#363636"/>
<path id="Vector_31" d="M73.0475 55.9951C73.0475 55.9951 72.4885 56.3273 71.5761 56.874C67.4861 58.5481 62.7123 59.5603 57.5623 59.8883C56.3315 59.9678 55.0807 60.0069 53.8101 60.0055C46.036 60.0055 38.9144 58.5324 33.3967 55.6468C32.0848 51.6427 35.5971 48.7914 41.2939 46.9718C43.4453 46.2837 45.1295 44.566 45.6703 42.3727C47.9051 33.3168 58.6655 33.3168 60.9007 42.3727C61.4416 44.566 63.1254 46.2837 65.2768 46.9718C71.1364 48.8435 74.6877 51.8057 73.0475 55.9951Z" fill="white"/>
<g id="Group_7" opacity="0.6">
<path id="Vector_32" d="M71.0898 1.78724C70.7513 2.02507 70.4128 2.27136 70.0742 2.52399C72.766 1.23162 76.09 2.54346 77.1188 5.48366C79.8736 13.3585 81.031 22.0961 82.075 31.191L82.0267 31.1541C83.0339 33.7888 83.5764 36.5678 83.5764 39.406C83.5764 45.0291 81.3759 49.5994 77.635 53.0673C77.1797 53.4921 76.7017 53.8989 76.2009 54.2877H76.1988C75.9961 54.4468 75.7892 54.6038 75.5776 54.7561C76.3967 54.2591 77.1863 53.7148 77.9423 53.1261C77.9426 53.1264 77.9431 53.1265 77.9435 53.1265C77.944 53.1265 77.9444 53.1264 77.9448 53.1261C78.4437 52.7359 78.9232 52.3305 79.3789 51.9052C83.1189 48.4378 85.3203 43.8675 85.3203 38.2444C85.3203 35.4066 84.7773 32.6276 83.7706 29.9925L83.8184 30.0298C82.7745 20.9345 81.6179 12.1973 78.8622 4.32247C77.737 1.11186 73.8752 -0.158925 71.0898 1.78724Z" fill="white"/>
</g>
<g id="Group_8" opacity="0.6">
<path id="Vector_33" d="M29.6914 2.4042C30.4788 2.08161 31.3348 1.96241 32.1803 2.05759C33.0259 2.15277 33.834 2.45926 34.53 2.94882C38.0694 5.42311 41.5076 8.7924 43.7924 11.8109C44.0501 12.1468 44.395 12.4056 44.7895 12.5593C45.184 12.7129 45.613 12.7556 46.0301 12.6826H46.0441H46.0466C46.1774 12.4406 46.3212 12.1812 46.4605 11.9307C46.3407 11.9569 46.2184 11.9831 46.0986 12.0115L46.3623 11.7999C44.1394 8.51777 40.2686 4.58142 36.2734 1.78721C34.1398 0.296374 31.3731 0.693311 29.6914 2.4042Z" fill="white"/>
</g>
<path id="Vector_34" d="M69.1904 14.583C70.5327 12.1248 72.2699 9.794 73.5208 8.24096C74.1856 7.41239 75.5131 7.71538 75.7551 8.75088C76.3653 11.3597 77.2239 15.7624 77.3483 20.3348V20.3369" fill="#FF5253"/>
<path id="Vector_35" d="M77.3473 20.337H77.2415C77.1209 15.8827 76.3105 11.5909 75.6512 8.77511C75.6023 8.56094 75.4936 8.36503 75.3378 8.21013C75.182 8.05523 74.9855 7.94769 74.771 7.89999C74.5577 7.84882 74.3342 7.85999 74.1271 7.93216C73.92 8.00432 73.7379 8.13446 73.6026 8.30708C72.3754 9.8305 70.6303 12.1656 69.2825 14.6339L69.0967 14.5324C70.4508 12.0505 72.2057 9.70524 73.438 8.17463C73.6001 7.97301 73.8155 7.821 74.0598 7.73593C74.3041 7.65087 74.5674 7.63617 74.8196 7.69353C75.0718 7.75089 75.3029 7.87798 75.4863 8.06032C75.6698 8.24265 75.7983 8.47289 75.8573 8.72475C76.5183 11.5503 77.3316 15.8573 77.4531 20.3298L77.3473 20.337Z" fill="#363636"/>
<g id="Group_9" opacity="0.6">
<path id="Vector_36" d="M68.0269 15.87L73.7685 19.706C74.2682 20.0401 74.8358 20.259 75.4305 20.3468C76.0251 20.4346 76.6318 20.3892 77.2067 20.2138L69.1889 14.5856C70.5312 12.1249 72.2683 9.79404 73.5192 8.241C73.5233 8.23477 73.5287 8.22945 73.5349 8.22534C73.0508 7.63925 72.0919 7.5762 71.5578 8.241C70.5206 9.52956 68.8766 11.6873 67.58 13.7888C67.3701 14.1259 67.2994 14.5314 67.3828 14.9197C67.4661 15.308 67.6971 15.6487 68.0269 15.87Z" fill="white"/>
</g>
<g id="Group_10" opacity="0.3">
<path id="Vector_37" d="M73.0371 8.84906C73.0822 8.93911 73.1165 9.03412 73.1395 9.13216C73.6473 11.2963 74.3244 14.6986 74.6109 18.406L77.3484 20.3369V20.3348C77.224 15.7645 76.3654 11.3597 75.7551 8.75088C75.5131 7.71538 74.1856 7.41239 73.5208 8.24096C73.3662 8.4328 73.205 8.6355 73.0371 8.84906Z" fill="#363636"/>
</g>
<path id="Vector_38" d="M30.0137 20.3369V20.3348C30.1377 15.7645 30.9967 11.3597 31.6069 8.75088C31.8485 7.71538 33.176 7.41239 33.8408 8.24096C35.0917 9.79485 36.8289 12.1248 38.1716 14.583" fill="#FF5253"/>
<path id="Vector_39" d="M30.1188 20.3379L29.9072 20.3349C30.0287 15.8603 30.8424 11.5528 31.503 8.72687C31.5619 8.47491 31.6904 8.24457 31.8739 8.06215C32.0574 7.87974 32.2885 7.75259 32.5408 7.69523C32.7932 7.63786 33.0565 7.65259 33.3009 7.73774C33.5452 7.82288 33.7607 7.97501 33.9227 8.17675C35.155 9.70779 36.9086 12.0534 38.2636 14.5345L38.0783 14.6361C36.7305 12.1685 34.9849 9.83389 33.7577 8.3092C33.6226 8.13633 33.4405 8.00601 33.2334 7.93382C33.0262 7.86163 32.8026 7.85062 32.5893 7.90211C32.3748 7.94981 32.1783 8.05735 32.0225 8.21225C31.8667 8.36715 31.758 8.56305 31.7091 8.77723C31.0506 11.5913 30.2398 15.884 30.1188 20.3379Z" fill="#363636"/>
<g id="Group_11" opacity="0.6">
<path id="Vector_40" d="M30.0119 20.6108L30.0297 19.7877C30.204 15.4138 31.0191 11.2553 31.6052 8.75093C31.6456 8.57044 31.7246 8.40083 31.8366 8.2537C31.1765 8.05565 30.4025 8.41958 30.2239 9.18468C29.6768 11.5236 28.9303 15.3037 28.692 19.3556C28.6806 19.5291 28.7074 19.7029 28.7706 19.8648C28.8338 20.0267 28.9319 20.1727 29.0578 20.2925C29.1838 20.4123 29.3345 20.5029 29.4994 20.5579C29.6643 20.6129 29.8393 20.6309 30.0119 20.6108Z" fill="white"/>
</g>
<g id="Group_12" opacity="0.3">
<path id="Vector_41" d="M31.374 9.77285C31.4526 9.83484 31.5236 9.90586 31.5856 9.98443C32.817 11.5142 34.5216 13.7985 35.8533 16.2156L38.1676 14.583C36.8253 12.1248 35.0882 9.79485 33.8369 8.24096C33.1721 7.41239 31.845 7.71538 31.603 8.75088C31.531 9.06699 31.4557 9.4068 31.374 9.77285Z" fill="#363636"/>
</g>
<path id="Vector_42" d="M49.6953 40.5726C49.6953 41.449 50.9064 42.1565 52.396 42.1527C53.8856 42.1489 55.0916 41.4359 55.0895 40.5595C55.0874 39.6831 53.8797 39.6107 52.3901 39.6141C50.9005 39.6175 49.6907 39.6966 49.6953 40.5726Z" fill="#363636"/>
<path id="Vector_43" d="M46.6068 41.4682C46.8086 42.097 47.0811 42.6814 47.5009 43.0517C47.9051 43.4326 48.4192 43.5853 48.9435 43.557C49.4678 43.5286 50.0015 43.3213 50.4416 43.0043C50.6627 42.8465 50.8619 42.6601 51.034 42.45L51.1567 42.2904L51.2909 42.0924C51.4097 41.9222 51.5677 41.7831 51.7516 41.6869C51.9355 41.5908 52.1399 41.5403 52.3475 41.5398C52.555 41.5393 52.7596 41.5888 52.944 41.6841C53.1284 41.7794 53.2871 41.9177 53.4067 42.0873L53.5417 42.2845L53.6649 42.444C53.8382 42.6528 54.0382 42.8377 54.2598 42.9942C54.7038 43.3086 55.2357 43.5189 55.7617 43.5401C56.2877 43.5612 56.8001 43.4131 57.2005 43.0272C57.6186 42.6544 57.8877 42.0687 58.0857 41.4386L58.0879 41.4322C58.1033 41.3826 58.1358 41.3401 58.1796 41.3121C58.2234 41.2841 58.2756 41.2724 58.3271 41.2792C58.3786 41.286 58.4261 41.3108 58.4612 41.3491C58.4962 41.3875 58.5166 41.437 58.5187 41.4889C58.5487 42.2007 58.4107 42.9772 57.9398 43.6522C57.6937 43.9924 57.3759 44.2744 57.0088 44.4782C56.6346 44.6796 56.2219 44.7993 55.7981 44.8295C54.9572 44.8976 54.1384 44.6467 53.4478 44.2176C53.1012 43.9989 52.7877 43.7317 52.5168 43.4241C52.4502 43.3454 52.3853 43.2651 52.3221 43.1833L52.2328 43.0564L52.1905 42.9925C52.1766 42.9717 52.1546 42.9404 52.1673 42.9612C52.1871 42.9923 52.2144 43.0179 52.2467 43.0356C52.279 43.0534 52.3153 43.0627 52.3522 43.0627C52.3891 43.0627 52.4253 43.0534 52.4577 43.0356C52.49 43.0179 52.5173 42.9923 52.5371 42.9612C52.5494 42.9404 52.5278 42.9722 52.5138 42.9929L52.4715 43.0568L52.3827 43.1838L52.1901 43.4258C51.9194 43.735 51.6059 44.0039 51.2591 44.2243C50.5706 44.6564 49.7531 44.9128 48.9114 44.8477C48.4871 44.8197 48.0736 44.7022 47.6981 44.5028C47.3301 44.3005 47.011 44.0198 46.7633 43.6806C46.2898 43.0073 46.1476 42.2316 46.1751 41.5194C46.177 41.4675 46.1971 41.4179 46.2319 41.3794C46.2667 41.3409 46.314 41.3159 46.3654 41.3088C46.4168 41.3017 46.4691 41.313 46.5131 41.3407C46.557 41.3684 46.5897 41.4107 46.6055 41.4602L46.6068 41.4682Z" fill="#363636"/>
<path id="Vector_44" d="M66.4283 42.6582C69.2496 42.6514 71.5297 39.7446 71.521 36.1657C71.5122 32.5869 69.218 29.6913 66.3966 29.6982C63.5752 29.7051 61.2952 32.6119 61.3039 36.1907C61.3127 39.7695 63.6069 42.6651 66.4283 42.6582Z" fill="white"/>
<path id="Vector_45" d="M66.4185 43.3207C63.2422 43.3207 60.6519 40.1262 60.6426 36.1928C60.6333 32.2594 63.2138 29.045 66.3952 29.0374H66.4066C69.5834 29.0374 72.1732 32.2315 72.1825 36.1648C72.1872 38.0437 71.6095 39.8181 70.5567 41.1583C69.467 42.5476 68.0016 43.3165 66.4299 43.3165L66.4185 43.3207ZM66.4071 30.3606H66.3986C63.9467 30.3665 61.9582 32.9817 61.9659 36.1898C61.9735 39.3979 63.9704 41.9974 66.4185 41.9974H66.4265C67.5843 41.9945 68.6812 41.405 69.5157 40.3441C70.3862 39.2341 70.8635 37.7513 70.8597 36.1682C70.8516 32.9635 68.8551 30.3602 66.4071 30.3602V30.3606Z" fill="#363636"/>
<path id="Vector_46" d="M65.5895 42.0955C67.8499 42.09 69.6766 39.7171 69.6694 36.7954C69.6623 33.8738 67.8241 31.5099 65.5636 31.5154C63.3032 31.5209 61.4765 33.8938 61.4836 36.8154C61.4908 39.7371 63.329 42.101 65.5895 42.0955Z" fill="#363636"/>
<path id="Vector_47" d="M66.5332 36.409C67.0627 36.4077 67.4905 35.7782 67.4886 35.003C67.4867 34.2278 67.0559 33.6004 66.5263 33.6017C65.9967 33.603 65.5689 34.2324 65.5708 35.0077C65.5727 35.7829 66.0036 36.4103 66.5332 36.409Z" fill="white"/>
<path id="Vector_48" d="M43.7612 36.1919C43.7699 32.6131 41.4899 29.7063 38.6685 29.6994C35.8471 29.6925 33.5529 32.5881 33.5442 36.167C33.5354 39.7458 35.8155 42.6526 38.6368 42.6595C41.4582 42.6663 43.7524 39.7707 43.7612 36.1919Z" fill="white"/>
<path id="Vector_49" d="M38.6469 43.3207H38.6354C37.0642 43.3169 35.5983 42.5497 34.5091 41.1625C33.4558 39.8194 32.8782 38.0454 32.8828 36.1666C32.8926 32.2336 35.4828 29.0391 38.6587 29.0391H38.6706C41.852 29.0467 44.4325 32.2552 44.4232 36.1945C44.4139 40.1338 41.8249 43.3207 38.6469 43.3207ZM34.2061 36.1691C34.2023 37.7518 34.6796 39.2346 35.5501 40.345C36.3842 41.408 37.481 41.9953 38.6393 41.9983H38.6473C41.0958 41.9983 43.0906 39.3954 43.1003 36.1907C43.1101 32.986 41.1195 30.3674 38.6676 30.3615H38.6591C36.2111 30.3615 34.2158 32.9644 34.2065 36.1691H34.2061Z" fill="#363636"/>
<path id="Vector_50" d="M43.5816 36.8159C43.5887 33.8943 41.762 31.5213 39.5016 31.5158C37.2411 31.5103 35.4029 33.8743 35.3957 36.7959C35.3886 39.7175 37.2153 42.0904 39.4757 42.0959C41.7362 42.1015 43.5744 39.7375 43.5816 36.8159Z" fill="#363636"/>
<path id="Vector_51" d="M39.4935 35.0087C39.4954 34.2335 39.0676 33.604 38.538 33.6027C38.0084 33.6014 37.5776 34.2288 37.5757 35.0041C37.5738 35.7793 38.0016 36.4088 38.5312 36.4101C39.0608 36.4114 39.4916 35.784 39.4935 35.0087Z" fill="white"/>
<path id="Vector_52" d="M55.7993 44.2044C55.7993 45.1218 55.5289 45.8547 55.0931 46.4078C53.7855 48.0709 50.9934 48.0709 49.6858 46.4078C49.2499 45.8577 48.9795 45.1218 48.9795 44.2044C50.3023 43.9386 51.4618 43.4524 52.3903 42.6589C53.3517 43.5209 54.4477 44.1193 55.7993 44.2044Z" fill="#363636"/>
<path id="Vector_53" d="M55.0938 46.4079C53.7862 48.071 50.9941 48.071 49.6865 46.4079C50.992 44.7406 53.7883 44.7406 55.0938 46.4079Z" fill="#F42C4F"/>
<path id="Vector_54" d="M52.3903 48.4176C51.3082 48.4176 50.2947 48.0418 49.536 47.3596C48.9346 46.8184 48.2178 45.8324 48.2178 44.2053H49.7433C49.7433 46.0609 51.0729 46.8916 52.3903 46.8916C53.7076 46.8916 55.0372 46.0609 55.0372 44.2053H56.5606C56.5627 46.9708 54.4638 48.4176 52.3903 48.4176Z" fill="#363636"/>
<path id="Vector_55" d="M77.3486 21.1001C77.1611 21.0999 76.9803 21.0306 76.8408 20.9054C74.2797 18.6135 71.5858 16.7135 68.8348 15.2573C68.7454 15.2101 68.6664 15.1457 68.6022 15.0677C68.538 14.9896 68.49 14.8996 68.4609 14.8029C68.4318 14.7061 68.4223 14.6045 68.4329 14.504C68.4435 14.4036 68.4739 14.3062 68.5225 14.2176C69.8999 11.6921 71.6785 9.31344 72.9285 7.76294C73.168 7.46538 73.4863 7.24113 73.847 7.11578C74.2078 6.99042 74.5966 6.96902 74.9689 7.054C75.3413 7.13898 75.6823 7.32693 75.9529 7.59639C76.2236 7.86586 76.4131 8.20599 76.4997 8.57797C77.1675 11.4327 77.9897 15.7867 78.1124 20.3147C78.1124 20.3218 78.1124 20.3307 78.1124 20.3375C78.1124 20.5395 78.0322 20.7333 77.8893 20.8761C77.7465 21.019 77.5527 21.0992 77.3507 21.0992L77.3486 21.1001ZM70.2351 14.2828C72.3755 15.4744 74.4761 16.9225 76.5039 18.6033C76.256 14.8549 75.5776 11.3413 75.0122 8.92455C74.9906 8.83116 74.9431 8.74573 74.8753 8.678C74.8074 8.61027 74.7219 8.56297 74.6285 8.54148C74.5351 8.52 74.4375 8.5252 74.3469 8.55649C74.2562 8.58778 74.1762 8.64391 74.116 8.71846C73.017 10.0836 71.4974 12.106 70.2351 14.2828Z" fill="#363636"/>
<path id="Vector_56" d="M53.591 60.8777C44.4264 60.8777 36.5063 58.9197 30.6872 55.2149C24.3435 51.1757 20.9902 45.3071 20.9902 38.2456C20.9902 35.3478 21.5696 32.4516 22.7125 29.6345C23.7485 20.637 24.9215 11.9133 27.6776 4.03597C27.9809 3.16047 28.4828 2.36711 29.144 1.71807C29.8052 1.06903 30.6078 0.581938 31.4887 0.294989C32.3697 0.00803959 33.3052 -0.0709761 34.2218 0.0641375C35.1384 0.199251 36.0113 0.544822 36.772 1.07376C40.5383 3.70674 44.4463 7.55042 46.8435 10.9616C51.3795 10.048 56.1063 10.0052 60.6093 10.8376C63.0108 7.45774 66.8697 3.67543 70.5907 1.07419C71.3514 0.545158 72.2243 0.199515 73.1409 0.0643544C74.0575 -0.0708061 74.993 0.00819075 75.8741 0.295149C76.7551 0.582108 77.5576 1.06923 78.2188 1.71832C78.88 2.36742 79.3819 3.16084 79.6851 4.03639C82.4712 12.0001 83.6401 20.83 84.6849 29.9324C84.6849 29.9379 84.6849 29.9434 84.6849 29.9489C85.684 32.6547 86.1905 35.4451 86.1905 38.2465C86.1905 45.3097 82.8377 51.1782 76.4944 55.2157C70.6753 58.9197 62.7561 60.8777 53.591 60.8777ZM24.2046 30.5985C23.2284 33.1083 22.7337 35.6766 22.7337 38.244C22.7337 44.6813 25.808 50.0411 31.6237 53.7439C37.0826 57.2198 44.8847 59.1343 53.591 59.1343C62.2974 59.1343 70.0985 57.2198 75.5579 53.7439C81.3727 50.0411 84.4445 44.6813 84.4445 38.244C84.4445 35.5818 83.9494 32.9272 82.9735 30.3539C82.9214 30.2168 82.9048 30.0688 82.9253 29.9235C81.8979 20.9946 80.7417 12.3445 78.0356 4.60979C77.8197 3.98381 77.4607 3.41685 76.9871 2.95403C76.5136 2.49121 75.9385 2.14529 75.3078 1.9438C74.6865 1.74029 74.0263 1.68473 73.3798 1.78157C72.7332 1.8784 72.1183 2.12494 71.5839 2.50154C67.8481 5.11294 63.9752 8.9545 61.7176 12.2887C61.6212 12.4305 61.4851 12.5408 61.3264 12.6059C61.1677 12.671 60.9934 12.688 60.8251 12.6547C56.1702 11.7157 51.2403 11.7661 46.5481 12.8037C46.4317 12.8295 46.3111 12.8311 46.1939 12.8084C46.0768 12.7857 45.9656 12.7392 45.8671 12.6718C45.7687 12.6043 45.6852 12.5174 45.6217 12.4163C45.5583 12.3153 45.5162 12.2022 45.4983 12.0843C43.2224 8.79877 39.4312 5.05962 35.7712 2.50112C35.2371 2.12492 34.6226 1.8786 33.9765 1.78177C33.3305 1.68495 32.6707 1.74028 32.0498 1.94338C31.4189 2.14469 30.8438 2.49054 30.3701 2.95338C29.8965 3.41623 29.5375 3.98328 29.3217 4.60937C26.6176 12.3378 25.4615 20.9802 24.4349 29.9003C24.4329 29.9319 24.4292 29.9634 24.4239 29.9946C24.4188 30.0395 24.4137 30.0835 24.4086 30.1279C24.3897 30.3018 24.3186 30.4658 24.2046 30.5985Z" fill="#363636"/>
<path id="Vector_57" d="M30.0126 21.1001C29.9054 21.1002 29.7993 21.0777 29.7014 21.034C29.6034 20.9903 29.5158 20.9264 29.4443 20.8465C29.3727 20.7666 29.3189 20.6725 29.2862 20.5704C29.2535 20.4682 29.2428 20.3603 29.2547 20.2537C29.297 19.8852 30.25 11.2004 30.8628 8.57671C30.9496 8.20465 31.1392 7.86448 31.41 7.59502C31.6809 7.32557 32.022 7.1377 32.3945 7.05284C32.7671 6.96799 33.1559 6.98958 33.5167 7.11514C33.8776 7.2407 34.1958 7.46518 34.4352 7.76296C35.6836 9.31388 37.4621 11.6934 38.8404 14.2172C38.935 14.3899 38.9591 14.5926 38.9075 14.7827C38.8559 14.9727 38.7326 15.1354 38.5637 15.2366C36.0208 16.7647 33.3794 18.6279 30.4887 20.9333C30.3534 21.0412 30.1856 21.0999 30.0126 21.1001ZM32.8534 8.5272C32.8131 8.52737 32.7729 8.53191 32.7336 8.54075C32.6391 8.56063 32.5524 8.60745 32.4839 8.67556C32.4154 8.74367 32.3681 8.83016 32.3477 8.92456C31.9207 10.7501 31.2957 15.862 30.9753 18.6152C33.1365 16.9543 35.1702 15.5371 37.1439 14.317C35.8782 12.1288 34.351 10.0929 33.2448 8.72102C33.1992 8.66045 33.14 8.61138 33.0721 8.57773C33.0041 8.54408 32.9292 8.52678 32.8534 8.5272Z" fill="#363636"/>
<g id="Group_13" opacity="0.2">
<path id="Vector_58" d="M56.7386 14.3064C60.6148 14.9242 63.7531 16.0803 65.9921 17.8923C66.7859 18.5347 66.4736 19.8186 65.4766 20.0399C60.9961 21.0348 57.5337 19.9646 55.4547 16.0909C54.9769 15.2005 55.7407 14.1472 56.7386 14.3064Z" fill="white"/>
</g>
<g id="Group_14" opacity="0.2">
<path id="Vector_59" d="M70.8758 24.1396C71.6003 23.5937 71.5791 22.3432 70.8284 21.3467C70.0777 20.3501 68.8818 19.9841 68.1569 20.5295C67.432 21.075 67.903 21.9886 68.652 22.9839C69.401 23.9792 70.1509 24.683 70.8758 24.1396Z" fill="white"/>
</g>
<g id="Group_15" opacity="0.3">
<path id="Vector_60" d="M39.2394 43.5527C38.4974 43.8122 37.7171 43.9454 36.931 43.9466C35.9928 43.9468 35.0604 43.7985 34.1685 43.5074L29.0977 30.4512C30.071 29.1521 31.5025 28.2888 33.1178 27.7891L39.2394 43.5527Z" fill="white"/>
</g>
<g id="Group_16" opacity="0.3">
<path id="Vector_61" d="M72.1105 43.1288C70.9368 43.6662 69.6614 43.9451 68.3705 43.9468C68.027 43.9468 67.6839 43.9208 67.3443 43.869L61.8135 29.6258C62.8871 28.5501 64.3487 27.8193 66.0304 27.4749L72.1105 43.1288Z" fill="white"/>
</g>
<g id="Group_17" opacity="0.3">
<path id="Vector_62" d="M76.5834 38.8548C75.9977 39.9998 75.1824 41.0117 74.1883 41.8276L68.5254 27.2434C69.8131 27.2565 71.1101 27.4402 72.3014 27.8248L76.5834 38.8548Z" fill="white"/>
</g>
<g id="Group_18" opacity="0.3">
<path id="Vector_63" d="M44.3685 38.8551C43.7825 39.9999 42.967 41.0119 41.9729 41.8279L36.3096 27.2437C37.5969 27.2568 38.8939 27.4404 40.0851 27.8251L44.3685 38.8551Z" fill="white"/>
</g>
<path id="Vector_64" d="M84.492 28.0899C83.3655 28.2013 82.2288 28.0396 81.1781 27.6185C80.8163 27.4746 80.485 27.2643 80.1705 27.0354C72.2691 21.2146 62.6381 23.5493 55.8403 28.3265C53.714 26.4363 51.5875 26.4363 49.4609 28.3265C42.6631 23.5493 33.0325 21.2146 25.1306 27.0354C24.8166 27.2643 24.4849 27.4746 24.1235 27.6185C23.0735 28.0396 21.9375 28.2013 20.8117 28.0899C20.7452 28.0827 20.6779 28.0895 20.6142 28.11C20.5504 28.1305 20.4917 28.1641 20.4419 28.2088C20.392 28.2535 20.3521 28.3081 20.3248 28.3692C20.2975 28.4303 20.2833 28.4965 20.2832 28.5634V30.2185C20.2842 30.3295 20.3239 30.4367 20.3954 30.5217C20.467 30.6066 20.5658 30.664 20.6751 30.684C22.4101 31.0174 23.3453 32.3995 23.6652 34.5869C28.1584 54.8991 49.7301 49.2286 49.8058 32.2387C49.8077 31.8509 49.9444 31.4758 50.1924 31.1776C50.4405 30.8795 50.7845 30.6768 51.1655 30.6044C52.1764 30.4076 53.1705 30.3928 54.1438 30.5744C54.5244 30.6466 54.8679 30.8494 55.115 31.1477C55.3622 31.446 55.4976 31.8212 55.4979 32.2086C55.5491 49.2202 77.1432 54.9102 81.6385 34.5869C81.9568 32.3995 82.892 31.0174 84.6265 30.684C84.7359 30.6643 84.835 30.607 84.9066 30.522C84.9781 30.437 85.0177 30.3296 85.0184 30.2185V28.5634C85.0186 28.4966 85.0047 28.4305 84.9776 28.3694C84.9505 28.3083 84.9108 28.2536 84.8611 28.2089C84.8115 28.1642 84.7529 28.1305 84.6893 28.11C84.6256 28.0895 84.5584 28.0826 84.492 28.0899ZM36.9312 43.9466C32.2069 43.9466 28.1453 40.1804 27.7907 35.5809C27.3252 29.5194 32.2082 27.2415 36.9312 27.2415C41.6543 27.2415 45.4124 29.8736 45.4124 34.4883C45.4124 39.103 41.6576 43.9466 36.9312 43.9466ZM77.5134 35.5809C77.1576 40.1804 73.0959 43.9466 68.3729 43.9466C63.6499 43.9466 59.8917 39.0992 59.8917 34.4883C59.8917 29.8774 63.6486 27.2415 68.3729 27.2415C73.0972 27.2415 77.9781 29.5194 77.5122 35.5809H77.5134Z" fill="#F42C4F"/>
<path id="Vector_65" d="M36.5126 47.6651C33.8889 47.6651 31.3537 46.7455 29.2641 45.0168C26.5418 42.7643 24.5703 39.1656 23.5623 34.6098C23.2309 32.3479 22.2809 31.1004 20.6555 30.7881C20.5222 30.7632 20.4017 30.6928 20.3146 30.5889C20.2274 30.485 20.1791 30.3541 20.1777 30.2185V28.5635C20.1778 28.4817 20.1951 28.4009 20.2284 28.3262C20.2618 28.2516 20.3105 28.1848 20.3713 28.1302C20.4322 28.0755 20.5039 28.0344 20.5817 28.0093C20.6595 27.9842 20.7418 27.9758 20.8231 27.9846C21.9319 28.0925 23.0505 27.9329 24.0849 27.5191C24.3879 27.3989 24.7006 27.2174 25.0688 26.9491C33.1822 20.973 42.969 23.6636 49.4541 28.1915C51.5759 26.3431 53.7281 26.3435 55.8482 28.1915C62.3321 23.6636 72.12 20.9726 80.2339 26.9495C80.6017 27.2174 80.9144 27.3989 81.2174 27.5191C82.2524 27.9328 83.3715 28.0924 84.4809 27.9846C84.5621 27.9758 84.6442 27.9843 84.7219 28.0094C84.7996 28.0345 84.8711 28.0758 84.9318 28.1304C84.9925 28.185 85.041 28.2518 85.0741 28.3264C85.1072 28.4011 85.1243 28.4818 85.1241 28.5635V30.2185C85.1229 30.3541 85.0745 30.4851 84.9874 30.589C84.9002 30.6929 84.7797 30.7633 84.6463 30.7881C83.0209 31.1004 82.0714 32.3479 81.7434 34.6021C80.7337 39.1678 78.7609 42.7694 76.0369 45.019C73.6278 47.0108 70.6241 47.927 67.5811 47.6003C64.3772 47.255 61.3782 45.6148 59.1371 42.9818C56.6996 40.1178 55.4047 36.393 55.3924 32.21C55.3913 31.8472 55.264 31.4961 55.0324 31.2169C54.8008 30.9377 54.4792 30.7478 54.1229 30.6798C53.1852 30.5025 52.1958 30.5105 51.1844 30.7098C50.828 30.7787 50.5064 30.9687 50.2741 31.2477C50.0419 31.5267 49.9133 31.8774 49.9102 32.2404C49.892 36.418 48.5933 40.1364 46.1554 42.9945C43.9126 45.6228 40.9157 47.2592 37.714 47.6016C37.3149 47.6439 36.9139 47.6651 36.5126 47.6651ZM20.7609 28.1932C20.669 28.193 20.5803 28.2269 20.512 28.2884C20.4732 28.3229 20.4421 28.3652 20.4209 28.4127C20.3998 28.4601 20.389 28.5115 20.3893 28.5635V30.2185C20.3906 30.305 20.4218 30.3883 20.4777 30.4543C20.5336 30.5203 20.6106 30.5648 20.6957 30.5803C22.396 30.907 23.4302 32.2497 23.7705 34.5713C26.0497 44.8755 32.4569 47.952 37.6928 47.39C43.6291 46.7552 49.6597 41.3462 49.6999 32.2404C49.7033 31.8285 49.8491 31.4303 50.1126 31.1136C50.376 30.7969 50.741 30.5811 51.1455 30.5029C52.184 30.3006 53.1996 30.2913 54.1636 30.4724C54.5675 30.5508 54.9317 30.7669 55.1941 31.0838C55.4565 31.4008 55.6008 31.7989 55.6023 32.2104C55.6294 41.3306 61.6596 46.7506 67.6022 47.3908C72.8398 47.9545 79.2518 44.8827 81.5335 34.5658C81.872 32.2523 82.9037 30.9091 84.6049 30.5824C84.6899 30.567 84.767 30.5225 84.8228 30.4565C84.8786 30.3904 84.9098 30.3071 84.9108 30.2206V28.5656C84.9111 28.5136 84.9003 28.4622 84.8793 28.4146C84.8583 28.3671 84.8274 28.3245 84.7888 28.2898C84.7501 28.255 84.7046 28.2288 84.6551 28.2129C84.6056 28.197 84.5533 28.1917 84.5016 28.1974C83.3582 28.3088 82.2048 28.1447 81.1378 27.7188C80.8175 27.5919 80.4899 27.4023 80.107 27.123C72.0553 21.1914 62.3227 23.9018 55.9015 28.4154L55.833 28.4636L55.7703 28.4082C53.6714 26.5424 51.6304 26.5428 49.5319 28.4082L49.4693 28.4636L49.3991 28.4137C42.9757 23.8997 33.2436 21.1901 25.1936 27.1209C24.8102 27.4006 24.4827 27.5898 24.1623 27.7171C23.096 28.1431 21.9431 28.3073 20.8002 28.1957C20.7872 28.1941 20.774 28.1932 20.7609 28.1932ZM68.3703 44.0524C63.4556 44.0524 59.7833 39.0031 59.7833 34.4887C59.7833 30.0911 63.2343 27.1365 68.3703 27.1365C71.5187 27.1365 74.2486 28.1344 75.8604 29.8745C77.2066 31.3281 77.7982 33.2505 77.6187 35.5873C77.2569 40.2557 73.1081 44.0524 68.3703 44.0524ZM68.3703 27.3477C63.3608 27.3477 59.9949 30.2172 59.9949 34.4883C59.9949 38.9033 63.5766 43.8404 68.3703 43.8404C73.0002 43.8404 77.0542 40.1313 77.4071 35.5721C77.5819 33.2945 77.0094 31.425 75.7047 30.0167C74.133 28.3206 71.4599 27.3477 68.3703 27.3477ZM36.932 44.0524C32.1924 44.0524 28.0454 40.2557 27.6844 35.589C27.5045 33.2501 28.0957 31.3276 29.4422 29.8762C31.0537 28.1361 33.7836 27.1382 36.9324 27.1382C42.0684 27.1382 45.5194 30.0928 45.5194 34.4904C45.519 39.0031 41.8463 44.0524 36.932 44.0524ZM36.932 27.3477C33.8428 27.3477 31.1688 28.321 29.5975 30.0175C28.2929 31.4262 27.7204 33.2954 27.8951 35.5729C28.2481 40.1317 32.302 43.8408 36.932 43.8408C41.7252 43.8408 45.3074 38.9033 45.3074 34.4887C45.3074 30.2172 41.9415 27.3477 36.932 27.3477Z" fill="#363636"/>
<g id="Group_19" opacity="0.55">
<path id="Vector_66" d="M84.492 28.0899C83.3655 28.2013 82.2288 28.0396 81.1781 27.6185C80.8163 27.4746 80.485 27.2643 80.1706 27.0354C72.2691 21.2146 62.6381 23.5493 55.8403 28.3265C53.714 26.4363 51.5875 26.4363 49.4609 28.3265C42.6631 23.5493 33.0325 21.2146 25.1306 27.0354C24.8167 27.2643 24.4849 27.4746 24.1235 27.6185C23.0735 28.0396 21.9375 28.2013 20.8117 28.0899C20.7452 28.0827 20.6779 28.0895 20.6142 28.11C20.5504 28.1305 20.4917 28.1641 20.4419 28.2088C20.392 28.2535 20.3521 28.3081 20.3248 28.3692C20.2975 28.4303 20.2833 28.4965 20.2832 28.5634V30.1715C20.2832 30.1046 20.2973 30.0384 20.3247 29.9773C20.352 29.9161 20.3919 29.8615 20.4418 29.8168C20.4916 29.7722 20.5504 29.7386 20.6141 29.7182C20.6779 29.6977 20.7452 29.691 20.8117 29.6984C21.9375 29.8096 23.0736 29.6477 24.1235 29.2266C24.4849 29.0827 24.8167 28.8728 25.1306 28.6434C33.0325 22.8227 42.6631 25.1573 49.4631 29.9349C51.5896 28.0448 53.7161 28.0448 55.8424 29.9349C62.6402 25.1573 72.2712 22.8227 80.1748 28.6434C80.4892 28.8728 80.8205 29.0827 81.1824 29.2266C82.2331 29.6477 83.3697 29.8095 84.4962 29.6984C84.5626 29.6911 84.6298 29.6979 84.6933 29.7184C84.7569 29.7389 84.8154 29.7726 84.8651 29.8172C84.9147 29.8619 84.9544 29.9165 84.9815 29.9776C85.0086 30.0386 85.0224 30.1047 85.0222 30.1715V28.5634C85.0225 28.4962 85.0085 28.4298 84.9812 28.3684C84.9539 28.307 84.9138 28.2521 84.8637 28.2073C84.8136 28.1626 84.7545 28.129 84.6904 28.1087C84.6264 28.0885 84.5587 28.0821 84.492 28.0899ZM77.5096 35.6186C77.1347 40.2011 73.0824 43.9466 68.3691 43.9466C63.9233 43.9466 60.3331 39.6518 59.9277 35.3025C59.901 35.5667 59.8877 35.832 59.8879 36.0976C59.8879 40.7102 63.6448 45.5559 68.3691 45.5559C73.0934 45.5559 77.1555 41.7897 77.5096 37.1902C77.5529 36.6672 77.5525 36.1415 77.5084 35.6186H77.5096ZM45.3739 35.3025C44.969 39.6518 41.3805 43.9466 36.9325 43.9466C32.2213 43.9466 28.1694 40.2011 27.7945 35.6186C27.7495 36.1414 27.7483 36.6671 27.7907 37.1902C28.1466 41.7897 32.2082 45.5559 36.9312 45.5559C41.6543 45.5559 45.4124 40.7085 45.4124 36.0976C45.4129 35.832 45.3996 35.5666 45.3727 35.3025H45.3739Z" fill="white"/>
</g>
<path id="Vector_67" d="M36.5116 48.2859C33.7449 48.2859 31.0709 47.3168 28.8683 45.4951C26.0385 43.1541 23.9946 39.4365 22.9565 34.744C22.9527 34.727 22.9498 34.7097 22.9472 34.6923C22.5664 32.0814 21.3904 31.5609 20.5394 31.3984C20.2643 31.346 20.0161 31.1997 19.837 30.9845C19.6579 30.7693 19.5591 30.4985 19.5576 30.2186V28.5635C19.5575 28.3947 19.593 28.2277 19.6617 28.0735C19.7304 27.9193 19.8308 27.7813 19.9564 27.6684C20.082 27.5556 20.2299 27.4704 20.3906 27.4185C20.5513 27.3666 20.7211 27.3492 20.8889 27.3672C21.8979 27.4652 22.9157 27.3201 23.857 26.944C24.111 26.8438 24.3788 26.6863 24.7034 26.4494C32.9167 20.398 42.7614 22.9303 49.4209 27.4176C51.5439 25.7719 53.7597 25.7719 55.8827 27.4176C62.5422 22.9319 72.3865 20.3988 80.6028 26.4515C80.9252 26.6863 81.1952 26.8438 81.4491 26.9445C82.3902 27.3201 83.4074 27.4652 84.416 27.3676C84.5838 27.3496 84.7536 27.3671 84.9143 27.419C85.0749 27.4709 85.2229 27.556 85.3485 27.6688C85.474 27.7817 85.5745 27.9197 85.6432 28.0739C85.7119 28.2282 85.7473 28.3951 85.7473 28.5639V30.219C85.7458 30.4988 85.6472 30.7694 85.4683 30.9846C85.2894 31.1997 85.0412 31.346 84.7664 31.3984C83.9149 31.5621 82.7398 32.0818 82.3577 34.6927C82.3551 34.7101 82.3522 34.7274 82.3484 34.7444C81.3099 39.4386 79.2643 43.1575 76.4324 45.4985C73.8934 47.5978 70.7255 48.5631 67.5145 48.2173C64.1515 47.8551 61.0086 46.1383 58.6642 43.3834C56.1307 40.4064 54.7846 36.5433 54.7711 32.2117C54.7707 31.9935 54.6946 31.7822 54.5556 31.614C54.4166 31.4458 54.2235 31.3311 54.0093 31.2896C53.1495 31.1271 52.2392 31.1364 51.3044 31.318C51.089 31.3594 50.8946 31.4741 50.7541 31.6425C50.6136 31.811 50.5356 32.0228 50.5334 32.2422C50.5139 36.5682 49.164 40.425 46.6296 43.3966C44.284 46.1472 41.1415 47.8585 37.7811 48.2182C37.3594 48.2632 36.9357 48.2858 36.5116 48.2859ZM52.7614 29.7201C53.2714 29.7193 53.7803 29.7663 54.2814 29.8605C54.8277 29.9652 55.3206 30.2565 55.6757 30.6846C56.0308 31.1126 56.2261 31.6508 56.228 32.207C56.2538 40.9616 62.0048 46.1603 67.6723 46.7714C72.6408 47.3088 78.7268 44.3508 80.9248 34.457C81.2985 31.9493 82.4317 30.456 84.2954 30.0137V28.8369C83.1421 28.906 81.9878 28.7206 80.9142 28.294C80.5439 28.1467 80.1732 27.9334 79.7467 27.6228C71.9573 21.8846 62.5088 24.5337 56.2606 28.9215C56.1267 29.0156 55.9648 29.0617 55.8014 29.0524C55.6379 29.043 55.4824 28.9787 55.3601 28.8699C53.513 27.2288 51.7932 27.2288 49.9465 28.8699C49.8241 28.9788 49.6685 29.0432 49.505 29.0525C49.3414 29.0619 49.1795 29.0157 49.0455 28.9215C42.7991 24.5315 33.3505 21.8846 25.5641 27.6207C25.135 27.9334 24.7643 28.1467 24.3945 28.294C23.3206 28.7202 22.1662 28.9055 21.0129 28.8369V30.012C22.8749 30.453 24.0098 31.9468 24.383 34.4554C26.5797 44.3453 32.6611 47.3029 37.6283 46.7697C43.2904 46.1641 49.0421 40.9764 49.0807 32.2329C49.0852 31.6775 49.2814 31.1408 49.6361 30.7135C49.9908 30.2863 50.4822 29.9947 51.0272 29.8881C51.598 29.7769 52.1782 29.7206 52.7597 29.7201H52.7614ZM68.3735 44.6737C63.1029 44.6737 59.1649 39.2964 59.1649 34.4888C59.1649 29.7192 62.8655 26.5149 68.3735 26.5149C71.6941 26.5149 74.5899 27.5856 76.3186 29.4522C77.7874 31.0378 78.4344 33.1185 78.2402 35.6368C77.853 40.6201 73.4266 44.6737 68.3718 44.6737H68.3735ZM68.3735 27.969C64.5137 27.969 60.6193 29.985 60.6193 34.4888C60.6193 38.6101 63.9353 43.2197 68.3735 43.2197C72.6861 43.2197 76.462 39.7679 76.7904 35.5247C76.9516 33.4275 76.4341 31.7162 75.2517 30.4403C73.7956 28.8699 71.2887 27.969 68.3718 27.969H68.3735ZM36.9318 44.6737C31.8766 44.6737 27.4502 40.6201 27.0647 35.6373C26.8713 33.1185 27.5175 31.0378 28.9863 29.4522C30.715 27.5856 33.6107 26.5149 36.9318 26.5149C42.4394 26.5149 46.14 29.7192 46.14 34.4888C46.1409 39.2964 42.2054 44.6737 36.9331 44.6737H36.9318ZM36.9318 27.969C34.0145 27.969 31.5076 28.8699 30.0531 30.4403C28.8708 31.7166 28.3533 33.4275 28.5145 35.5251C28.8429 39.7679 32.6193 43.2197 36.9318 43.2197C41.3696 43.2197 44.6856 38.6101 44.6856 34.4888C44.6869 29.985 40.7924 27.969 36.9331 27.969H36.9318Z" fill="#363636"/>
<path id="Vector_68" d="M25.3057 90.5862H88.68C89.1158 90.5862 89.5338 90.7593 89.8419 91.0675C90.1501 91.3756 90.3232 91.7936 90.3232 92.2294V105.015C90.3232 105.451 90.1501 105.869 89.8419 106.177C89.5338 106.485 89.1158 106.658 88.68 106.658H25.3057C24.3438 106.658 23.4212 106.276 22.741 105.596C22.0608 104.916 21.6787 103.993 21.6787 103.031V94.2132C21.6787 93.2512 22.0608 92.3287 22.741 91.6485C23.4212 90.9683 24.3438 90.5862 25.3057 90.5862Z" fill="#6E76F1"/>
<g id="Group_20" opacity="0.7">
<path id="Vector_69" d="M88.681 90.5862H25.3067C24.3448 90.5862 23.4222 90.9683 22.742 91.6485C22.0618 92.3287 21.6797 93.2512 21.6797 94.2132V103.031C21.6791 103.624 21.8245 104.207 22.1029 104.73C22.1029 104.728 22.1029 104.726 22.1029 104.724V95.9059C22.1029 94.9439 22.485 94.0214 23.1652 93.3412C23.8454 92.661 24.7679 92.2789 25.7299 92.2789H30.4449C30.8409 92.9923 33.1701 93.5399 35.9842 93.5399C38.7983 93.5399 41.1274 92.9923 41.5235 92.2789H89.1041C89.3344 92.2788 89.5621 92.3274 89.7723 92.4213C89.9825 92.5152 90.1706 92.6524 90.3242 92.8239V92.2315C90.3245 92.0155 90.2822 91.8016 90.1998 91.602C90.1174 91.4023 89.9964 91.2209 89.8438 91.0681C89.6911 90.9153 89.5099 90.794 89.3104 90.7114C89.1108 90.6287 88.897 90.5861 88.681 90.5862Z" fill="white"/>
</g>
<path id="Vector_70" d="M28.8876 90.5625H26.3037V106.658H28.8876V90.5625Z" fill="white"/>
<path id="Vector_71" d="M33.9618 90.5625H31.3779V106.658H33.9618V90.5625Z" fill="white"/>
<g id="Group_21" opacity="0.3">
<path id="Vector_72" d="M88.681 102.427H25.3067C24.3448 102.427 23.4222 102.044 22.742 101.364C22.0618 100.684 21.6797 99.7615 21.6797 98.7996V103.031C21.6797 103.993 22.0618 104.916 22.742 105.596C23.4222 106.276 24.3448 106.658 25.3067 106.658H88.681C88.8968 106.658 89.1105 106.616 89.3099 106.533C89.5092 106.451 89.6904 106.33 89.843 106.177C89.9956 106.025 90.1166 105.843 90.1992 105.644C90.2818 105.445 90.3242 105.231 90.3242 105.015V100.783C90.3242 100.999 90.2818 101.213 90.1992 101.412C90.1166 101.612 89.9956 101.793 89.843 101.945C89.6904 102.098 89.5092 102.219 89.3099 102.302C89.1105 102.384 88.8968 102.427 88.681 102.427Z" fill="#363636"/>
</g>
<path id="Vector_73" d="M88.6797 107.505H25.3058C24.1197 107.503 22.9826 107.032 22.1439 106.193C21.3052 105.354 20.8334 104.217 20.832 103.031V94.2131C20.8334 93.027 21.3052 91.8899 22.1439 91.0513C22.9826 90.2127 24.1197 89.741 25.3058 89.7397H88.6797C89.3397 89.7405 89.9725 90.0031 90.4392 90.4698C90.9059 90.9365 91.1684 91.5693 91.1692 92.2293V105.015C91.1684 105.675 90.9059 106.308 90.4392 106.774C89.9725 107.241 89.3397 107.504 88.6797 107.505ZM25.3058 91.4324C24.5685 91.4332 23.8617 91.7264 23.3403 92.2477C22.8189 92.769 22.5256 93.4758 22.5247 94.2131V103.031C22.5256 103.768 22.8189 104.475 23.3403 104.997C23.8617 105.518 24.5685 105.811 25.3058 105.812H88.6797C88.8909 105.811 89.0934 105.727 89.2428 105.578C89.3921 105.429 89.4762 105.226 89.4765 105.015V92.228C89.4762 92.0168 89.3921 91.8143 89.2428 91.6649C89.0934 91.5156 88.8909 91.4315 88.6797 91.4312L25.3058 91.4324Z" fill="#363636"/>
<path id="Vector_74" d="M55.3095 94.2593H90.3232V103.101H55.3095C54.9418 103.101 54.5777 103.028 54.2381 102.887C53.8984 102.747 53.5898 102.541 53.3298 102.281C53.0698 102.021 52.8636 101.712 52.7229 101.372C52.5822 101.033 52.5098 100.669 52.5098 100.301V97.059C52.5098 96.6913 52.5822 96.3273 52.7229 95.9876C52.8636 95.6479 53.0698 95.3393 53.3298 95.0793C53.5898 94.8193 53.8984 94.6131 54.2381 94.4724C54.5777 94.3317 54.9418 94.2593 55.3095 94.2593Z" fill="white"/>
<g id="Group_22" opacity="0.3">
<path id="Vector_75" d="M57.8475 101.195C57.4799 101.195 57.1158 101.122 56.7761 100.982C56.4365 100.841 56.1278 100.635 55.8678 100.375C55.6079 100.115 55.4016 99.8061 55.2609 99.4664C55.1202 99.1267 55.0478 98.7626 55.0478 98.395V95.1531C55.0483 94.8508 55.0979 94.5507 55.1947 94.2644C54.473 94.2931 53.7904 94.5999 53.2898 95.1205C52.7892 95.6411 52.5093 96.3351 52.5088 97.0573V100.299C52.5088 100.667 52.5812 101.031 52.7219 101.371C52.8626 101.71 53.0688 102.019 53.3288 102.279C53.5888 102.539 53.8974 102.745 54.2371 102.886C54.5768 103.027 54.9408 103.099 55.3085 103.099H90.3222V101.195H57.8475Z" fill="#363636"/>
</g>
<path id="Vector_76" d="M90.3235 103.875H55.3098C54.3618 103.874 53.453 103.497 52.7827 102.826C52.1124 102.156 51.7354 101.247 51.7344 100.299V97.0575C51.7354 96.1095 52.1124 95.2007 52.7827 94.5303C53.453 93.8599 54.3618 93.4828 55.3098 93.4817H90.3235C90.5292 93.4817 90.7266 93.5634 90.8721 93.7089C91.0176 93.8543 91.0994 94.0516 91.0995 94.2574V103.099C91.0995 103.305 91.0178 103.502 90.8722 103.647C90.7267 103.793 90.5293 103.875 90.3235 103.875ZM55.3098 95.0335C54.7732 95.034 54.2587 95.2475 53.8793 95.6269C53.4999 96.0064 53.2866 96.5209 53.2861 97.0575V100.299C53.2867 100.836 53.5001 101.35 53.8794 101.729C54.2588 102.109 54.7732 102.322 55.3098 102.323H89.5478V95.0335H55.3098Z" fill="#363636"/>
<g id="Group_23" opacity="0.4">
<path id="Vector_77" d="M81.8271 96.8745C82.5351 96.7856 83.2431 96.7437 83.951 96.7137L86.0749 96.6435C86.7829 96.6172 87.4909 96.6062 88.1984 96.5884C88.906 96.5707 89.6144 96.5626 90.3223 96.5571V97.1919C89.6144 97.1864 88.9064 97.1779 88.1984 97.1606C87.4905 97.1432 86.7829 97.1314 86.0749 97.1051L83.951 97.0353C83.2431 97.0048 82.5351 96.9634 81.8271 96.8745Z" fill="#363636"/>
<path id="Vector_78" d="M52.5752 96.5572C56.5729 96.5314 60.5706 96.5526 64.5683 96.5759L70.5651 96.6376C72.5637 96.6639 74.5628 96.6376 76.5614 96.8746C74.5628 97.1099 72.5637 97.0862 70.5651 97.1112L64.5683 97.173C60.5706 97.1967 56.5729 97.2178 52.5752 97.192V96.5572Z" fill="#363636"/>
<path id="Vector_79" d="M69.5684 98.7845C71.2983 98.5505 73.0278 98.5585 74.7573 98.5374L79.9458 98.4773L85.1343 98.451C86.8638 98.4485 88.5933 98.451 90.3228 98.4671V99.1019C88.5932 99.118 86.8637 99.1232 85.1343 99.1175L79.9458 99.0917L74.7573 99.0312C73.0278 99.0105 71.2983 99.0185 69.5684 98.7845Z" fill="#363636"/>
<path id="Vector_80" d="M52.5752 98.467C53.6599 98.4579 54.7445 98.4579 55.829 98.467L59.0823 98.5025L62.3357 98.566C63.4203 98.5829 64.5049 98.6049 65.5894 98.7844C64.5049 98.9634 63.4203 98.9858 62.3357 99.0027L59.0823 99.0662L55.829 99.1017C54.7442 99.1094 53.6596 99.1094 52.5752 99.1017V98.467Z" fill="#363636"/>
<path id="Vector_81" d="M79.9453 100.694C80.8099 100.567 81.6748 100.512 82.5394 100.479L85.1338 100.414C85.9984 100.388 86.8633 100.385 87.7283 100.375C88.1605 100.368 88.5928 100.366 89.0253 100.369C89.4578 100.369 89.8899 100.369 90.3223 100.377V101.011C89.8899 101.019 89.4578 101.019 89.0253 101.02C88.5928 101.02 88.1604 101.02 87.7283 101.014C86.8633 101.003 85.9984 101 85.1338 100.975L82.5394 100.909C81.6748 100.876 80.8099 100.821 79.9453 100.694Z" fill="#363636"/>
<path id="Vector_82" d="M52.5752 100.377L57.9203 100.406L63.265 100.457L68.6096 100.527C70.3912 100.548 72.1732 100.569 73.9543 100.696C72.1732 100.823 70.3912 100.842 68.6096 100.865L63.265 100.934L57.9203 100.986L52.5752 101.015V100.377Z" fill="#363636"/>
</g>
<path id="Vector_83" d="M86.6962 122.73L23.3219 122.73C22.8861 122.73 22.4682 122.557 22.16 122.249C21.8519 121.941 21.6788 121.523 21.6788 121.087V108.3C21.6788 107.864 21.8519 107.447 22.16 107.138C22.4682 106.83 22.8861 106.657 23.3219 106.657H86.6962C87.6582 106.657 88.5807 107.039 89.2609 107.719C89.9411 108.4 90.3232 109.322 90.3232 110.284V119.103C90.3232 120.065 89.9411 120.988 89.2609 121.668C88.5807 122.348 87.6582 122.73 86.6962 122.73Z" fill="#F42C4F"/>
<path id="Vector_84" d="M83.1143 122.73H85.6982V106.635H83.1143V122.73Z" fill="#FFBC1F"/>
<path id="Vector_85" d="M78.0401 122.73H80.624V106.635H78.0401V122.73Z" fill="#FFBC1F"/>
<g id="Group_24" opacity="0.3">
<path id="Vector_86" d="M23.3229 118.499H86.6972C87.1735 118.499 87.6451 118.405 88.0852 118.222C88.5252 118.04 88.925 117.773 89.2618 117.436C89.5986 117.099 89.8658 116.7 90.0481 116.26C90.2303 115.82 90.3242 115.348 90.3242 114.872V119.103C90.3242 119.58 90.2303 120.051 90.0481 120.491C89.8658 120.931 89.5986 121.331 89.2618 121.668C88.925 122.005 88.5252 122.272 88.0852 122.454C87.6451 122.636 87.1735 122.73 86.6972 122.73H23.3229C23.1071 122.73 22.8934 122.688 22.694 122.605C22.4946 122.523 22.3134 122.402 22.1608 122.249C22.0082 122.097 21.8872 121.915 21.8047 121.716C21.7221 121.517 21.6796 121.303 21.6797 121.087V116.857C21.6799 117.292 21.8531 117.71 22.1613 118.018C22.4694 118.326 22.8873 118.499 23.3229 118.499Z" fill="#363636"/>
</g>
<g id="Group_25" opacity="0.7">
<path id="Vector_87" d="M23.3229 106.658H86.6972C87.1735 106.658 87.6451 106.752 88.0852 106.934C88.5252 107.117 88.925 107.384 89.2618 107.721C89.5986 108.057 89.8658 108.457 90.0481 108.897C90.2303 109.337 90.3242 109.809 90.3242 110.285V119.103C90.3247 119.696 90.1794 120.279 89.901 120.802C89.901 120.802 89.901 120.798 89.901 120.796V111.978C89.901 111.016 89.5189 110.093 88.8387 109.413C88.1585 108.733 87.2359 108.351 86.274 108.351H81.559C81.1629 109.064 78.8338 109.612 76.0197 109.612C73.2056 109.612 70.8764 109.064 70.4803 108.351H22.8997C22.6694 108.351 22.4418 108.399 22.2316 108.493C22.0213 108.587 21.8333 108.724 21.6797 108.896V108.301C21.6796 108.086 21.7221 107.872 21.8047 107.672C21.8872 107.473 22.0082 107.292 22.1608 107.139C22.3134 106.987 22.4946 106.866 22.694 106.783C22.8934 106.701 23.1071 106.658 23.3229 106.658Z" fill="white"/>
</g>
<path id="Vector_88" d="M86.6959 123.577H23.3216C22.6615 123.576 22.0288 123.313 21.5621 122.847C21.0954 122.38 20.8328 121.747 20.832 121.087V108.302C20.8328 107.642 21.0954 107.009 21.5621 106.542C22.0288 106.075 22.6615 105.813 23.3216 105.812H86.6959C87.8818 105.813 89.0189 106.285 89.8575 107.124C90.6961 107.962 91.1679 109.099 91.1692 110.285V119.103C91.1679 120.289 90.6961 121.426 89.8575 122.265C89.0189 123.104 87.8818 123.575 86.6959 123.577ZM23.3216 107.505C23.1103 107.505 22.9077 107.589 22.7584 107.738C22.609 107.888 22.5249 108.09 22.5247 108.302V121.089C22.5249 121.3 22.609 121.502 22.7584 121.652C22.9077 121.801 23.1103 121.885 23.3216 121.885H86.6959C87.4331 121.884 88.1398 121.591 88.6611 121.07C89.1824 120.549 89.4756 119.842 89.4765 119.105V110.285C89.4756 109.548 89.1824 108.841 88.6611 108.32C88.1398 107.799 87.4331 107.506 86.6959 107.505H23.3216Z" fill="#363636"/>
<path id="Vector_89" d="M56.6915 119.171H21.6778V110.33H56.6915C57.0592 110.33 57.4232 110.402 57.7629 110.543C58.1026 110.684 58.4112 110.89 58.6712 111.15C58.9312 111.41 59.1374 111.719 59.2781 112.058C59.4188 112.398 59.4912 112.762 59.4912 113.13V116.372C59.4912 116.739 59.4188 117.103 59.2781 117.443C59.1374 117.783 58.9312 118.091 58.6712 118.351C58.4112 118.611 58.1026 118.818 57.7629 118.958C57.4232 119.099 57.0592 119.171 56.6915 119.171Z" fill="white"/>
<g id="Group_26" opacity="0.3">
<path id="Vector_90" d="M54.1544 117.267C54.8969 117.267 55.609 116.972 56.134 116.447C56.6591 115.921 56.9541 115.209 56.9541 114.467V111.225C56.9536 110.923 56.904 110.623 56.8072 110.337C57.5289 110.366 58.2114 110.672 58.712 111.193C59.2126 111.713 59.4925 112.407 59.4931 113.13V116.371C59.4931 117.114 59.1981 117.826 58.6731 118.351C58.148 118.876 57.4359 119.171 56.6934 119.171H21.6797V117.267H54.1544Z" fill="#363636"/>
</g>
<path id="Vector_91" d="M56.6921 119.946H21.6784C21.4726 119.946 21.2752 119.864 21.1297 119.718C20.9841 119.573 20.9023 119.376 20.9023 119.17V110.33C20.9025 110.124 20.9843 109.927 21.1298 109.781C21.2753 109.636 21.4727 109.554 21.6784 109.554H56.6921C57.6402 109.555 58.5491 109.932 59.2195 110.602C59.8899 111.273 60.2669 112.182 60.268 113.13V116.371C60.2665 117.319 59.8893 118.228 59.2189 118.898C58.5486 119.568 57.6399 119.945 56.6921 119.946ZM22.4541 118.394H56.6921C57.2287 118.393 57.7432 118.18 58.1226 117.8C58.502 117.421 58.7155 116.907 58.7162 116.37V113.128C58.7156 112.592 58.5022 112.077 58.1227 111.698C57.7433 111.318 57.2288 111.105 56.6921 111.104H22.4541V118.394Z" fill="#363636"/>
<g id="Group_27" opacity="0.4">
<path id="Vector_92" d="M30.1749 112.946C29.4669 113.035 28.7589 113.077 28.051 113.107L25.9271 113.177C25.2191 113.203 24.5111 113.215 23.8036 113.232C23.096 113.25 22.3877 113.258 21.6797 113.264V112.629C22.3877 112.634 23.0956 112.642 23.8036 112.66C24.5116 112.678 25.2191 112.689 25.9271 112.715L28.051 112.785C28.7589 112.816 29.469 112.857 30.1749 112.946Z" fill="#363636"/>
<path id="Vector_93" d="M59.4267 113.264C55.429 113.29 51.4313 113.268 47.4336 113.245L41.4368 113.183C39.4381 113.157 37.4391 113.183 35.4404 112.946C37.4391 112.711 39.4381 112.735 41.4368 112.709L47.4336 112.648C51.4313 112.624 55.429 112.603 59.4267 112.629V113.264Z" fill="#363636"/>
<path id="Vector_94" d="M42.4342 114.856C40.7042 115.09 38.9747 115.082 37.2452 115.103L32.0567 115.164L26.8682 115.19C25.1388 115.193 23.4093 115.187 21.6797 115.174V114.539C23.4092 114.523 25.1387 114.521 26.8682 114.523L32.0567 114.549L37.2452 114.609C38.9747 114.63 40.7042 114.622 42.4342 114.856Z" fill="#363636"/>
<path id="Vector_95" d="M59.4273 115.173C58.3429 115.182 57.2583 115.182 56.1736 115.173L52.9202 115.138L49.6669 115.074C48.5823 115.057 47.4977 115.035 46.4131 114.856C47.4977 114.677 48.5823 114.654 49.6669 114.638L52.9202 114.574L56.1736 114.539C57.2583 114.531 58.3429 114.531 59.4273 114.539V115.173Z" fill="#363636"/>
<path id="Vector_96" d="M32.0567 116.766C31.1922 116.893 30.3272 116.948 29.4627 116.981L26.8682 117.046C26.0037 117.072 25.1387 117.075 24.2737 117.085C23.8415 117.092 23.4092 117.094 22.9767 117.091C22.5442 117.091 22.1122 117.091 21.6797 117.083V116.449C22.1122 116.441 22.5442 116.441 22.9767 116.44C23.4092 116.44 23.8417 116.44 24.2737 116.446C25.1387 116.457 26.0037 116.46 26.8682 116.485L29.4627 116.551C30.3272 116.584 31.1922 116.639 32.0567 116.766Z" fill="#363636"/>
<path id="Vector_97" d="M59.4269 117.083L54.0819 117.054L48.7372 117.003L43.3925 116.933C41.611 116.912 39.829 116.891 38.0479 116.764C39.829 116.637 41.611 116.618 43.3925 116.595L48.7372 116.525L54.0819 116.474L59.4269 116.445V117.083Z" fill="#363636"/>
</g>
<path id="Vector_98" d="M11.1432 122.413C12.0741 122.155 13.0051 122.018 13.9361 121.914C14.8671 121.809 15.7981 121.772 16.729 121.742C18.591 121.673 20.453 121.709 22.3149 121.747C24.1769 121.784 26.0388 121.777 27.9008 121.778H89.364H92.157C93.0879 121.778 94.0189 121.736 94.9499 121.715C95.8818 121.694 96.8142 121.725 97.7428 121.806C98.6738 121.901 99.6048 122.057 100.536 122.414C100.601 122.438 100.656 122.481 100.696 122.538C100.735 122.595 100.756 122.662 100.756 122.731C100.756 122.8 100.735 122.868 100.696 122.925C100.656 122.981 100.601 123.025 100.536 123.049C99.6048 123.405 98.6738 123.562 97.7428 123.656C96.8142 123.738 95.8818 123.768 94.9499 123.747C94.0189 123.727 93.0879 123.684 92.157 123.684H89.364H27.9046C26.0426 123.684 24.1807 123.676 22.3187 123.716C20.4568 123.756 18.5948 123.789 16.7328 123.721C15.8019 123.69 14.8709 123.655 13.9399 123.549C13.0089 123.443 12.078 123.307 11.147 123.05C11.0775 123.03 11.0162 122.989 10.9726 122.932C10.9289 122.874 10.9053 122.804 10.9053 122.732C10.9053 122.66 10.9289 122.59 10.9726 122.533C11.0162 122.475 11.0775 122.434 11.147 122.415L11.1432 122.413Z" fill="#363636"/>
</g>
</svg>
